<?xml version="1.0" standalone="no"?>
<!DOCTYPE svg PUBLIC "-//W3C//DTD SVG 20010904//EN"
 "http://www.w3.org/TR/2001/REC-SVG-20010904/DTD/svg10.dtd">
<svg version="1.0" xmlns="http://www.w3.org/2000/svg"
 width="1800.000000pt" height="1012.000000pt" viewBox="0 0 1800.000000 1012.000000"
 preserveAspectRatio="xMidYMid meet">

<g transform="translate(0.000000,1012.000000) scale(0.100000,-0.100000)"
fill="#000000" stroke="none">
<path d="M0 5060 l0 -5060 9000 0 9000 0 0 5060 0 5060 -9000 0 -9000 0 0
-5060z m8385 4181 l210 -78 5 -252 5 -252 165 -65 c91 -36 188 -74 215 -84 28
-10 129 -50 225 -88 96 -38 176 -69 177 -68 2 2 5 36 8 76 3 41 7 75 8 75 25
15 534 156 550 152 12 -2 126 -43 252 -90 l230 -86 -3 -268 -2 -268 157 -62
c347 -137 852 -333 857 -333 4 0 6 36 6 80 0 44 2 80 4 80 2 0 127 43 277 95
l273 95 241 -89 c132 -49 265 -99 296 -111 l57 -22 -6 -64 c-3 -42 -1 -64 6
-64 8 0 809 288 819 294 1 1 11 107 22 236 12 129 23 255 26 280 l6 46 238 82
238 83 292 -95 c161 -52 294 -96 296 -98 7 -7 -72 -689 -80 -697 -19 -19 -459
-183 -479 -178 -12 2 -28 6 -36 8 -16 4 -29 -117 -119 -1056 -23 -236 -43
-440 -44 -453 -2 -26 -12 -21 330 -162 l153 -63 -5 -36 c-3 -20 -19 -162 -35
-315 -17 -154 -31 -281 -33 -282 -1 -1 -103 -50 -227 -108 l-225 -107 -270
122 c-148 67 -272 123 -274 125 -4 3 49 627 53 631 1 1 85 39 186 83 102 44
204 89 227 100 35 16 47 18 68 8 14 -6 28 -8 31 -5 4 4 13 66 20 139 20 205
80 823 109 1122 14 147 25 269 23 271 -2 1 -115 42 -252 91 l-248 88 5 63 c2
35 4 63 2 63 -2 0 -171 -61 -587 -213 -114 -42 -215 -80 -225 -86 -17 -8 -21
-39 -38 -291 -10 -155 -24 -288 -29 -295 -6 -8 -129 -59 -273 -115 l-262 -100
-283 116 c-156 64 -287 120 -292 124 -4 4 -3 102 3 217 6 114 11 239 13 277
l1 69 -259 102 c-142 56 -342 135 -444 174 -102 40 -213 84 -247 97 l-63 24 0
-70 c0 -56 -3 -71 -17 -79 -10 -5 -124 -44 -253 -86 -129 -43 -238 -80 -242
-84 -4 -3 -12 -271 -17 -596 -6 -324 -13 -659 -15 -742 -2 -84 -1 -153 3 -153
5 0 115 -50 245 -112 l238 -112 -7 -268 -8 -268 478 -235 c263 -129 479 -235
481 -235 2 0 4 18 4 40 l0 41 83 38 c45 20 163 72 262 115 l180 78 195 -92
c107 -51 232 -110 278 -131 97 -45 89 -2 63 -349 -11 -135 -17 -249 -14 -253
5 -8 433 -221 989 -492 l231 -113 9 45 9 45 259 133 260 134 39 -20 c21 -11
41 -19 42 -17 2 2 34 271 70 598 36 327 77 695 91 818 14 122 23 226 20 230
-3 5 -133 61 -290 127 -209 86 -286 122 -286 134 1 43 77 771 81 774 2 3 126
54 275 115 l271 111 154 -58 c85 -32 243 -90 351 -130 l198 -73 -6 -37 c-3
-20 -25 -197 -49 -395 -24 -197 -45 -359 -47 -361 -2 -1 -123 -57 -270 -124
l-267 -123 -46 17 c-25 10 -47 16 -49 14 -1 -2 -42 -362 -90 -799 -48 -437
-89 -807 -92 -821 -5 -24 3 -29 133 -92 301 -144 396 -187 412 -186 9 0 160
78 336 172 l320 172 32 240 c18 132 38 281 45 330 l13 90 227 118 226 117 303
-125 c167 -69 314 -129 326 -135 13 -5 20 -15 17 -27 -2 -10 -24 -148 -49
-308 -25 -159 -48 -302 -51 -317 -5 -23 -36 -44 -229 -151 l-223 -124 -294
132 c-162 73 -305 136 -317 140 -17 5 -94 -32 -344 -165 -177 -94 -324 -173
-326 -176 -2 -2 -23 -160 -47 -350 -24 -191 -44 -348 -46 -349 -2 -1 -118 -66
-258 -145 l-255 -143 -170 88 c-93 48 -239 123 -323 167 l-154 80 7 47 c14
109 53 537 48 544 -2 4 -91 49 -196 101 -106 51 -380 186 -609 299 l-418 206
0 -32 c0 -18 -4 -37 -8 -44 -4 -7 -70 -42 -147 -79 -77 -36 -191 -90 -253
-120 l-114 -54 -274 141 c-244 125 -274 143 -274 165 0 13 -2 24 -5 24 -10 0
-998 -450 -1007 -458 -3 -4 -10 -143 -14 -309 -4 -166 -10 -306 -13 -311 -3
-5 -55 -32 -116 -60 -60 -28 -185 -87 -276 -130 l-167 -80 -6 -254 c-3 -139
-8 -424 -11 -633 l-5 -380 266 -170 266 -170 -6 -310 c-6 -265 -9 -312 -23
-322 -8 -6 -135 -78 -281 -159 -250 -139 -267 -146 -289 -133 -12 8 -129 88
-258 179 l-235 165 0 306 c0 192 4 309 10 315 7 7 -33 39 -122 100 -73 49
-263 176 -421 283 l-288 194 -261 -127 -261 -127 -61 43 c-34 23 -87 60 -118
83 -31 22 -102 71 -156 109 -119 82 -108 44 -118 408 l-7 256 39 20 c22 11
146 67 277 126 l238 107 37 -23 c20 -12 121 -77 223 -144 l186 -122 8 -285 c4
-157 4 -294 1 -304 -4 -14 14 -31 87 -80 51 -34 236 -159 411 -278 176 -118
327 -215 335 -215 9 0 126 58 261 128 l245 127 7 390 c13 797 14 885 4 885 -5
0 -130 72 -278 161 l-268 161 -2 325 -3 324 -410 235 c-225 129 -413 234 -417
234 -5 0 -8 -6 -8 -13 0 -12 -550 -247 -577 -247 -6 0 -112 60 -235 134 l-223
133 -7 74 c-3 41 -8 190 -10 333 l-3 259 250 94 c137 52 251 96 253 98 4 4
-20 973 -34 1377 l-7 188 -36 -6 c-31 -5 -66 9 -272 109 l-236 114 -7 164
c-18 449 -17 440 -40 449 -12 4 -66 29 -121 55 -111 53 -431 199 -484 222
l-34 15 6 -52 c6 -46 4 -52 -16 -60 -12 -6 -123 -39 -246 -75 -123 -35 -225
-66 -226 -67 -1 -2 9 -167 21 -368 12 -201 33 -539 45 -753 13 -213 26 -392
30 -398 4 -7 18 -7 46 1 l40 12 197 -107 c108 -59 198 -110 201 -115 7 -12 37
-599 32 -614 -3 -7 -101 -47 -218 -89 -118 -43 -220 -82 -228 -86 -12 -8 -9
-101 23 -653 21 -353 40 -645 42 -647 2 -2 21 1 43 9 46 15 30 23 254 -124
l173 -114 12 -234 c7 -128 12 -256 12 -284 l0 -50 -262 -112 c-145 -62 -268
-112 -274 -112 -6 0 -63 37 -128 83 -64 45 -148 104 -186 131 -67 47 -70 51
-71 90 0 23 -8 148 -17 279 -12 161 -14 241 -7 246 5 4 106 46 223 92 l213 84
-6 105 c-60 993 -73 1191 -77 1195 -3 3 -23 -1 -46 -9 l-41 -15 -193 116
c-106 64 -196 121 -200 127 -4 6 -8 35 -8 64 0 28 -2 52 -4 52 -2 0 -127 -43
-278 -96 -150 -53 -304 -107 -343 -120 -38 -13 -223 -77 -410 -143 l-340 -119
2 -34 c1 -18 12 -131 24 -251 12 -120 19 -220 16 -223 -3 -3 -110 -44 -239
-91 -128 -46 -268 -98 -310 -114 -43 -16 -82 -29 -87 -29 -7 0 -304 208 -378
265 -4 3 -82 649 -79 652 2 2 112 40 245 85 214 72 241 83 241 102 -1 44 -78
707 -83 712 -5 5 -853 -259 -863 -269 -3 -3 11 -130 31 -283 19 -154 37 -290
38 -304 2 -24 -9 -29 -416 -163 l-418 -139 -215 162 c-118 88 -214 167 -214
174 0 6 -27 187 -60 401 -33 214 -58 395 -56 401 2 6 15 14 28 16 13 3 198 58
413 122 214 64 395 114 400 112 8 -3 405 -261 433 -281 1 -1 8 -44 14 -95 6
-50 16 -94 22 -96 10 -3 851 258 861 267 5 6 -89 846 -95 853 -3 3 -34 -4 -69
-14 -34 -11 -71 -20 -80 -20 -17 0 -365 201 -387 223 -15 15 -99 716 -88 726
5 5 160 48 344 96 l335 88 202 -104 202 -104 6 -60 c11 -107 17 -135 28 -135
10 0 277 73 1237 339 l205 57 -3 64 c-2 36 -9 147 -15 248 -7 100 -11 182 -10
182 1 0 132 34 290 76 159 41 295 76 304 77 12 1 413 -166 427 -178 2 -2 10
-130 18 -286 9 -156 16 -284 17 -285 11 -8 643 -294 650 -294 5 0 7 22 5 49
-3 28 -2 54 1 58 3 5 103 37 221 72 118 35 256 76 307 91 l91 27 244 -106 243
-106 7 -180 c5 -99 7 -265 5 -369 l-2 -189 -267 -89 -268 -90 5 -86 c3 -48 12
-395 21 -772 9 -377 17 -691 20 -697 2 -10 10 -10 30 -3 24 10 50 -2 260 -117
l234 -128 0 -48 c0 -46 1 -49 23 -43 12 3 200 75 417 161 217 86 455 179 528
208 l132 52 1 235 c0 213 3 278 13 287 1 2 110 44 242 94 131 50 240 92 241
93 1 1 6 260 12 576 6 316 13 650 15 741 l5 167 -252 104 -252 104 -3 266 -2
267 -53 20 c-28 10 -202 78 -385 150 -183 72 -338 131 -343 131 -5 0 -9 -31
-9 -68 l0 -68 -202 -59 c-112 -32 -231 -66 -264 -76 l-62 -17 -123 52 c-68 28
-163 67 -211 86 -83 34 -87 36 -92 70 -3 19 -6 168 -8 330 l-3 294 250 67
c138 37 259 67 270 68 11 0 115 -35 230 -78z"/>
<path d="M7945 9253 c-93 -25 -197 -53 -229 -62 l-59 -16 202 -79 c202 -77
203 -78 252 -66 l50 12 -3 127 c-3 118 -4 126 -23 128 -11 1 -96 -19 -190 -44z"/>
<path d="M8170 9175 c0 -69 3 -125 8 -125 12 0 376 101 381 105 4 5 9 3 -213
86 -88 32 -163 59 -168 59 -4 0 -8 -56 -8 -125z"/>
<path d="M7647 8953 c3 -115 8 -253 12 -309 l6 -101 197 56 198 56 0 176 0
176 -200 77 c-110 42 -204 76 -209 76 -5 0 -7 -87 -4 -207z"/>
<path d="M8375 9091 c-93 -26 -178 -50 -188 -54 -16 -6 -17 -18 -15 -108 l3
-101 200 -79 c110 -44 203 -79 207 -79 5 0 8 106 8 235 l0 235 -22 -1 c-13 -1
-99 -22 -193 -48z"/>
<path d="M8103 9018 l-33 -11 0 -106 c0 -58 3 -136 6 -172 l7 -67 39 12 c22 6
40 14 39 19 -1 4 -1 34 -1 66 0 51 -3 61 -20 66 -11 3 -20 10 -20 15 0 4 9 6
20 3 19 -5 20 0 20 91 0 104 1 102 -57 84z"/>
<path d="M8177 8803 c-2 -5 -1 -33 1 -64 l4 -56 121 -49 c67 -26 159 -63 205
-80 l83 -33 -3 66 -3 67 -200 78 c-226 88 -203 80 -208 71z"/>
<path d="M5718 8666 c-147 -39 -269 -74 -272 -77 -3 -2 81 -44 187 -91 l193
-87 96 26 96 26 -4 76 c-8 136 -15 201 -22 200 -4 0 -127 -33 -274 -73z"/>
<path d="M6018 8734 c-5 -4 11 -256 16 -261 6 -6 356 89 356 97 0 7 -368 169
-372 164z"/>
<path d="M8108 8658 l-28 -10 0 -139 c0 -76 3 -139 6 -139 6 0 166 46 402 117
46 14 82 26 80 28 -14 13 -388 155 -408 154 -14 0 -37 -5 -52 -11z"/>
<path d="M7857 8587 c-97 -28 -174 -54 -170 -58 6 -5 248 -107 371 -156 9 -4
12 23 12 115 0 125 -4 153 -24 151 -6 0 -91 -24 -189 -52z"/>
<path d="M9675 8571 c-121 -37 -226 -69 -234 -72 -8 -3 93 -47 224 -97 184
-72 241 -90 251 -81 11 9 14 47 14 165 0 140 -2 154 -17 153 -10 0 -117 -31
-238 -68z"/>
<path d="M9940 8485 c0 -113 3 -155 12 -155 16 0 441 132 450 139 7 6 -429
171 -451 171 -8 0 -11 -48 -11 -155z"/>
<path d="M5423 8513 c4 -37 12 -142 18 -233 6 -91 12 -166 13 -167 1 -1 86 21
190 50 l188 51 -7 91 c-4 49 -10 93 -14 97 -5 5 -249 117 -360 165 l-34 14 6
-68z"/>
<path d="M6225 8506 l-190 -51 3 -115 c2 -63 5 -122 8 -131 2 -8 57 -39 122
-69 64 -29 149 -68 188 -87 40 -18 76 -33 82 -33 6 0 9 14 7 33 -3 17 -10 138
-16 267 -6 129 -11 236 -12 236 -1 1 -87 -22 -192 -50z"/>
<path d="M13718 8477 c-115 -40 -208 -75 -208 -79 0 -13 394 -138 401 -127 3
6 9 54 13 107 4 54 10 114 13 135 3 20 2 37 -3 36 -5 0 -102 -33 -216 -72z"/>
<path d="M13942 8428 c-18 -188 -22 -173 52 -198 l63 -21 214 77 c118 43 217
80 222 84 5 5 -514 180 -535 180 -3 0 -10 -55 -16 -122z"/>
<path d="M9410 8412 l0 -68 223 -87 c122 -48 230 -89 240 -93 16 -6 18 0 15
66 l-3 73 -230 88 c-126 49 -233 89 -237 89 -5 0 -8 -31 -8 -68z"/>
<path d="M10180 8386 l-235 -73 -3 -90 -3 -89 33 -11 c18 -6 124 -47 236 -91
128 -50 205 -76 207 -68 8 25 15 496 8 495 -4 0 -114 -33 -243 -73z"/>
<path d="M5970 8438 c-19 -5 -58 -16 -87 -24 l-52 -15 6 -87 c3 -48 7 -88 8
-90 1 -1 22 3 47 9 38 11 51 10 88 -5 23 -9 45 -15 47 -12 7 7 -8 236 -16 235
-3 0 -22 -5 -41 -11z"/>
<path d="M13475 8316 c-32 -363 -40 -458 -38 -460 2 -2 103 34 225 78 l222 81
7 35 c4 19 10 71 13 115 l7 80 -215 71 -215 72 -6 -72z"/>
<path d="M14284 8279 l-220 -80 -17 -177 c-10 -97 -14 -179 -10 -183 14 -11
403 -142 409 -137 3 3 18 126 34 274 16 148 32 295 36 327 3 31 2 57 -3 56 -4
0 -107 -36 -229 -80z"/>
<path d="M9410 8102 c0 -125 -3 -237 -6 -249 -4 -16 -2 -23 7 -23 8 0 118 33
244 73 l230 73 0 84 0 84 -200 78 c-110 43 -217 85 -237 93 l-38 15 0 -228z"/>
<path d="M9906 8254 c-9 -66 -8 -104 3 -104 5 0 11 34 13 75 3 83 -6 100 -16
29z"/>
<path d="M13915 8141 c-8 -105 -7 -118 10 -112 50 18 49 20 41 -74 -8 -91 -3
-104 35 -105 13 0 18 23 28 128 6 70 14 148 17 173 l6 47 -53 17 c-30 10 -59
20 -66 22 -8 3 -13 -26 -18 -96z"/>
<path d="M5880 8217 l-35 -12 4 -80 c1 -44 5 -82 7 -84 2 -3 21 0 42 5 35 9
37 11 40 54 4 52 -6 130 -16 129 -4 0 -23 -5 -42 -12z"/>
<path d="M5950 8147 c0 -41 3 -76 6 -80 11 -11 79 20 82 37 2 10 1 33 -3 52
-5 27 -13 37 -42 49 -19 8 -37 15 -39 15 -2 0 -4 -33 -4 -73z"/>
<path d="M5630 8149 l-175 -50 4 -82 c1 -45 5 -84 7 -86 4 -4 177 41 310 81
l64 19 0 47 c0 68 -11 122 -24 121 -6 0 -90 -23 -186 -50z"/>
<path d="M6050 8136 c0 -24 6 -48 13 -53 11 -8 72 -37 300 -142 l87 -40 0 48
0 48 -122 56 c-68 30 -158 71 -200 91 l-78 35 0 -43z"/>
<path d="M9932 8053 l3 -67 235 -93 c129 -51 236 -93 237 -93 2 0 3 31 3 69 0
46 -4 71 -12 74 -97 40 -454 177 -460 177 -5 0 -8 -30 -6 -67z"/>
<path d="M3213 8007 c-167 -44 -303 -83 -303 -87 0 -9 346 -200 362 -200 16 0
299 78 305 84 2 2 -1 50 -7 107 -17 165 -20 179 -38 178 -10 -1 -153 -37 -319
-82z"/>
<path d="M3570 8058 c0 -67 24 -248 32 -248 23 0 318 84 318 91 0 4 -37 26
-82 49 -46 24 -125 65 -175 92 l-93 50 0 -34z"/>
<path d="M4697 7890 c-390 -109 -710 -200 -712 -202 -5 -4 40 -446 45 -451 11
-8 426 -236 443 -243 15 -6 18 -3 15 17 -4 29 -22 22 392 144 l325 96 229
-120 c125 -65 232 -123 236 -128 8 -7 65 -772 58 -778 -2 -1 -163 -55 -358
-120 l-355 -117 -231 136 -231 137 -8 90 c-5 67 -10 89 -19 86 -14 -6 -662
-210 -811 -257 -76 -23 -91 -31 -93 -51 -3 -20 67 -709 73 -717 1 -1 34 9 74
22 l72 24 194 -126 c166 -109 195 -131 195 -152 0 -43 12 -100 21 -100 7 0
410 140 1014 352 94 32 207 72 253 88 45 16 86 31 90 34 4 2 0 112 -9 243 -9
131 -15 240 -12 243 2 3 106 39 231 81 l227 76 -2 119 c-1 65 -9 229 -17 364
-9 135 -25 407 -36 605 -23 403 -27 445 -42 445 -6 0 -27 -5 -47 -11 -34 -10
-46 -6 -242 90 l-206 100 -7 90 c-6 76 -10 91 -24 90 -9 -1 -336 -90 -725
-199z"/>
<path d="M5986 8058 l-28 -10 7 -142 c4 -77 9 -143 11 -145 2 -2 99 24 216 58
117 34 219 61 226 61 37 -1 -7 26 -175 103 -104 48 -197 87 -208 86 -11 0 -33
-5 -49 -11z"/>
<path d="M5881 8029 l-24 -9 8 -143 c4 -78 8 -143 10 -145 2 -2 22 2 45 8 l42
11 -7 112 c-3 62 -7 127 -8 145 -1 35 -18 40 -66 21z"/>
<path d="M13924 8018 c-17 -8 -23 -23 -28 -66 -7 -59 -4 -66 32 -77 20 -6 22
-3 22 28 0 19 3 55 6 81 7 48 3 52 -32 34z"/>
<path d="M5670 7969 c-91 -26 -172 -49 -180 -51 -12 -3 350 -188 367 -188 6 0
-8 238 -16 265 -6 21 -9 20 -171 -26z"/>
<path d="M13648 7918 l-216 -80 -4 -54 c-2 -37 1 -54 9 -54 14 0 425 150 434
159 4 3 9 30 12 59 4 37 3 52 -6 51 -7 -1 -109 -37 -229 -81z"/>
<path d="M7432 7902 c-155 -47 -279 -89 -275 -93 5 -4 108 -52 230 -107 l221
-101 68 22 67 22 -7 95 c-3 52 -6 130 -6 173 0 42 -3 77 -7 76 -5 -1 -135 -40
-291 -87z"/>
<path d="M7747 7818 c3 -90 7 -165 9 -166 1 -2 102 27 223 64 121 38 217 72
213 75 -11 10 -428 189 -440 189 -7 0 -9 -52 -5 -162z"/>
<path d="M9916 7903 c-8 -105 -8 -273 2 -273 22 0 474 157 466 162 -5 3 -101
43 -214 87 -113 45 -214 86 -226 90 -20 9 -22 6 -28 -66z"/>
<path d="M9810 7940 c-30 -10 -128 -42 -217 -70 -90 -29 -163 -55 -163 -58 0
-6 442 -192 446 -188 1 1 4 76 8 169 7 188 13 176 -74 147z"/>
<path d="M2890 7882 c1 -40 76 -651 81 -656 4 -5 320 82 328 89 3 4 -38 387
-42 391 -1 1 -84 47 -184 102 -180 99 -183 100 -183 74z"/>
<path d="M3760 7838 c-80 -22 -149 -44 -153 -48 -5 -4 -6 -47 -2 -94 6 -66 11
-86 22 -86 24 0 317 81 327 90 5 5 5 47 1 94 -6 80 -8 86 -28 85 -12 0 -87
-19 -167 -41z"/>
<path d="M11738 7792 c-136 -48 -244 -90 -240 -93 7 -7 447 -178 467 -182 9
-2 15 61 28 276 3 48 2 87 -2 86 -3 0 -117 -39 -253 -87z"/>
<path d="M12006 7785 c-3 -52 -9 -137 -12 -189 l-7 -95 34 -6 c28 -5 81 10
273 79 131 48 245 90 253 94 9 6 -73 41 -253 108 -147 54 -270 100 -274 102
-4 1 -10 -40 -14 -93z"/>
<path d="M13780 7841 c-52 -21 -148 -57 -212 -80 -65 -24 -118 -46 -118 -50 0
-6 417 -157 450 -163 11 -2 17 22 26 117 20 189 19 191 -17 204 -18 6 -32 11
-33 10 -1 -1 -44 -18 -96 -38z"/>
<path d="M13955 7837 c-2 -6 -9 -77 -16 -156 -10 -121 -10 -144 2 -152 36 -23
44 -7 57 121 16 157 14 180 -16 191 -15 6 -24 5 -27 -4z"/>
<path d="M14026 7798 c-10 -45 -28 -269 -23 -275 5 -5 354 125 406 152 21 11
5 18 -170 78 -107 37 -197 67 -201 67 -4 0 -10 -10 -12 -22z"/>
<path d="M7130 7750 c0 -58 -27 -40 264 -174 l207 -95 -3 56 -3 56 -228 104
c-126 56 -230 103 -233 103 -2 0 -4 -22 -4 -50z"/>
<path d="M3430 7748 c-80 -22 -148 -43 -151 -46 -4 -4 3 -90 15 -192 25 -210
14 -196 120 -165 l52 15 -7 68 c-15 134 -19 126 64 149 l72 20 -3 84 c-2 46
-7 89 -10 95 -5 7 -53 -2 -152 -28z"/>
<path d="M7973 7702 c-116 -37 -215 -70 -218 -74 -4 -3 -3 -80 1 -171 l7 -165
229 -107 c126 -59 231 -106 232 -104 2 2 1 158 -2 347 -4 306 -7 342 -21 341
-9 0 -111 -30 -228 -67z"/>
<path d="M11470 7669 c0 -13 -3 -47 -6 -75 l-6 -51 232 -92 c127 -50 243 -94
256 -97 24 -6 24 -5 24 69 l0 75 -42 17 c-24 9 -128 50 -233 90 -104 41 -198
77 -207 80 -14 6 -18 2 -18 -16z"/>
<path d="M3840 7653 c-47 -14 -116 -34 -154 -45 l-69 -20 7 -61 c3 -34 9 -64
14 -69 10 -10 366 -208 369 -205 1 2 -7 90 -17 197 -11 107 -20 203 -20 213 0
22 -24 21 -130 -10z"/>
<path d="M7144 7412 c7 -261 10 -302 24 -302 4 0 104 31 222 69 l215 68 3 59
c1 33 -1 83 -5 112 l-8 53 -110 50 c-60 28 -163 75 -229 105 l-119 54 7 -268z"/>
<path d="M12310 7567 l-255 -93 -6 -60 c-3 -32 -4 -61 -2 -63 2 -3 508 175
519 183 7 5 14 126 7 126 -4 -1 -123 -42 -263 -93z"/>
<path d="M7672 7608 c-57 -17 -63 -22 -58 -41 3 -12 6 -38 6 -58 0 -30 5 -38
35 -52 l35 -17 0 -80 c0 -83 8 -96 41 -67 13 10 14 38 9 173 l-5 162 -63 -20z"/>
<path d="M3528 7566 c-20 -6 -39 -14 -43 -17 -3 -4 24 -23 61 -43 36 -20 67
-36 68 -34 1 2 0 27 -2 56 -4 58 -11 61 -84 38z"/>
<path d="M3464 7509 c3 -13 8 -50 11 -81 4 -32 11 -58 18 -58 6 0 37 7 69 16
49 14 58 20 58 40 0 18 -14 31 -62 58 -93 51 -100 53 -94 25z"/>
<path d="M11457 7428 c-10 -149 -20 -438 -15 -438 2 0 119 42 259 94 l254 94
0 78 0 77 -225 89 c-124 48 -234 91 -246 94 -20 5 -21 1 -27 -88z"/>
<path d="M12520 7505 c-19 -7 -133 -50 -253 -94 -121 -43 -220 -81 -222 -83
-1 -2 -5 -40 -8 -86 l-5 -82 28 -15 c48 -25 462 -186 467 -182 2 3 10 98 18
213 8 115 17 239 21 277 3 37 2 67 -2 66 -5 0 -25 -7 -44 -14z"/>
<path d="M11985 7425 c-8 -74 -2 -98 22 -93 27 5 40 128 16 146 -27 20 -31 15
-38 -53z"/>
<path d="M7620 7360 c0 -104 3 -110 44 -94 13 5 16 22 16 85 0 77 -1 79 -30
94 l-30 16 0 -101z"/>
<path d="M3640 7422 c0 -16 39 -42 182 -121 99 -56 183 -99 186 -97 14 15 -23
42 -165 121 -87 49 -168 95 -180 103 -21 13 -23 13 -23 -6z"/>
<path d="M3542 7369 c-60 -19 -63 -22 -58 -47 3 -15 11 -81 17 -147 6 -66 15
-123 18 -126 5 -6 466 123 477 133 6 7 -359 208 -376 207 -8 0 -43 -10 -78
-20z"/>
<path d="M3375 7323 c-27 -8 -52 -17 -54 -19 -2 -1 5 -71 14 -153 13 -113 21
-151 32 -151 7 0 40 7 73 17 41 11 60 21 60 32 0 9 -7 72 -15 141 -8 69 -15
131 -15 138 0 15 -32 14 -95 -5z"/>
<path d="M11976 7289 c-13 -64 -7 -108 15 -119 11 -7 22 -10 24 -8 1 2 5 38 9
81 7 77 7 77 -17 77 -19 0 -26 -7 -31 -31z"/>
<path d="M3137 7255 c-82 -24 -150 -45 -152 -47 -2 -2 75 -49 172 -106 96 -57
177 -102 178 -100 8 8 -31 292 -40 294 -5 1 -77 -18 -158 -41z"/>
<path d="M7714 7270 c-20 -8 -21 -13 -16 -187 2 -98 6 -180 8 -181 1 -2 115
33 253 79 138 45 249 84 247 87 -10 10 -450 212 -460 211 -6 0 -20 -4 -32 -9z"/>
<path d="M7634 7242 c-7 -5 -9 -63 -6 -184 4 -156 7 -178 21 -178 42 1 43 9
36 194 -7 152 -10 176 -24 176 -9 0 -21 -4 -27 -8z"/>
<path d="M4852 7130 c-178 -54 -325 -100 -328 -102 -2 -3 94 -60 214 -126
l219 -121 129 41 c71 22 131 42 133 44 9 9 -23 364 -33 363 -6 0 -156 -45
-334 -99z"/>
<path d="M5210 7213 c2 -56 27 -334 31 -338 3 -2 45 8 95 24 49 16 137 43 197
61 59 18 107 36 107 39 0 4 -39 27 -87 52 -336 178 -343 181 -343 162z"/>
<path d="M7550 7218 c-14 -5 -106 -36 -205 -67 l-180 -58 208 -101 c114 -56
217 -104 227 -107 23 -7 24 7 13 218 -7 137 -6 137 -63 115z"/>
<path d="M4030 7197 c0 -22 -14 -28 -255 -98 -165 -48 -255 -79 -255 -87 0
-31 92 -837 95 -841 3 -2 78 19 167 47 395 123 741 233 747 237 6 3 -35 504
-42 511 -3 3 -385 217 -434 243 -21 11 -23 9 -23 -12z"/>
<path d="M11711 7074 c-139 -51 -255 -95 -257 -97 -2 -2 117 -53 264 -114 175
-72 269 -106 273 -99 4 6 10 76 13 156 4 80 9 162 12 182 5 33 2 38 -23 51
-27 14 -40 11 -282 -79z"/>
<path d="M12026 7047 c-3 -51 -9 -138 -12 -195 l-7 -103 64 25 c35 13 143 54
239 91 218 84 213 81 175 95 -25 10 -219 86 -406 160 l-46 19 -7 -92z"/>
<path d="M4500 7003 c0 -24 40 -51 233 -158 115 -63 211 -115 213 -115 2 0 4
9 4 19 0 15 -50 47 -207 135 -224 124 -243 133 -243 119z"/>
<path d="M5440 6918 c-107 -34 -197 -62 -198 -64 -9 -6 22 -350 32 -361 16
-17 428 -244 434 -239 5 5 -36 668 -44 704 -2 12 -10 22 -17 21 -6 0 -100 -28
-207 -61z"/>
<path d="M14167 6871 c-130 -54 -240 -100 -242 -103 -5 -5 437 -178 453 -178
5 0 16 73 26 163 9 89 19 174 22 190 4 18 1 27 -8 27 -7 -1 -120 -45 -251 -99z"/>
<path d="M14440 6957 c0 -8 -9 -94 -20 -193 -11 -98 -16 -181 -12 -185 10 -9
165 -69 178 -69 13 0 496 208 507 219 4 4 -32 21 -80 38 -49 17 -191 70 -318
117 -126 47 -236 86 -242 86 -7 0 -13 -6 -13 -13z"/>
<path d="M4510 6935 c0 -21 42 -470 44 -472 1 -1 91 26 201 60 l200 63 3 49
c2 30 -2 57 -10 67 -11 14 -420 248 -433 248 -3 0 -5 -7 -5 -15z"/>
<path d="M5091 6809 c-69 -22 -126 -41 -128 -43 -2 -2 -1 -15 2 -29 5 -17 24
-34 63 -55 103 -55 103 -55 23 -80 -79 -26 -77 -22 -65 -129 5 -35 11 -53 21
-53 12 0 234 69 241 75 6 5 -21 340 -27 346 -3 4 -62 -11 -130 -32z"/>
<path d="M13900 6743 c0 -5 -16 -163 -35 -353 -19 -190 -35 -355 -35 -366 0
-20 23 -12 253 88 138 61 255 113 259 117 11 11 42 331 32 340 -9 9 -454 181
-467 181 -4 0 -7 -3 -7 -7z"/>
<path d="M14840 6601 l-245 -107 -19 -167 c-12 -102 -16 -171 -10 -176 13 -12
453 -185 458 -180 2 2 23 157 45 344 23 187 44 352 47 368 5 22 2 27 -13 26
-10 -1 -128 -49 -263 -108z"/>
<path d="M4970 6662 c0 -60 10 -67 64 -51 25 7 46 17 46 20 0 4 -25 21 -55 37
l-55 30 0 -36z"/>
<path d="M4935 6565 c-5 -2 -91 -29 -190 -60 -99 -32 -182 -59 -185 -60 -7 -4
5 -153 12 -161 6 -6 388 114 399 125 10 10 -5 154 -16 157 -5 1 -14 1 -20 -1z"/>
<path d="M14396 6538 c-3 -13 -10 -75 -16 -138 -6 -63 -13 -127 -16 -143 -5
-24 -1 -29 32 -43 45 -19 53 -10 55 56 0 25 5 56 10 70 5 16 6 -7 3 -63 l-6
-87 37 -16 c21 -8 40 -13 43 -10 9 9 41 320 34 328 -7 6 -158 68 -167 68 -3 0
-7 -10 -9 -22z"/>
<path d="M5112 6437 c-118 -40 -122 -43 -118 -67 3 -14 10 -100 17 -192 7 -93
15 -168 18 -168 27 2 653 217 653 225 1 12 -411 245 -432 244 -8 0 -70 -19
-138 -42z"/>
<path d="M4773 6328 c-101 -32 -183 -62 -183 -66 0 -4 78 -52 172 -107 94 -55
186 -109 205 -119 18 -11 35 -18 38 -15 2 3 -2 79 -10 170 -8 90 -15 172 -15
182 0 9 -6 17 -12 16 -7 -1 -95 -28 -195 -61z"/>
<path d="M1848 6232 c-214 -64 -388 -120 -388 -124 0 -3 84 -66 188 -139 103
-73 192 -136 197 -140 9 -7 438 121 452 135 3 3 -4 79 -16 168 -27 196 -31
218 -39 217 -4 0 -181 -53 -394 -117z"/>
<path d="M2270 6333 c-1 -29 45 -350 50 -356 4 -5 68 10 141 33 74 23 151 47
172 52 20 6 37 13 36 17 0 5 -371 251 -391 259 -4 2 -8 0 -8 -5z"/>
<path d="M6091 6199 l-23 -9 6 -128 c4 -70 9 -146 12 -169 l6 -41 37 13 c41
14 39 -5 26 228 -7 126 -9 128 -64 106z"/>
<path d="M6160 6193 c0 -41 22 -298 25 -302 6 -5 345 111 345 118 -1 5 -336
191 -360 199 -6 2 -10 -5 -10 -15z"/>
<path d="M14093 6102 c-134 -58 -243 -109 -243 -112 0 -6 499 -215 529 -222
12 -2 18 28 32 152 9 85 20 179 23 208 l6 53 -35 14 c-19 8 -42 15 -52 14 -10
0 -127 -48 -260 -107z"/>
<path d="M5830 6111 c-107 -37 -201 -70 -209 -72 -8 -3 69 -53 173 -113 l189
-108 43 12 c44 13 44 13 44 60 0 26 -3 102 -7 168 -5 103 -9 122 -22 121 -9 0
-104 -31 -211 -68z"/>
<path d="M14431 5964 c-13 -113 -21 -207 -19 -209 2 -3 20 -11 41 -20 l36 -15
6 33 c3 17 12 95 20 172 8 77 18 157 21 178 6 35 4 38 -30 52 -19 8 -39 15
-44 15 -5 0 -19 -93 -31 -206z"/>
<path d="M14550 6113 c0 -10 -9 -94 -20 -188 -11 -93 -20 -178 -20 -187 0 -14
28 -4 143 49 78 36 187 85 242 110 55 25 103 48 107 52 7 6 -425 182 -444 181
-5 0 -8 -8 -8 -17z"/>
<path d="M9638 6012 c-126 -48 -228 -90 -228 -93 0 -9 441 -221 447 -215 6 6
18 396 12 395 -2 0 -106 -39 -231 -87z"/>
<path d="M9895 5968 c-4 -73 -5 -161 -3 -194 l3 -61 215 84 c118 46 218 88
223 92 5 5 -346 179 -423 209 -4 2 -11 -57 -15 -130z"/>
<path d="M1445 6059 c3 -19 30 -191 59 -382 30 -192 57 -351 60 -354 5 -5 323
92 334 102 2 2 -9 89 -24 193 l-27 191 -195 138 c-107 76 -199 140 -204 142
-5 2 -7 -12 -3 -30z"/>
<path d="M2497 6006 c-92 -29 -170 -55 -172 -58 -9 -9 19 -178 29 -178 15 1
345 105 351 111 9 10 -19 179 -29 178 -6 0 -87 -24 -179 -53z"/>
<path d="M5600 5997 c0 -38 30 -431 33 -434 4 -4 341 117 348 125 4 4 4 32 2
63 l-5 57 -182 102 c-99 57 -184 105 -188 107 -5 2 -8 -7 -8 -20z"/>
<path d="M6350 5930 l-165 -58 4 -118 c2 -72 8 -124 15 -131 15 -15 366 -216
370 -212 1 2 -3 110 -10 239 -7 129 -13 259 -13 288 -1 43 -4 52 -18 51 -10
-1 -92 -27 -183 -59z"/>
<path d="M13477 5896 c-114 -49 -204 -93 -200 -97 9 -7 324 -142 360 -153 19
-6 22 -2 27 31 10 71 28 291 25 300 -2 5 -97 -31 -212 -81z"/>
<path d="M13709 5987 c0 -1 -9 -81 -19 -177 -17 -161 -17 -176 -2 -188 9 -7
21 -11 27 -9 5 2 15 57 22 123 6 65 14 144 17 175 6 52 5 56 -19 67 -14 6 -25
11 -26 9z"/>
<path d="M13770 5948 c0 -7 -7 -87 -16 -177 -16 -158 -16 -165 2 -178 10 -7
25 -13 34 -13 9 0 93 34 186 76 93 42 189 85 214 96 l45 19 -215 90 c-254 106
-250 104 -250 87z"/>
<path d="M2071 5875 c-112 -36 -205 -66 -207 -67 -4 -5 50 -366 57 -372 3 -3
103 26 223 65 206 66 218 71 212 93 -3 12 -8 48 -12 79 -4 32 -11 60 -15 63
-5 3 -53 -9 -107 -26 -105 -32 -122 -35 -106 -21 5 5 56 23 113 40 l103 32 -5
37 c-3 20 -9 61 -13 90 -5 39 -11 52 -23 51 -9 0 -108 -29 -220 -64z"/>
<path d="M9390 5664 c0 -189 3 -244 13 -243 6 0 109 39 227 87 l215 87 3 41
c2 25 -2 45 -10 52 -8 6 -111 58 -231 116 l-217 105 0 -245z"/>
<path d="M10315 5866 c-16 -7 -119 -48 -227 -91 l-198 -78 0 -54 0 -54 223
-107 222 -108 6 45 c10 69 19 461 11 460 -4 0 -20 -6 -37 -13z"/>
<path d="M2522 5805 c-90 -29 -166 -55 -168 -58 -3 -3 0 -44 7 -91 l12 -87
199 -140 c110 -78 202 -138 206 -135 5 6 -52 487 -65 544 -3 12 -10 22 -17 21
-6 0 -84 -25 -174 -54z"/>
<path d="M6112 5847 c-24 -11 -24 -12 -17 -126 4 -64 9 -118 11 -119 1 -2 19
2 40 8 l37 12 -7 91 c-3 49 -6 103 -6 119 0 31 -17 35 -58 15z"/>
<path d="M6022 5815 c-34 -15 -34 -15 -27 -67 4 -29 9 -54 10 -56 2 -2 19 4
39 12 35 15 36 16 36 70 0 62 -4 64 -58 41z"/>
<path d="M13231 5518 c-12 -150 -24 -283 -27 -295 -2 -13 0 -23 6 -23 6 0 105
43 220 96 l208 96 8 86 c13 161 35 133 -176 223 -102 44 -192 81 -201 84 -13
4 -18 -32 -38 -267z"/>
<path d="M14095 5698 c-71 -33 -166 -77 -211 -98 l-81 -37 -11 -113 c-7 -63
-11 -115 -9 -116 5 -6 391 -173 393 -171 2 2 64 575 64 590 0 11 -7 9 -145
-55z"/>
<path d="M6031 5687 c-33 -10 -33 -11 -29 -59 3 -27 8 -51 11 -54 3 -3 22 -1
41 6 31 10 36 16 36 43 0 38 -10 77 -19 76 -3 -1 -21 -6 -40 -12z"/>
<path d="M5805 5608 c-93 -33 -172 -62 -174 -64 -2 -2 0 -27 3 -57 l7 -54 77
28 c42 15 120 42 172 61 l95 33 3 58 c2 31 -1 57 -5 56 -4 0 -84 -28 -178 -61z"/>
<path d="M6135 5596 l-30 -13 9 -169 c4 -93 10 -171 12 -173 2 -2 25 3 51 12
77 25 375 136 380 141 3 2 -26 22 -64 44 -243 141 -299 172 -313 172 -8 -1
-28 -7 -45 -14z"/>
<path d="M13666 5548 c-4 -35 -9 -84 -12 -110 l-6 -47 58 -26 c31 -14 58 -24
59 -23 2 2 8 52 15 112 12 115 9 125 -32 126 -15 0 -18 -9 -18 -49 0 -28 -4
-53 -10 -56 -6 -4 -7 19 -3 60 4 43 2 65 -5 65 -6 0 -17 3 -25 6 -12 4 -16 -8
-21 -58z"/>
<path d="M9860 5538 c0 -29 -3 -144 -6 -255 -4 -112 -3 -203 1 -203 13 0 449
181 459 191 5 4 -92 58 -215 119 l-224 112 3 38 c2 21 -2 41 -8 45 -8 5 -11
-9 -10 -47z"/>
<path d="M6053 5566 c-17 -6 -35 -14 -38 -18 -7 -7 12 -338 19 -346 2 -2 20 4
41 12 l37 16 -7 132 c-4 73 -10 151 -14 174 l-6 41 -32 -11z"/>
<path d="M9615 5489 c-230 -91 -231 -92 -234 -153 -1 -24 -6 -25 247 74 l210
84 4 39 c2 21 1 40 -2 41 -3 2 -104 -37 -225 -85z"/>
<path d="M9892 5538 c3 -32 8 -36 218 -140 118 -58 218 -107 223 -107 4 -1 7
14 7 32 l0 33 -218 107 c-119 59 -221 107 -225 107 -5 0 -7 -15 -5 -32z"/>
<path d="M2170 5495 c-91 -30 -184 -60 -207 -67 -24 -7 -43 -15 -43 -19 0 -17
59 -402 63 -405 5 -6 787 257 787 264 -1 14 -398 282 -416 281 -11 0 -93 -25
-184 -54z"/>
<path d="M5813 5483 c-84 -31 -153 -59 -153 -63 0 -7 336 -210 348 -210 4 0 4
51 0 112 -3 62 -7 137 -7 166 -1 43 -4 52 -18 51 -10 0 -87 -26 -170 -56z"/>
<path d="M9612 5392 c-117 -47 -209 -89 -205 -93 11 -10 418 -219 426 -219 4
0 7 90 7 200 0 110 -3 200 -7 199 -5 0 -104 -40 -221 -87z"/>
<path d="M3765 5417 c-33 -11 -62 -21 -64 -23 -2 -2 4 -83 14 -179 12 -117 22
-175 29 -172 6 2 36 12 66 22 30 10 56 19 58 20 5 4 -30 329 -37 341 -4 8 -24
5 -66 -9z"/>
<path d="M3850 5417 c0 -25 31 -301 35 -314 2 -8 53 6 154 41 83 28 153 54
156 58 5 4 -308 215 -337 226 -4 2 -8 -3 -8 -11z"/>
<path d="M1737 5356 c-86 -27 -156 -54 -154 -59 3 -11 371 -287 375 -282 6 5
-50 379 -57 386 -3 3 -77 -17 -164 -45z"/>
<path d="M3453 5313 c-123 -41 -223 -79 -223 -83 0 -8 249 -183 327 -231 20
-12 31 -11 93 10 47 16 70 29 70 40 0 40 -34 327 -39 332 -3 4 -106 -27 -228
-68z"/>
<path d="M8860 5191 c-272 -108 -514 -204 -537 -214 l-43 -17 0 -248 0 -248
413 -237 c228 -130 417 -237 420 -237 4 0 7 6 7 14 0 8 118 65 301 144 l302
132 271 -149 c259 -142 271 -150 274 -180 2 -17 5 -31 6 -31 2 0 36 15 77 34
41 19 265 120 499 226 234 106 429 196 434 201 5 5 15 116 22 246 11 224 11
239 -6 251 -16 12 -926 462 -934 462 -2 0 -6 -17 -10 -37 l-6 -38 -252 -104
-253 -104 -235 120 -235 120 -3 46 c-2 26 -6 47 -10 46 -4 0 -230 -89 -502
-198z"/>
<path d="M13428 5282 c-115 -52 -208 -98 -208 -101 1 -7 502 -232 506 -228 3
3 30 259 37 342 2 26 -3 32 -43 51 -25 12 -54 24 -65 27 -13 3 -97 -31 -227
-91z"/>
<path d="M13775 5277 c-10 -78 -31 -317 -28 -321 5 -5 413 187 413 194 0 3
-51 27 -113 54 -61 26 -147 63 -189 82 l-77 33 -6 -42z"/>
<path d="M7762 5299 c-13 -5 -21 -13 -18 -17 3 -5 6 -92 6 -194 1 -101 5 -190
10 -197 6 -10 12 -10 29 -2 18 10 21 19 17 49 -3 20 -5 112 -5 205 -1 92 -4
167 -8 166 -5 0 -18 -4 -31 -10z"/>
<path d="M7811 5198 c1 -62 4 -154 8 -204 l6 -91 207 81 c115 44 208 83 208
86 0 3 -75 47 -167 97 -93 50 -189 104 -215 118 l-48 27 1 -114z"/>
<path d="M7495 5199 c-115 -45 -218 -83 -227 -86 -10 -3 -18 -8 -18 -12 0 -4
97 -62 216 -130 189 -107 219 -121 242 -113 26 8 27 12 30 93 5 130 -8 329
-22 329 -6 -1 -105 -37 -221 -81z"/>
<path d="M3214 5169 c4 -24 20 -156 36 -294 17 -137 32 -255 34 -261 3 -7 59
8 158 43 84 30 154 55 155 56 3 4 -28 250 -33 258 -6 10 -323 229 -342 237
-11 4 -12 -5 -8 -39z"/>
<path d="M4150 5169 c-30 -10 -101 -35 -157 -55 l-103 -36 0 -47 c0 -81 -1
-81 176 -19 l158 55 -3 54 c-1 30 -6 57 -9 60 -4 4 -32 -2 -62 -12z"/>
<path d="M11650 5102 c-96 -42 -204 -90 -240 -106 l-65 -28 230 -112 230 -112
6 35 c4 20 10 99 13 176 4 77 9 159 13 183 3 23 1 42 -3 41 -5 0 -88 -35 -184
-77z"/>
<path d="M11850 5164 c0 -11 -4 -89 -10 -174 -16 -277 -17 -253 11 -269 27
-15 23 -16 259 92 30 14 98 44 150 67 52 23 99 45 103 49 4 4 -104 61 -240
126 -299 142 -273 131 -273 109z"/>
<path d="M7234 4979 c3 -63 9 -203 12 -311 4 -109 9 -198 13 -198 3 0 99 37
213 83 l208 82 0 96 c0 65 -4 100 -12 107 -7 5 -89 53 -183 107 -93 53 -190
108 -214 122 l-44 25 7 -113z"/>
<path d="M3796 5048 l-59 -21 6 -54 c3 -30 9 -58 12 -61 3 -4 32 3 63 13 55
19 57 21 60 59 4 43 -4 86 -16 85 -4 0 -33 -10 -66 -21z"/>
<path d="M4053 4996 c-78 -28 -144 -54 -147 -57 -4 -3 -4 -32 0 -63 l7 -57
174 -120 c97 -66 178 -118 181 -115 3 4 -2 86 -12 184 -28 287 -27 282 -45
281 -9 -1 -80 -24 -158 -53z"/>
<path d="M8028 4968 l-208 -81 0 -43 c0 -24 4 -44 8 -44 5 0 103 37 218 83
l209 83 3 42 c2 30 -1 42 -10 42 -7 -1 -106 -37 -220 -82z"/>
<path d="M15979 5047 c-7 -14 -56 -374 -51 -379 11 -11 219 -98 234 -98 22 1
411 214 410 225 -1 6 -68 37 -149 71 -82 33 -214 88 -295 122 -82 33 -148 60
-149 59z"/>
<path d="M15743 4937 c-111 -56 -199 -104 -195 -108 14 -12 352 -152 357 -148
4 4 55 327 55 349 0 6 -3 10 -7 10 -5 -1 -99 -47 -210 -103z"/>
<path d="M3650 4995 l-65 -22 3 -44 c5 -66 21 -202 25 -206 2 -2 67 19 143 46
l139 49 -3 53 c-2 30 -6 56 -8 59 -3 2 -34 -6 -70 -19 -36 -13 -67 -21 -70
-18 -3 3 -8 30 -11 61 -3 31 -9 58 -12 60 -3 2 -35 -7 -71 -19z"/>
<path d="M8035 4865 c-204 -81 -210 -84 -210 -112 0 -26 15 -37 210 -150 116
-67 216 -122 224 -122 11 -1 13 15 7 91 -3 50 -6 156 -6 235 0 78 -3 143 -7
142 -5 0 -102 -38 -218 -84z"/>
<path d="M11330 4916 l0 -35 236 -115 c130 -64 238 -116 240 -116 2 0 4 17 4
38 l0 38 -230 112 c-127 62 -235 112 -240 112 -6 0 -10 -15 -10 -34z"/>
<path d="M12155 4819 c-293 -131 -269 -117 -273 -166 l-3 -42 227 -111 c125
-60 231 -110 235 -110 5 0 9 6 9 13 0 6 7 110 16 229 8 120 14 233 12 252 l-3
34 -220 -99z"/>
<path d="M7776 4867 c-13 -9 -17 -24 -14 -54 3 -37 5 -40 26 -32 18 7 22 16
22 54 0 48 -5 53 -34 32z"/>
<path d="M11326 4738 c-3 -68 -9 -174 -13 -236 l-6 -113 54 24 c30 13 137 61
239 107 102 45 191 88 199 95 11 11 -22 32 -205 123 -120 60 -228 112 -240
116 -20 6 -21 3 -28 -116z"/>
<path d="M7708 4843 c-16 -4 -18 -17 -18 -99 0 -74 3 -94 14 -94 28 0 106 40
106 54 0 8 -16 23 -35 35 -32 18 -35 24 -35 66 0 25 -3 44 -7 44 -5 -1 -16 -3
-25 -6z"/>
<path d="M15526 4798 c-3 -13 -15 -93 -26 -178 -11 -85 -29 -216 -39 -290 -10
-74 -17 -136 -16 -138 2 -2 413 215 423 223 7 6 34 225 29 237 -4 12 -91 52
-334 154 -31 13 -33 13 -37 -8z"/>
<path d="M3760 4756 c-122 -44 -145 -55 -143 -71 5 -72 36 -341 39 -344 2 -2
122 39 266 91 145 53 280 102 301 109 20 7 36 16 35 20 -2 6 -323 230 -348
244 -3 1 -70 -21 -150 -49z"/>
<path d="M16380 4668 c-113 -60 -207 -112 -209 -114 -9 -8 -40 -239 -33 -245
10 -9 355 -160 358 -156 1 1 23 133 49 292 25 160 48 300 50 313 3 12 2 22 -2
21 -5 0 -100 -50 -213 -111z"/>
<path d="M7782 4758 c6 -18 28 -21 28 -4 0 9 -7 16 -16 16 -9 0 -14 -5 -12
-12z"/>
<path d="M7822 4699 c4 -12 423 -259 440 -259 27 0 -16 29 -209 140 -245 141
-237 137 -231 119z"/>
<path d="M11820 4675 c0 -33 28 -64 44 -48 13 13 6 71 -10 77 -29 11 -34 6
-34 -29z"/>
<path d="M3448 4646 c-82 -28 -147 -55 -145 -59 3 -10 330 -247 334 -243 3 3
-36 348 -39 351 -2 2 -69 -20 -150 -49z"/>
<path d="M7756 4652 l-58 -25 4 -208 c2 -114 6 -211 10 -214 6 -6 516 199 531
214 4 4 -81 59 -190 121 -109 63 -207 119 -218 126 -17 10 -30 8 -79 -14z"/>
<path d="M15917 4633 c-10 -35 -29 -194 -24 -199 3 -3 33 9 67 26 34 17 59 26
55 20 -3 -6 -32 -23 -63 -39 -64 -32 -69 -26 71 -86 48 -21 90 -36 92 -33 4 4
35 197 35 221 0 10 -103 60 -217 104 -6 2 -13 -4 -16 -14z"/>
<path d="M7467 4538 c-128 -52 -195 -84 -189 -90 6 -6 99 -64 208 -129 l199
-119 3 88 c4 105 -7 332 -17 331 -3 0 -95 -37 -204 -81z"/>
<path d="M11820 4590 c0 -11 -1 -23 -2 -26 -2 -4 7 -13 20 -21 22 -15 22 -15
22 26 0 34 -3 41 -20 41 -13 0 -20 -7 -20 -20z"/>
<path d="M11560 4488 c-129 -59 -239 -109 -243 -111 -5 -1 -7 -12 -5 -24 3
-20 19 -14 242 88 132 60 241 111 244 113 2 2 2 13 0 23 -3 16 -33 5 -238 -89z"/>
<path d="M11878 4560 c-3 -17 0 -34 6 -39 6 -5 111 -59 232 -119 l222 -111 4
35 c2 19 -1 39 -7 44 -10 8 -443 220 -450 220 -1 0 -5 -14 -7 -30z"/>
<path d="M11710 4499 c-47 -22 -150 -70 -230 -106 -80 -36 -149 -69 -153 -72
-4 -4 106 -66 245 -138 139 -72 254 -130 256 -129 1 2 31 425 32 457 0 6 -47
29 -58 28 -4 0 -45 -18 -92 -40z"/>
<path d="M11867 4413 c-4 -49 -10 -150 -13 -225 l-7 -137 237 112 c130 61 236
114 236 117 0 7 -426 220 -439 220 -4 0 -11 -39 -14 -87z"/>
<path d="M15662 4288 c-112 -61 -200 -114 -195 -118 11 -11 569 -260 582 -260
6 0 11 6 11 13 0 6 11 84 25 172 13 88 25 171 25 185 0 22 -12 30 -113 73 -61
26 -116 47 -122 46 -5 0 -102 -51 -213 -111z"/>
<path d="M16125 4268 c-13 -59 -54 -352 -50 -356 3 -3 60 27 127 65 68 39 158
90 201 113 43 23 75 46 70 51 -8 8 -327 149 -337 149 -3 0 -8 -10 -11 -22z"/>
<path d="M9590 4206 c-52 -24 -171 -76 -263 -116 -92 -40 -166 -77 -165 -82 2
-5 117 -74 257 -153 204 -115 258 -142 272 -134 17 9 19 30 21 269 3 226 1
260 -12 259 -8 0 -58 -20 -110 -43z"/>
<path d="M9725 4000 c-4 -138 -5 -254 -1 -257 8 -9 509 220 507 232 -1 6 -48
35 -104 66 -56 30 -165 90 -243 132 -77 42 -143 77 -146 77 -3 0 -9 -113 -13
-250z"/>
<path d="M13868 3981 c-125 -64 -230 -119 -234 -123 -4 -4 91 -55 211 -113
120 -58 219 -104 220 -103 3 5 46 412 45 436 0 12 -3 21 -7 21 -5 -1 -110 -54
-235 -118z"/>
<path d="M14125 4058 c-8 -60 -45 -400 -45 -415 0 -16 60 -47 70 -36 7 8 51
393 50 444 0 18 -8 29 -25 37 -39 18 -43 15 -50 -30z"/>
<path d="M14215 4018 c-10 -75 -45 -397 -45 -416 0 -12 14 -25 39 -37 l40 -18
242 129 c133 71 242 133 243 138 1 6 -494 246 -509 246 -2 0 -6 -19 -10 -42z"/>
<path d="M9140 3980 c0 -5 30 -27 68 -48 37 -21 154 -89 260 -150 128 -73 192
-105 190 -95 -3 15 -489 303 -510 303 -5 0 -8 -4 -8 -10z"/>
<path d="M9988 3838 c-244 -110 -268 -123 -268 -145 0 -14 4 -23 9 -21 4 2
126 56 270 122 235 107 261 121 261 142 0 13 -1 24 -2 24 -2 0 -123 -55 -270
-122z"/>
<path d="M9140 3646 l0 -304 178 80 c97 44 214 97 260 118 l82 39 0 39 0 40
-255 146 c-140 80 -257 146 -260 146 -3 0 -5 -137 -5 -304z"/>
<path d="M6233 3910 c-21 -9 -23 -16 -22 -82 0 -101 15 -297 22 -305 4 -3 21
0 38 7 l32 13 -7 126 c-13 258 -14 261 -63 241z"/>
<path d="M6293 3889 c3 -19 9 -103 13 -186 4 -84 8 -153 10 -153 6 0 297 121
318 132 16 9 -7 26 -150 120 -93 61 -175 113 -183 116 -11 4 -13 -2 -8 -29z"/>
<path d="M5980 3809 c-107 -44 -198 -83 -202 -87 -3 -4 64 -54 150 -112 230
-155 200 -141 247 -120 l40 17 -12 189 c-6 104 -12 190 -12 192 -2 5 -25 -3
-211 -79z"/>
<path d="M9980 3771 c-337 -154 -333 -135 -59 -291 111 -63 228 -130 259 -148
l58 -33 6 198 c3 109 8 242 10 296 3 69 1 97 -7 96 -7 0 -127 -54 -267 -118z"/>
<path d="M13610 3801 l0 -41 211 -105 c116 -58 217 -105 225 -105 10 0 14 12
14 38 l0 38 -216 105 c-119 57 -220 106 -225 107 -5 2 -9 -15 -9 -37z"/>
<path d="M14508 3667 c-278 -148 -248 -119 -263 -259 l-6 -57 215 -108 c118
-59 217 -105 220 -103 4 5 87 653 83 657 -1 1 -113 -58 -249 -130z"/>
<path d="M13600 3720 c0 -11 -12 -135 -26 -276 -14 -141 -24 -258 -21 -260 2
-2 75 35 163 82 87 47 189 101 227 120 85 43 107 65 107 107 0 32 -1 33 -215
140 -118 59 -220 107 -225 107 -6 0 -10 -9 -10 -20z"/>
<path d="M9687 3703 c-13 -12 -7 -43 8 -43 9 0 15 9 15 25 0 24 -10 32 -23 18z"/>
<path d="M5763 3638 c4 -35 12 -148 18 -253 6 -104 15 -193 19 -198 3 -4 79
23 169 60 l162 67 -3 74 -3 75 -175 118 c-96 65 -179 118 -184 119 -5 0 -6
-28 -3 -62z"/>
<path d="M6488 3607 l-168 -70 0 -73 0 -73 181 -121 c99 -67 182 -120 185
-118 6 7 -17 491 -24 509 -6 13 -34 4 -174 -54z"/>
<path d="M14077 3603 c-4 -3 -7 -20 -7 -38 0 -26 6 -34 34 -48 40 -19 46 -15
46 29 0 27 -6 37 -30 49 -33 17 -34 17 -43 8z"/>
<path d="M9695 3358 c-4 -123 -5 -246 -3 -274 l3 -52 260 123 c142 68 260 127
262 131 3 9 -487 294 -505 294 -6 0 -12 -85 -17 -222z"/>
<path d="M14160 3535 l0 -36 33 17 c17 9 34 18 35 20 4 3 -53 34 -63 34 -3 0
-5 -16 -5 -35z"/>
<path d="M9403 3447 c-133 -62 -244 -115 -247 -118 -4 -3 104 -72 240 -153
135 -82 248 -145 252 -142 10 10 16 526 6 525 -5 0 -118 -51 -251 -112z"/>
<path d="M6263 3514 c-29 -13 -33 -19 -35 -57 l-1 -42 -4 38 c-5 41 -11 44
-53 22 -28 -15 -30 -19 -30 -79 0 -34 3 -65 6 -68 3 -3 40 9 82 27 l77 34 3
62 c2 34 -1 65 -5 69 -4 4 -23 1 -40 -6z"/>
<path d="M14186 3498 c-37 -19 -41 -19 -73 -4 -47 23 -53 21 -53 -19 0 -33 3
-36 79 -75 44 -22 82 -36 84 -32 9 15 19 152 11 152 -5 -1 -27 -10 -48 -22z"/>
<path d="M9674 3245 c0 -121 2 -169 3 -107 2 62 2 161 0 220 -1 59 -3 8 -3
-113z"/>
<path d="M13965 3384 c-44 -24 -153 -83 -243 -131 -90 -47 -159 -89 -155 -93
4 -4 142 -76 306 -160 179 -91 297 -146 297 -138 0 7 11 110 25 228 14 118 25
224 25 235 0 16 -20 30 -85 63 -47 23 -86 42 -88 41 -1 0 -38 -20 -82 -45z"/>
<path d="M6230 3344 l-75 -34 2 -102 c3 -155 14 -288 24 -288 11 0 481 200
492 210 6 5 -351 251 -363 249 -3 -1 -39 -16 -80 -35z"/>
<path d="M14236 3318 c-3 -7 -14 -105 -26 -218 -12 -113 -24 -213 -27 -223 -3
-13 0 -18 10 -15 20 4 466 251 467 258 0 5 -405 210 -415 210 -3 0 -7 -6 -9
-12z"/>
<path d="M5968 3233 c-87 -36 -158 -68 -158 -72 1 -7 341 -244 344 -239 6 6
-17 378 -23 378 -3 0 -77 -30 -163 -67z"/>
<path d="M7615 2795 c-126 -57 -243 -110 -259 -118 l-29 -13 213 -143 212
-144 61 29 60 29 -7 80 c-3 44 -6 149 -6 233 0 83 -3 152 -7 152 -5 -1 -111
-48 -238 -105z"/>
<path d="M7871 2773 c1 -71 4 -174 8 -230 l6 -102 198 91 c108 50 197 94 197
97 0 3 -51 39 -113 78 -61 40 -154 100 -204 133 l-93 60 1 -127z"/>
<path d="M7324 2544 c3 -60 8 -184 12 -276 3 -93 10 -168 14 -168 8 0 391 178
398 185 2 2 1 22 -3 44 -7 40 -11 44 -203 174 -109 73 -203 137 -211 141 -11
7 -12 -10 -7 -100z"/>
<path d="M8080 2517 l-195 -92 -3 -42 -3 -41 198 -134 c109 -74 204 -137 211
-141 9 -7 12 49 12 267 0 215 -3 276 -12 275 -7 0 -101 -42 -208 -92z"/>
<path d="M7803 2387 c-39 -19 -43 -24 -43 -59 l0 -38 35 17 c33 16 46 33 25
33 -5 0 -10 5 -10 10 0 7 6 7 19 0 32 -17 41 -12 41 25 0 41 -8 42 -67 12z"/>
<path d="M7806 2297 l-49 -21 7 -125 c3 -69 6 -177 6 -240 0 -113 0 -113 23
-107 25 6 477 224 477 229 0 3 -25 21 -56 41 -31 21 -53 40 -51 43 3 3 18 -4
34 -14 41 -29 62 -38 34 -15 -36 29 -85 57 -77 43 14 -23 -10 -9 -153 87
l-146 99 -49 -20z"/>
<path d="M7543 2173 c-101 -48 -183 -90 -183 -94 0 -10 390 -282 396 -277 10
11 -10 458 -20 457 -6 0 -93 -39 -193 -86z"/>
<path d="M9686 1424 c-4 -157 -6 -287 -4 -289 2 -1 114 56 250 129 237 126
246 132 226 147 -24 19 -447 293 -458 297 -4 1 -10 -126 -14 -284z"/>
<path d="M9590 1674 c-25 -14 -129 -68 -232 -120 -104 -53 -188 -99 -188 -103
0 -6 445 -310 467 -318 10 -4 13 42 13 213 0 121 3 249 7 287 7 78 3 80 -67
41z"/>
<path d="M9150 1436 c0 -4 433 -299 470 -320 58 -33 -45 41 -230 166 -242 162
-240 161 -240 154z"/>
<path d="M9130 1131 l0 -291 103 55 c56 30 164 88 239 128 76 39 138 74 138
77 0 5 -454 313 -470 318 -6 2 -10 -107 -10 -287z"/>
<path d="M10075 1324 c-55 -30 -162 -88 -237 -127 -76 -40 -137 -75 -135 -79
1 -4 106 -77 232 -163 l230 -155 6 58 c10 88 19 522 11 522 -4 0 -52 -25 -107
-56z"/>
<path d="M9661 1184 c0 -11 3 -14 6 -6 3 7 2 16 -1 19 -3 4 -6 -2 -5 -13z"/>
<path d="M9658 1098 c-13 -11 -17 -57 -22 -311 l-6 -297 33 16 c64 33 482 266
490 273 6 6 -461 331 -475 331 -2 0 -11 -6 -20 -12z"/>
<path d="M9376 957 c-125 -68 -227 -127 -226 -132 2 -6 107 -83 234 -173 l231
-162 2 47 c8 166 7 543 -2 543 -5 -1 -113 -56 -239 -123z"/>
</g>
</svg>
