<?xml version="1.0" standalone="no"?>
<!DOCTYPE svg PUBLIC "-//W3C//DTD SVG 20010904//EN"
 "http://www.w3.org/TR/2001/REC-SVG-20010904/DTD/svg10.dtd">
<svg version="1.0" xmlns="http://www.w3.org/2000/svg"
 width="5500.000000pt" height="3039.000000pt" viewBox="0 0 5500.000000 3039.000000"
 preserveAspectRatio="xMidYMid meet">
<metadata>
Created by potrace 1.16, written by Peter Selinger 2001-2019
</metadata>
<g transform="translate(0.000000,3039.000000) scale(0.100000,-0.100000)"
fill="#000000" stroke="none">
<path d="M9789 30380 c-8 -6 -8 -9 2 -12 7 -2 9 -9 5 -17 -6 -9 -12 -7 -26 9
-18 21 -50 27 -50 9 0 -5 4 -8 9 -5 11 7 36 -22 27 -31 -3 -3 -6 -1 -6 5 0 7
-9 12 -21 12 -18 0 -18 -2 8 -25 24 -21 26 -26 13 -35 -12 -8 -11 -10 9 -10
17 0 22 -4 17 -16 -3 -9 -6 -20 -6 -25 0 -6 -4 -8 -9 -5 -4 3 -7 -8 -5 -25 2
-18 0 -28 -6 -24 -6 4 -13 -1 -16 -10 -6 -13 -8 -14 -15 -3 -5 8 -3 15 8 19
14 5 14 7 0 20 -8 9 -17 24 -20 35 -4 16 -5 16 -6 2 -1 -25 -21 -23 -21 2 0
12 7 20 18 21 9 0 12 3 5 5 -6 3 -31 -4 -55 -15 -28 -13 -36 -20 -22 -21 11 0
26 6 33 13 11 10 13 9 7 -6 -3 -10 -6 -21 -6 -23 0 -2 -10 -4 -22 -4 l-21 0
23 -25 23 -25 -29 -1 c-29 0 -29 0 -5 -10 14 -5 32 -7 40 -4 13 5 14 4 3 -7
-16 -16 -64 -18 -74 -4 -4 6 -7 2 -6 -9 0 -11 -1 -27 -3 -35 -2 -8 2 -14 9
-12 6 1 12 -4 12 -10 0 -9 4 -8 11 2 9 13 10 13 6 0 -2 -8 -11 -14 -20 -12
-13 2 -14 -2 -4 -28 9 -24 13 -27 18 -13 5 15 6 15 12 -1 9 -22 9 -26 0 -25
-21 3 -32 -2 -27 -14 6 -17 -51 -16 -68 1 -14 14 -32 16 -23 3 3 -5 1 -13 -5
-16 -6 -4 -9 -1 -8 6 2 7 -4 14 -12 14 -8 1 -14 6 -12 13 3 19 -6 14 -19 -9
-7 -15 -8 -19 0 -15 7 5 9 1 5 -8 -3 -9 -10 -16 -16 -16 -5 0 -6 5 -3 10 3 6
1 10 -5 10 -6 0 -8 5 -4 12 4 7 3 8 -4 4 -15 -9 -16 -46 -1 -46 6 0 8 -7 5
-16 -7 -18 21 -57 35 -48 5 3 2 20 -7 37 -13 29 -13 30 1 13 14 -19 15 -19 15
-1 0 38 13 3 15 -39 0 -24 8 -52 16 -62 7 -10 9 -15 2 -11 -6 4 -19 0 -27 -9
-9 -8 -16 -10 -16 -4 0 6 7 13 15 16 20 8 11 21 -12 19 -31 -4 -53 -17 -53
-31 0 -8 -4 -14 -10 -14 -15 0 -12 10 14 40 13 17 27 25 32 20 5 -5 15 -5 24
0 11 7 11 10 2 10 -7 0 -26 10 -42 22 -32 23 -51 20 -25 -5 8 -9 15 -18 15
-21 0 -11 -28 -6 -34 7 -3 6 -4 -1 -3 -18 2 -24 -2 -31 -20 -33 -13 -2 -23 -8
-23 -13 0 -5 10 -9 23 -10 21 0 21 -1 2 -8 -11 -5 -23 -7 -27 -4 -5 2 -8 -3
-8 -11 0 -11 10 -16 33 -17 23 -1 26 -3 10 -6 -16 -3 -23 -11 -22 -26 0 -12 3
-16 6 -9 2 6 11 12 20 12 12 0 12 -2 1 -13 -7 -7 -21 -16 -30 -20 -15 -5 -16
-2 -11 23 4 25 2 30 -13 30 -14 0 -15 -3 -6 -12 15 -15 -3 -49 -23 -42 -23 9
-18 -8 11 -39 28 -31 29 -61 1 -33 -11 11 -24 15 -37 11 -11 -4 -20 -2 -20 4
0 6 -7 11 -15 11 -9 0 -12 -6 -9 -15 4 -8 1 -15 -6 -15 -6 0 -18 -6 -26 -14
-7 -8 -19 -16 -26 -19 -17 -6 4 -43 22 -39 6 1 9 -2 6 -7 -8 -12 -46 -2 -47
13 -1 6 -5 0 -9 -14 -7 -22 -8 -22 -10 -5 -2 12 -5 6 -9 -15 -4 -19 -3 -46 1
-59 10 -29 3 -55 -13 -46 -6 4 -8 19 -5 34 3 14 3 20 0 14 -6 -15 -34 -18 -34
-4 0 5 -3 16 -6 25 -3 9 -1 16 5 16 6 0 11 -8 12 -17 0 -13 3 -11 10 6 6 16 6
28 0 34 -14 14 -2 37 20 37 34 0 20 16 -23 27 -42 11 -58 10 -58 -7 0 -4 10
-6 23 -3 18 4 19 3 7 -6 -13 -9 -13 -12 -1 -20 11 -7 9 -10 -7 -15 -11 -4 -26
-14 -34 -23 -11 -15 -10 -16 10 -11 19 5 22 2 21 -25 0 -29 -1 -30 -9 -9 -11
25 -30 30 -30 6 0 -8 5 -12 11 -8 8 4 8 1 1 -13 -10 -17 -8 -19 17 -15 16 2
32 -1 35 -7 4 -7 1 -9 -8 -5 -8 3 -23 1 -33 -5 -17 -10 -17 -10 0 -11 9 0 17
-4 17 -9 0 -5 -16 -9 -35 -8 -19 1 -35 5 -35 9 0 4 4 8 9 8 11 0 8 26 -4 37
-4 4 -5 2 -1 -4 4 -7 2 -13 -5 -13 -7 0 -9 -10 -7 -24 4 -18 -2 -31 -19 -45
-28 -26 -44 -27 -36 -3 5 14 3 13 -10 -3 -24 -29 -21 -34 17 -32 20 1 32 7 29
13 -2 6 7 18 21 27 21 14 25 14 30 2 4 -10 -2 -15 -17 -16 -17 -1 -14 -3 11
-10 17 -5 32 -14 32 -19 0 -13 -27 -13 -35 0 -10 16 -25 12 -19 -5 4 -8 18
-15 34 -15 15 0 30 -6 33 -14 3 -8 16 -12 31 -11 14 2 26 -1 26 -6 0 -5 10 -5
23 -1 26 10 57 5 57 -9 0 -5 -4 -9 -9 -9 -5 0 -17 -3 -27 -7 -12 -4 -15 -3
-10 5 4 7 2 12 -3 12 -18 0 -13 -50 6 -57 15 -6 14 -7 -3 -13 -13 -5 -21 -2
-26 9 -6 14 -7 14 -7 -1 -1 -10 -5 -18 -11 -18 -5 0 -7 6 -4 13 4 10 -3 13
-25 9 -30 -4 -30 -4 -25 37 4 39 3 41 -21 41 -14 0 -25 -4 -25 -10 0 -5 -4
-10 -10 -10 -5 0 -7 7 -4 15 4 8 2 15 -4 15 -13 0 -18 -16 -21 -67 -2 -38 0
-41 18 -36 15 4 21 1 21 -11 0 -14 24 -22 53 -17 12 2 8 -16 -8 -29 -13 -11
-14 -10 -9 4 7 19 -13 22 -36 5 -13 -9 -12 -10 3 -5 14 5 16 1 12 -24 -5 -31
-2 -33 40 -32 17 1 17 0 2 -4 -9 -3 -14 -10 -11 -16 4 -6 -2 -5 -15 1 -11 7
-21 8 -22 4 0 -4 -4 1 -8 12 -5 11 -4 23 1 26 6 4 -2 9 -18 13 -16 4 -30 3
-34 -3 -4 -7 -17 -8 -38 -2 -18 6 -31 7 -28 3 2 -4 0 -16 -5 -27 -6 -17 -8
-17 -8 -3 -1 11 -6 15 -17 11 -19 -7 -16 -69 4 -66 6 2 12 -2 12 -9 0 -9 3 -9
12 0 17 17 28 15 28 -5 0 -15 2 -16 10 -3 12 19 -10 32 -45 26 -22 -4 -25 -1
-24 22 1 17 3 21 6 10 5 -20 18 -23 28 -8 3 6 15 10 26 10 11 0 17 -4 14 -10
-9 -15 4 -12 21 5 12 12 12 15 2 15 -8 0 -6 4 5 11 23 14 33 6 42 -33 4 -18 9
-27 12 -20 2 6 9 12 14 12 4 0 6 -7 3 -15 -4 -8 -13 -15 -21 -15 -13 0 -13 -3
-3 -15 7 -8 9 -15 5 -15 -4 0 -2 -6 4 -14 12 -14 5 -46 -10 -46 -13 0 -11 18
4 23 7 3 5 6 -5 6 -13 1 -18 -7 -18 -24 0 -14 -4 -25 -9 -25 -15 0 -22 32 -9
47 9 11 9 16 -3 24 -20 13 -35 11 -21 -3 16 -16 15 -28 -3 -28 -9 0 -18 7 -22
16 -4 11 -13 14 -32 10 -24 -6 -24 -5 -8 8 17 13 16 14 -3 19 -11 3 -20 0 -20
-6 0 -9 -2 -9 -8 -1 -10 16 -53 37 -60 30 -3 -3 1 -6 9 -6 10 -1 8 -5 -6 -16
-19 -15 -19 -15 8 -10 18 3 27 0 27 -9 0 -7 8 -16 18 -18 9 -2 3 -4 -15 -3
-17 0 -29 4 -27 7 2 3 -8 4 -21 1 -14 -2 -28 -8 -31 -13 -3 -5 2 -6 10 -3 22
8 42 -6 25 -17 -10 -6 -8 -9 8 -9 20 0 21 -3 13 -26 -6 -14 -8 -30 -4 -35 3
-5 -1 -9 -8 -9 -10 0 -10 -2 1 -9 7 -5 10 -14 7 -20 -4 -6 -2 -11 3 -11 6 0
11 -5 11 -10 0 -6 -10 -9 -22 -7 -13 2 -17 2 -10 0 7 -3 10 -9 6 -14 -3 -5
-10 -7 -15 -4 -5 4 -9 -1 -9 -10 0 -9 4 -14 9 -11 5 3 11 0 14 -8 4 -10 0 -12
-14 -9 -15 4 -19 0 -20 -18 -1 -17 -3 -19 -6 -6 -2 9 -8 15 -13 12 -4 -3 -11
2 -14 11 -4 12 -1 14 14 9 14 -5 20 -2 20 10 0 9 -4 13 -10 10 -5 -3 -10 -2
-10 3 0 6 -9 8 -20 5 -15 -4 -19 -11 -15 -24 11 -35 -24 -13 -38 24 -5 14 -11
16 -26 7 -26 -13 -31 -13 -27 3 1 6 1 9 -1 6 -2 -3 -14 -5 -26 -4 -12 1 -14 0
-4 -2 9 -2 17 -11 17 -20 0 -9 -6 -13 -14 -10 -16 7 -12 -17 8 -42 9 -11 6
-13 -14 -7 l-25 7 25 -15 c14 -9 19 -15 11 -16 -8 0 -11 -6 -7 -17 4 -9 2 -19
-4 -23 -7 -4 3 -14 22 -23 28 -14 30 -17 11 -17 -13 0 -23 5 -23 10 0 6 -5 10
-11 10 -6 0 -9 -14 -6 -35 4 -32 3 -35 -15 -29 -14 4 -18 2 -14 -5 4 -6 2 -11
-4 -11 -12 0 -60 48 -60 61 0 5 -7 6 -15 3 -8 -4 -15 -1 -15 5 0 6 -9 11 -20
11 -11 0 -20 -5 -20 -12 0 -6 3 -8 7 -5 9 10 33 -13 33 -30 0 -11 -7 -13 -25
-9 -23 6 -30 -1 -26 -27 0 -4 -5 -6 -11 -5 -8 2 -14 -11 -16 -34 -3 -33 0 -38
18 -38 17 0 19 -3 10 -20 -6 -10 -10 -23 -9 -27 4 -24 -4 -33 -31 -33 -23 0
-28 3 -23 17 5 11 3 14 -6 8 -10 -6 -11 -3 -2 13 8 15 8 23 -1 28 -7 4 -8 3
-4 -4 4 -7 2 -12 -4 -12 -6 0 -13 7 -16 15 -4 8 -13 15 -21 15 -8 0 -11 -4 -8
-10 3 -5 1 -10 -4 -10 -6 0 -11 5 -11 10 0 6 -7 10 -15 10 -8 0 -15 5 -15 10
0 6 -5 10 -11 10 -6 0 -9 -7 -6 -15 7 -17 -9 -30 -18 -15 -13 21 -25 9 -25
-25 0 -24 -6 -37 -20 -45 -16 -9 -20 -8 -21 7 -1 12 -3 10 -9 -7 -6 -19 -8
-20 -9 -6 -1 15 -4 16 -16 6 -10 -9 -15 -9 -15 -1 0 6 -7 11 -15 11 -8 0 -15
6 -16 13 0 6 -4 3 -9 -8 -7 -17 -9 -17 -9 -2 -1 24 -20 21 -30 -5 -4 -13 -10
-17 -14 -11 -10 15 -45 4 -52 -16 -2 -9 -3 -26 0 -39 2 -12 -1 -22 -7 -22 -6
0 -6 -6 2 -15 11 -13 10 -14 -4 -9 -9 3 -16 10 -16 15 0 4 -7 5 -17 2 -11 -4
-14 -3 -9 5 4 7 2 10 -7 7 -7 -3 -21 3 -31 14 -10 11 -22 18 -27 15 -4 -2 -6
5 -4 16 2 11 0 20 -6 20 -5 0 -9 -5 -9 -11 0 -5 -10 -9 -22 -7 -17 2 -24 -3
-26 -19 -3 -20 0 -22 25 -17 18 3 35 -1 48 -10 14 -12 15 -14 3 -10 -11 4 -18
-1 -23 -15 -6 -21 -25 -29 -25 -11 0 6 5 10 11 10 5 0 7 5 4 10 -5 8 -11 8
-19 1 -9 -7 -16 -7 -25 2 -9 9 -14 9 -20 -2 -5 -8 -16 -11 -25 -8 -9 4 -16 2
-16 -3 0 -6 9 -10 21 -10 13 0 18 -4 13 -12 -5 -8 -2 -9 9 -5 21 8 22 0 1 -20
-8 -9 -13 -22 -10 -29 4 -11 -1 -13 -19 -8 -21 5 -24 3 -19 -10 4 -12 13 -15
28 -10 17 5 19 4 9 -7 -7 -7 -29 -13 -48 -13 -26 0 -34 -4 -30 -14 3 -8 0 -10
-7 -6 -7 5 -9 0 -6 -14 4 -12 1 -25 -4 -29 -6 -3 -8 -1 -4 5 3 6 2 13 -3 16
-12 8 10 56 27 56 6 0 12 5 12 11 0 7 -7 8 -17 4 -10 -4 -28 -10 -39 -12 -16
-4 -20 -11 -17 -26 4 -22 4 -22 -11 -3 -9 11 -16 24 -16 30 0 5 -2 7 -5 5 -2
-3 -1 -20 4 -37 6 -20 6 -32 0 -32 -5 0 -9 -4 -9 -10 0 -12 36 -14 43 -2 2 4
2 1 1 -5 -2 -7 2 -13 9 -13 8 0 7 -4 -3 -10 -9 -5 -17 -5 -21 1 -3 6 -14 6
-30 0 -16 -7 -19 -10 -7 -10 9 -1 20 -6 24 -12 4 -8 0 -9 -15 -4 -28 9 -27 -3
2 -15 20 -8 20 -9 2 -10 -18 0 -18 -1 4 -13 13 -6 23 -16 22 -22 -2 -13 -34
-13 -44 0 -5 6 -7 4 -5 -5 3 -8 15 -17 29 -20 19 -5 21 -7 7 -12 -28 -11 -88
14 -88 36 0 12 25 1 32 -14 4 -8 6 0 4 18 -2 17 0 32 5 32 5 0 1 8 -8 18 -10
10 -21 14 -24 9 -4 -5 -9 -3 -11 4 -3 8 -13 14 -23 14 -12 0 -21 9 -25 25 l-6
25 -6 -28 c-4 -23 -1 -31 18 -39 13 -6 21 -15 17 -21 -3 -5 -8 -5 -12 2 -9 14
-51 2 -51 -14 0 -7 6 -16 13 -18 6 -3 -8 -3 -33 -1 -42 4 -43 3 -21 -10 15 -8
20 -16 12 -20 -6 -4 -11 -2 -11 3 0 6 -5 11 -11 11 -7 0 -9 -10 -5 -25 7 -29
1 -32 -20 -10 -9 8 -23 15 -32 14 -13 0 -11 -3 6 -11 12 -6 22 -15 22 -20 0
-5 -9 -4 -20 2 -16 9 -20 8 -21 -7 0 -11 -3 -13 -6 -5 -2 6 -8 12 -13 12 -10
0 -8 -33 4 -41 10 -8 -1 -29 -15 -29 -5 0 -7 11 -5 24 3 15 -1 27 -9 30 -19 7
-27 -5 -13 -21 9 -11 9 -16 0 -22 -8 -5 -6 -12 8 -24 17 -14 18 -20 8 -37 -7
-11 -17 -20 -22 -20 -4 0 -3 7 4 15 9 11 10 19 3 26 -14 14 -36 -50 -27 -74 4
-10 1 -17 -6 -17 -7 0 -4 -7 7 -17 10 -10 14 -15 9 -10 -16 12 -36 8 -36 -7 0
-9 -7 -12 -20 -9 -11 3 -20 10 -20 15 0 5 5 6 10 3 6 -3 10 -1 10 4 0 6 -9 11
-20 11 -15 0 -20 7 -20 25 0 14 -8 29 -20 35 -14 7 -20 7 -20 0 0 -5 5 -10 10
-10 22 0 8 -15 -15 -16 -14 -1 -25 2 -25 7 0 5 -5 9 -11 9 -6 0 -8 -9 -4 -20
5 -15 3 -18 -8 -14 -8 3 -18 1 -22 -5 -3 -7 0 -8 9 -5 9 3 16 1 16 -5 0 -6 -9
-11 -19 -11 -15 0 -19 -7 -17 -35 1 -35 -10 -47 -20 -21 -5 13 -63 41 -69 34
-2 -2 1 -12 6 -23 4 -11 8 -15 8 -8 1 6 9 9 19 7 22 -6 25 -95 3 -102 -10 -3
-12 0 -8 12 4 9 2 16 -3 16 -15 0 -12 -30 4 -36 8 -3 17 -13 20 -21 5 -12 3
-13 -7 -5 -7 6 -23 10 -35 7 -12 -2 -24 1 -28 6 -3 5 0 8 7 7 6 -2 14 3 16 11
4 9 0 11 -13 7 -17 -5 -19 0 -18 42 0 26 -5 50 -10 54 -6 4 -7 10 -3 14 4 4
14 -1 22 -12 12 -16 14 -16 15 -3 0 21 -26 43 -40 34 -5 -3 -10 -1 -10 6 0 9
-3 9 -14 0 -10 -8 -16 -9 -21 -1 -11 18 -27 11 -20 -9 4 -13 0 -23 -12 -30
-16 -9 -16 -10 -1 -11 9 0 20 5 23 10 9 14 30 -9 38 -40 5 -21 3 -26 -13 -27
-22 -2 -26 17 -9 34 8 8 8 13 0 18 -6 3 -14 -2 -18 -12 -4 -10 -13 -24 -20
-31 -16 -16 -17 -33 -2 -29 6 1 13 -3 16 -9 2 -7 -8 -9 -27 -6 -16 2 -30 0
-30 -5 0 -6 -9 -20 -19 -32 -11 -12 -17 -31 -15 -44 4 -19 3 -19 -6 3 -6 13
-8 36 -5 50 4 19 3 21 -5 10 -8 -12 -12 -13 -19 -2 -6 10 -10 8 -16 -10 -4
-12 -6 -27 -6 -32 1 -5 -5 -6 -14 -2 -10 3 -13 2 -10 -5 4 -5 15 -7 26 -4 11
4 19 3 18 -2 -1 -4 -1 -15 1 -23 1 -12 3 -11 8 2 7 17 8 17 18 0 9 -14 8 -22
-4 -37 -9 -13 -13 -14 -9 -5 3 12 -3 16 -22 17 -23 2 -24 1 -6 -8 17 -8 16 -9
-7 -6 -16 3 -28 0 -28 -4 0 -5 -6 -9 -14 -9 -8 0 -18 -4 -21 -10 -3 -6 1 -7
10 -4 11 5 14 2 9 -12 -4 -15 -1 -14 15 5 l21 23 0 -26 c0 -18 -4 -25 -12 -20
-8 5 -9 0 -6 -14 4 -12 2 -22 -3 -22 -5 0 -9 4 -9 9 0 5 -7 11 -14 14 -11 4
-13 1 -9 -10 5 -12 3 -14 -7 -8 -10 6 -12 3 -8 -13 4 -14 2 -22 -7 -22 -18 0
-28 32 -13 42 10 6 10 10 -2 18 -20 13 -39 13 -20 -1 12 -8 10 -9 -10 -7 -16
2 -26 11 -31 28 -4 16 -7 19 -8 8 -1 -10 -5 -18 -10 -18 -5 0 -11 -10 -14 -22
-3 -22 -4 -22 -13 -3 -12 26 -29 29 -31 5 -1 -10 6 -21 15 -23 10 -3 5 -5 -11
-6 -15 0 -30 -8 -34 -17 -3 -8 -12 -13 -19 -10 -8 3 -14 -1 -14 -9 0 -8 -4
-15 -9 -15 -5 0 -12 -7 -15 -16 -3 -8 -2 -12 4 -9 17 11 50 -5 50 -24 0 -10
-10 -26 -21 -37 -22 -19 -22 -19 -11 2 9 16 8 21 -4 21 -7 0 -14 -6 -14 -13 0
-7 -5 -16 -12 -20 -8 -5 -9 -2 -5 9 7 18 -8 24 -18 7 -11 -17 -35 -11 -35 9 0
11 -5 23 -11 27 -9 5 -10 -1 -5 -20 5 -21 3 -27 -6 -23 -8 2 -12 16 -10 35 2
18 -1 32 -7 32 -6 0 -12 -15 -12 -32 l-1 -33 -7 30 c-4 17 -2 33 4 37 6 5 4 8
-5 8 -8 -1 -24 -7 -34 -15 -19 -15 -19 -15 3 -15 16 0 22 -5 19 -17 -2 -14
-12 -18 -43 -16 -25 0 -30 -1 -12 -4 15 -2 27 -8 27 -13 0 -14 -23 -25 -27
-13 -2 5 -16 8 -31 6 -22 -4 -24 -2 -12 7 12 10 11 11 -7 7 -12 -3 -24 0 -26
7 -2 6 -7 8 -11 5 -11 -10 5 -39 23 -39 14 0 14 -2 1 -10 -9 -6 -20 -5 -30 3
-8 6 -12 8 -8 3 4 -4 -2 -17 -12 -29 -20 -21 -18 -43 3 -30 8 4 8 1 -1 -9 -10
-13 -10 -19 3 -31 21 -22 19 -26 -11 -21 -36 7 -72 -5 -53 -17 8 -5 10 -9 4
-9 -5 0 -3 -5 5 -10 13 -8 13 -10 -2 -10 -9 0 -19 6 -21 13 -4 7 -6 6 -6 -5
-1 -9 7 -19 17 -21 13 -4 11 -5 -5 -6 -19 -1 -23 4 -23 28 0 33 -17 51 -26 27
-3 -9 -11 -13 -18 -10 -6 3 -2 -2 8 -10 11 -9 15 -16 9 -16 -6 0 -18 -2 -26
-6 -10 -4 -14 3 -13 24 1 17 4 28 9 25 4 -2 6 11 6 29 -1 24 -3 27 -6 10 -4
-19 -7 -21 -19 -11 -12 10 -14 8 -11 -9 2 -12 6 -25 10 -28 15 -16 6 -21 -17
-11 -13 7 -23 14 -21 17 2 3 0 12 -5 20 -7 12 -11 12 -25 0 -22 -18 -51 -35
-94 -55 -35 -17 -81 -13 -81 6 0 6 7 8 16 5 13 -5 15 -1 12 19 -5 21 -2 24 17
19 15 -4 22 -1 22 9 0 9 -7 12 -20 9 -15 -4 -18 -2 -12 9 5 8 -4 1 -18 -14
-15 -15 -27 -33 -27 -38 0 -6 -6 -7 -12 -3 -9 5 -9 2 1 -9 7 -9 10 -17 7 -17
-4 0 -2 -9 4 -20 6 -11 16 -17 22 -14 16 10 69 13 63 4 -3 -4 2 -11 11 -14 13
-5 15 -1 12 19 -3 14 -1 25 4 25 5 0 16 7 25 16 9 8 22 13 29 10 8 -3 14 1 14
9 0 8 7 15 16 15 14 0 15 -2 3 -17 -12 -14 -12 -16 0 -8 10 5 12 4 7 -4 -4 -6
-11 -9 -15 -6 -5 2 -19 -4 -31 -15 -13 -11 -27 -20 -32 -20 -4 0 -8 -9 -8 -21
0 -13 4 -18 13 -13 8 4 9 4 2 -3 -5 -5 -23 -15 -39 -22 -26 -11 -28 -11 -16 4
7 8 10 19 6 22 -4 4 -11 1 -15 -6 -6 -9 -14 -10 -22 -5 -21 13 -33 11 -42 -6
-5 -10 -6 -8 -3 8 2 12 0 22 -4 22 -10 0 -24 -20 -25 -35 -2 -18 -17 -45 -24
-41 -3 2 -7 -7 -7 -21 -2 -28 -15 -44 -21 -25 -8 21 -21 13 -16 -10 5 -19 3
-21 -7 -11 -11 10 -16 9 -25 -3 -10 -14 -12 -14 -24 0 -12 14 -12 16 3 10 9
-3 16 -1 16 5 0 16 -33 27 -38 13 -2 -7 -11 -12 -20 -12 -15 -1 -14 -3 2 -15
20 -15 20 -15 0 -30 -11 -9 -30 -13 -44 -10 -14 3 -20 2 -15 -2 6 -4 11 -21
13 -38 2 -25 1 -27 -8 -12 -14 22 -55 24 -46 1 3 -8 2 -12 -4 -9 -10 6 -6 57
6 77 4 7 -2 5 -13 -4 -22 -20 -38 -24 -27 -6 5 7 3 8 -6 3 -7 -4 -16 -2 -21 6
-7 11 -9 9 -10 -6 -1 -11 -1 -27 0 -35 1 -10 -1 -11 -6 -3 -4 6 -26 12 -48 14
-33 3 -40 0 -39 -14 2 -21 0 -21 -22 0 -16 16 -16 16 -10 -4 5 -16 2 -23 -15
-28 -15 -5 -18 -10 -9 -15 9 -5 8 -9 -3 -13 -9 -3 -18 1 -21 9 -9 24 -7 34 7
31 6 -1 10 5 8 13 -2 8 -3 25 -2 38 0 13 -3 20 -9 17 -6 -3 -10 -12 -10 -19 0
-19 -37 -27 -50 -11 -12 15 3 30 20 20 6 -3 10 -1 10 6 0 6 -8 9 -20 6 -10 -3
-21 -1 -24 4 -2 5 -3 4 -2 -3 2 -7 -3 -21 -12 -31 -8 -9 -12 -20 -8 -24 4 -4
11 -1 16 7 8 13 10 12 10 -2 0 -11 -7 -18 -19 -18 -14 0 -24 -17 -43 -70 -19
-54 -22 -70 -12 -70 8 0 14 -4 14 -9 0 -4 -11 -6 -25 -3 -14 2 -25 11 -25 18
0 8 -6 14 -14 14 -8 0 -17 10 -19 23 -2 12 -4 7 -3 -10 1 -18 -2 -33 -6 -33
-4 0 -8 4 -8 8 0 4 -16 6 -36 4 -26 -3 -35 -1 -30 7 4 6 2 11 -5 11 -8 0 -8 5
2 16 12 15 14 14 23 -5 10 -22 26 -29 26 -10 0 5 4 7 10 4 6 -3 7 1 4 10 -4 9
-9 14 -12 11 -2 -3 -13 -1 -24 5 -13 7 -23 7 -32 0 -7 -6 -15 -9 -17 -6 -3 2
-11 -5 -18 -17 -11 -18 -11 -20 3 -15 9 4 16 1 16 -4 0 -11 -7 -10 -62 8 -13
4 -18 0 -18 -13 0 -15 2 -16 9 -5 7 11 14 9 35 -13 24 -23 24 -39 1 -17 -16
14 -63 22 -70 12 -9 -16 -96 -25 -105 -11 -4 7 -10 -1 -15 -22 -5 -22 -9 -27
-12 -16 -3 11 -13 17 -28 16 -13 -1 -21 -7 -18 -12 4 -5 -1 -7 -10 -3 -10 3
-17 2 -17 -2 0 -5 6 -11 13 -14 6 -2 8 -8 4 -13 -5 -5 -15 0 -24 11 -11 15
-14 15 -10 3 3 -9 0 -19 -9 -22 -8 -3 -14 1 -14 10 0 8 -4 13 -9 9 -5 -3 -12
3 -14 12 -4 14 -5 13 -6 -4 -1 -26 -21 -42 -21 -17 0 10 -3 15 -6 11 -10 -9
-32 16 -27 30 3 7 1 13 -5 13 -13 0 -10 -24 6 -42 6 -8 9 -18 5 -21 -10 -11
-43 24 -43 45 0 11 -7 18 -17 18 -15 0 -16 -2 -3 -10 10 -6 11 -10 3 -10 -7 0
-13 -4 -13 -10 0 -5 6 -10 13 -10 8 0 22 -9 32 -20 15 -16 21 -18 33 -8 13 11
14 8 7 -21 -5 -23 -4 -31 4 -27 6 4 11 2 11 -3 0 -6 -7 -11 -15 -11 -8 0 -15
6 -15 14 0 24 -14 25 -35 3 l-20 -20 23 6 c12 3 22 1 22 -4 0 -5 -11 -9 -24
-9 -26 0 -53 24 -37 34 9 6 -8 56 -20 56 -4 0 -10 -10 -13 -22 -7 -22 -8 -22
-15 -4 -5 14 -10 16 -15 8 -4 -7 -4 -16 -1 -22 3 -5 1 -10 -5 -10 -6 0 -8 -5
-5 -10 4 -6 11 -7 17 -4 7 4 8 2 4 -5 -12 -19 -39 4 -43 35 -2 16 -4 37 -5 47
-3 26 -18 20 -18 -8 0 -14 5 -25 10 -25 6 0 10 -5 10 -11 0 -6 -6 -9 -14 -6
-10 4 -13 -2 -12 -19 0 -14 6 -22 13 -20 12 5 28 -23 18 -32 -3 -3 -5 0 -5 6
0 6 -6 9 -13 6 -8 -3 -18 6 -25 21 -6 14 -20 25 -29 24 -16 0 -15 -2 2 -9 11
-5 15 -9 8 -9 -6 -1 -15 -10 -18 -21 -3 -11 -13 -20 -21 -20 -17 0 -18 12 -2
28 7 7 8 12 2 12 -6 0 -16 -10 -23 -22 -8 -15 -10 -16 -6 -4 3 10 0 26 -7 35
-11 14 -11 14 2 4 19 -14 34 -6 38 21 3 17 1 18 -11 7 -13 -10 -15 -9 -9 11 5
21 4 22 -11 8 -31 -28 -45 -39 -49 -37 -2 1 4 -5 13 -14 10 -9 20 -34 24 -55
5 -31 4 -35 -5 -21 -6 9 -17 17 -24 17 -9 0 -12 9 -9 28 3 19 2 23 -5 13 -6
-8 -17 -11 -26 -8 -20 8 -20 -2 -1 -27 8 -11 15 -23 15 -28 0 -12 -38 -10 -46
3 -4 8 0 9 15 4 16 -5 20 -3 15 8 -4 12 -44 16 -73 8 -10 -3 49 -41 63 -41 19
0 21 -16 4 -23 -8 -3 -9 -6 -2 -6 12 -1 7 -48 -6 -56 -4 -2 -5 7 -2 20 5 28 4
29 -35 15 l-28 -10 25 19 25 20 -23 23 c-21 21 -23 21 -17 3 6 -18 5 -18 -5
-2 -6 9 -9 26 -5 36 3 10 -1 23 -9 30 -11 9 -15 6 -19 -16 -3 -16 0 -31 6 -35
9 -6 8 -8 -1 -8 -8 0 -29 -7 -48 -16 -18 -9 -39 -14 -46 -11 -8 3 -6 6 5 6 14
1 17 6 12 22 -6 19 -5 20 15 9 28 -15 31 -11 21 26 -5 16 -10 23 -10 15 -1 -8
-8 -11 -20 -8 -13 3 -29 -5 -47 -24 -15 -16 -23 -29 -17 -29 14 0 24 -38 12
-46 -5 -3 -10 0 -10 5 -1 6 -2 15 -3 20 0 5 -5 13 -10 18 -5 5 -6 3 -2 -5 4
-7 1 -15 -8 -18 -9 -3 -16 -14 -17 -23 0 -10 -2 -11 -6 -3 -2 6 -8 10 -13 7
-4 -3 -6 4 -3 15 4 16 2 19 -13 14 -16 -5 -16 -4 -4 5 11 8 18 7 26 -4 6 -8
14 -12 17 -8 4 3 2 12 -4 19 -7 8 -6 14 2 20 8 4 9 3 5 -4 -10 -17 9 -15 23 2
14 17 -11 41 -35 32 -8 -3 -24 -1 -35 4 -14 8 -19 7 -19 -2 0 -8 -12 -15 -26
-16 -23 -2 -25 0 -13 14 8 10 9 18 2 22 -5 4 -12 12 -14 18 -2 7 -12 8 -24 3
-15 -6 -16 -8 -4 -8 19 -1 33 -28 19 -36 -6 -4 -10 -2 -10 3 0 6 -11 9 -24 8
-24 -1 -26 -16 -2 -16 8 0 20 -8 27 -17 11 -15 11 -16 -1 -5 -28 25 -33 11 -6
-17 17 -18 24 -31 17 -35 -6 -4 -11 0 -11 8 0 9 -4 16 -10 16 -14 0 -12 -12 7
-39 9 -14 12 -21 6 -18 -15 9 -44 -3 -37 -14 3 -5 1 -9 -5 -9 -16 0 -22 18 -7
23 18 7 15 49 -4 54 -12 4 -13 3 -1 -5 11 -8 10 -15 -8 -40 -22 -31 -27 -47
-13 -38 4 2 14 0 22 -6 12 -8 12 -9 -3 -4 -11 3 -17 0 -17 -9 0 -8 -7 -15 -16
-15 -13 0 -14 3 -5 14 8 9 8 16 2 20 -5 4 -12 2 -16 -4 -3 -5 -11 -10 -17 -10
-6 0 -5 6 2 16 11 13 10 19 -10 37 -12 12 -20 17 -16 10 3 -6 3 -13 -1 -16 -5
-2 -3 -2 4 -1 22 5 23 -13 3 -37 -16 -20 -19 -21 -20 -6 0 10 -8 17 -20 17
-11 0 -20 4 -20 9 0 5 -6 12 -12 14 -7 2 -1 3 13 1 23 -3 26 0 21 19 -3 12 -7
16 -10 9 -2 -6 -15 -12 -28 -12 -19 0 -24 -5 -24 -27 0 -14 -3 -23 -7 -20 -3
4 -12 2 -20 -4 -10 -9 -13 -8 -13 1 0 7 8 19 17 26 10 7 15 16 11 19 -4 4 -14
0 -23 -9 -21 -21 -39 -21 -31 0 5 13 4 14 -7 6 -7 -6 -25 -9 -40 -6 -15 2 -27
0 -27 -6 0 -5 6 -10 13 -10 6 -1 -1 -8 -18 -16 -16 -8 -22 -12 -13 -10 10 3
20 0 24 -6 5 -7 -2 -9 -20 -6 -24 5 -31 -3 -28 -33 1 -3 -5 -6 -13 -6 -10 0
-11 5 -4 19 10 19 -4 27 -16 8 -3 -5 -12 -10 -18 -10 -7 0 -6 4 3 10 10 6 11
10 3 10 -7 0 -13 4 -13 10 0 5 7 7 15 4 18 -7 75 14 75 27 0 12 -53 -1 -62
-15 -6 -8 -11 -7 -17 3 -7 11 -9 11 -13 0 -4 -10 -11 -7 -27 11 -22 24 -23 19
-5 -24 6 -15 -42 -54 -53 -42 -3 3 -1 6 6 6 7 0 10 4 7 9 -3 5 -15 7 -26 4
-11 -3 -20 -1 -20 5 0 6 15 9 35 6 36 -4 41 1 26 25 -7 10 -13 11 -30 2 -17
-10 -20 -9 -15 4 4 8 1 15 -5 15 -6 0 -11 -7 -11 -16 0 -10 -5 -14 -15 -10 -9
3 -18 -1 -21 -9 -8 -21 -24 -19 -25 3 0 14 -2 14 -8 -3 -5 -11 -6 -26 -3 -34
3 -7 -1 -17 -9 -22 -19 -12 -29 -11 -29 1 0 6 7 10 15 10 8 0 15 3 15 8 0 4
-16 7 -35 7 -22 0 -35 -5 -35 -13 0 -10 -3 -10 -14 0 -7 7 -11 18 -9 25 3 7
-3 10 -14 8 -10 -1 -17 -8 -15 -16 2 -9 -1 -9 -13 1 -15 12 -33 15 -77 11 -9
-1 -8 -4 2 -11 13 -8 12 -10 -2 -10 -12 0 -18 8 -19 23 -1 21 -1 21 -10 -3 -8
-23 -8 -22 -5 8 3 37 -4 41 -22 11 -10 -15 -20 -19 -38 -15 -19 5 -24 3 -24
-13 0 -11 8 -22 17 -24 10 -2 5 -3 -10 -2 -26 2 -28 -1 -22 -24 6 -24 5 -25
-8 -7 -16 21 -25 8 -22 -31 1 -13 -2 -23 -7 -23 -4 0 -8 4 -8 10 0 5 -6 7 -13
4 -8 -3 -14 2 -14 11 0 11 6 14 21 9 15 -4 17 -3 8 4 -21 14 -19 22 8 38 23
14 23 14 3 9 -28 -8 -29 -2 -5 21 16 17 16 18 -1 11 -11 -4 -17 -2 -17 8 0 8
-4 15 -9 15 -10 0 -7 -43 5 -61 5 -9 2 -10 -12 -6 -16 6 -17 5 -4 -5 14 -12
14 -15 -4 -32 -19 -19 -19 -18 -12 8 l7 28 -30 -18 c-16 -10 -28 -21 -25 -26
3 -4 -2 -8 -11 -8 -9 0 -13 5 -10 10 3 6 -5 10 -19 10 -16 0 -24 5 -21 13 4 8
-7 12 -35 13 -22 1 -38 -2 -35 -6 3 -5 1 -11 -5 -15 -6 -4 -8 -10 -5 -15 3 -5
-8 -7 -25 -5 -18 2 -36 -3 -45 -12 -9 -8 -19 -12 -23 -8 -4 3 1 12 10 19 15
11 15 13 0 24 -14 9 -11 9 12 2 24 -9 27 -8 22 6 -3 8 -6 18 -6 21 0 3 -6 1
-13 -5 -9 -8 -16 -6 -25 8 -11 17 -8 21 21 29 28 8 29 9 7 10 -14 0 -32 -4
-40 -9 -11 -7 -17 -5 -22 8 -6 15 -7 15 -7 -1 -1 -11 -11 -27 -23 -37 -18 -14
-25 -15 -34 -5 -7 7 -25 10 -40 7 -17 -3 -25 -1 -21 5 4 6 -3 13 -16 17 -17 5
-19 8 -8 15 12 8 12 11 -1 24 -13 13 -15 11 -14 -18 1 -18 4 -31 8 -28 5 2 8
-8 8 -24 -1 -24 -2 -25 -11 -10 -12 20 -31 23 -23 3 3 -7 -2 -16 -11 -20 -13
-5 -15 -1 -9 17 4 12 11 24 15 25 5 2 9 8 9 13 0 15 -29 -2 -35 -22 -9 -27
-28 -24 -20 4 6 21 6 21 -14 -3 -24 -30 -26 -40 -7 -40 8 0 17 -4 20 -9 4 -5
-2 -7 -12 -4 -11 2 -26 -3 -35 -11 -19 -19 -34 -21 -18 -3 6 8 8 17 4 20 -3 4
-2 7 4 7 13 0 23 59 11 66 -4 3 -8 -4 -8 -14 0 -11 -7 -25 -15 -32 -9 -7 -14
-19 -11 -27 3 -7 1 -13 -4 -13 -6 0 -10 9 -10 20 0 11 -4 20 -10 20 -5 0 -10
8 -10 19 0 14 -6 17 -26 13 -20 -4 -25 -2 -19 8 5 9 4 11 -3 6 -7 -4 -12 -17
-12 -29 0 -13 -3 -17 -8 -11 -4 6 -14 14 -22 17 -12 4 -11 6 3 6 9 1 17 5 17
10 0 5 -9 7 -20 4 -11 -3 -20 -14 -20 -24 0 -27 -10 -24 -53 16 -36 33 -38 33
-50 15 -16 -26 -31 -26 -17 0 7 14 7 20 0 20 -5 0 -10 -5 -10 -11 0 -5 -4 -7
-10 -4 -9 6 -14 -7 -11 -27 0 -4 -6 -5 -14 -2 -10 4 -15 0 -16 -12 0 -13 -4
-10 -11 9 -6 18 -15 26 -24 23 -8 -3 -14 1 -14 10 0 14 -2 14 -16 0 -19 -19
-36 -20 -52 -4 -9 9 -12 8 -12 -4 0 -9 5 -20 10 -23 6 -3 10 -11 10 -17 0 -7
-6 -6 -15 2 -8 7 -15 19 -15 26 0 8 -6 14 -12 14 -10 0 -9 3 1 9 9 6 10 11 2
15 -6 4 -9 12 -6 17 4 5 -2 6 -11 2 -11 -4 -13 -8 -6 -11 7 -2 12 -8 12 -14 0
-5 -9 -6 -20 -3 -12 4 -20 2 -20 -5 0 -6 -11 -8 -24 -6 -16 3 -24 0 -22 -7 1
-7 1 -9 -1 -5 -2 4 -12 4 -21 1 -14 -4 -14 -3 -3 5 22 16 6 42 -21 34 l-23 -6
24 -6 24 -5 -27 -13 c-41 -18 -59 -16 -53 9 5 17 3 18 -9 8 -8 -6 -17 -9 -21
-5 -3 3 -1 6 5 6 7 0 12 5 12 11 0 6 -8 9 -17 7 -11 -2 -17 -11 -15 -23 2 -19
2 -19 -11 -2 -15 19 -37 23 -37 7 0 -5 -6 -10 -14 -10 -8 0 -16 -6 -19 -12 -3
-10 -8 -10 -18 1 -9 9 -9 11 -1 7 6 -4 12 -3 12 3 0 14 -35 32 -45 23 -5 -4
-5 -1 -1 6 12 21 -13 13 -26 -8 -18 -28 -36 -25 -30 5 4 21 1 24 -14 19 -11
-4 -26 -13 -36 -21 -14 -13 -17 -12 -23 8 -7 22 -8 21 -25 -12 -11 -22 -13
-38 -7 -46 5 -7 12 -11 16 -9 4 3 7 -4 7 -15 0 -18 -3 -17 -21 8 -11 15 -18
29 -17 32 2 2 -2 8 -10 13 -10 8 -9 9 4 5 11 -4 18 2 22 19 8 31 1 44 -26 44
-18 0 -19 -2 -7 -17 13 -15 12 -15 -10 -4 -17 9 -20 15 -11 21 9 6 9 12 1 29
-7 11 -15 21 -19 21 -4 0 -8 12 -8 26 -2 32 -12 43 -24 24 -4 -7 -18 -15 -31
-17 -19 -3 -20 -1 -8 14 13 16 12 17 -3 5 -9 -8 -14 -20 -11 -28 6 -17 20 -18
26 -1 4 7 6 6 6 -5 1 -9 -7 -19 -16 -21 -14 -4 -13 -5 4 -6 12 0 25 3 28 9 4
6 13 5 25 -2 28 -18 33 -38 9 -38 -11 0 -18 4 -14 9 3 5 0 13 -6 17 -8 4 -9 3
-5 -4 11 -18 -69 -15 -83 2 -10 11 -8 17 6 25 14 8 16 12 5 22 -9 10 -12 10
-12 1 0 -14 -36 -16 -44 -3 -11 17 -57 9 -68 -13 -7 -11 -11 -24 -10 -28 3
-12 -16 -10 -23 2 -3 6 1 13 9 16 9 3 13 10 10 15 -3 5 0 9 6 9 6 0 9 4 5 9
-3 5 3 12 12 14 10 3 1 5 -21 6 -32 1 -37 -1 -27 -13 10 -11 8 -16 -9 -21 -12
-4 -27 -2 -32 3 -8 8 -4 9 13 6 21 -5 22 -4 7 6 -10 6 -18 21 -19 33 l-1 22
-6 -22 c-7 -20 -65 -75 -61 -56 4 17 -18 56 -25 45 -10 -17 -26 -15 -20 3 6
14 -6 19 -43 18 -7 -1 -13 5 -13 13 0 8 8 11 23 9 22 -4 22 -4 2 11 -12 9 -21
11 -23 4 -2 -5 -7 -8 -11 -5 -5 2 -6 -8 -3 -23 3 -15 1 -24 -3 -20 -14 13 -47
-12 -40 -30 4 -12 3 -14 -5 -6 -7 7 -8 19 -1 40 10 29 10 29 -5 7 -17 -24 -34
-30 -34 -12 0 5 5 7 11 3 7 -4 10 -1 7 7 -3 8 -11 13 -18 11 -10 -2 -11 0 -2
10 7 9 8 19 2 28 -8 12 -10 12 -10 -4 0 -16 -2 -17 -17 -5 -14 12 -16 12 -8 0
6 -11 4 -13 -9 -8 -10 4 -20 7 -22 7 -2 0 -4 14 -4 32 l0 31 -20 -23 c-20 -23
-20 -41 -20 -10671 0 -7392 3 -10650 10 -10654 6 -4 17 -1 25 5 9 8 32 10 62
6 27 -3 56 -6 65 -7 9 0 22 -7 29 -15 6 -8 16 -14 22 -14 6 0 33 -23 59 -50
47 -49 68 -57 28 -10 -11 13 -20 27 -20 33 0 5 13 -5 29 -24 16 -18 28 -36 25
-40 -2 -4 5 -9 16 -12 10 -3 22 -17 26 -33 4 -16 16 -37 26 -48 10 -11 19 -27
20 -35 3 -32 4 -36 12 -50 7 -11 10 -11 17 0 6 10 9 8 9 -8 0 -12 5 -25 10
-28 6 -3 10 -17 10 -31 0 -14 7 -27 15 -30 8 -4 12 -11 9 -16 -4 -6 -3 -13 2
-17 14 -10 35 -51 26 -51 -4 0 -8 -9 -8 -19 0 -11 4 -17 8 -15 4 3 8 -9 8 -25
0 -24 4 -31 19 -31 11 0 22 -8 25 -17 7 -24 5 -115 -3 -128 -3 -5 -6 -17 -8
-25 -1 -8 -9 -20 -18 -26 -9 -7 -17 -16 -18 -21 0 -4 -9 -17 -19 -27 -13 -14
-18 -16 -18 -6 0 9 -5 7 -15 -6 -8 -10 -15 -15 -15 -9 0 5 -7 -1 -16 -13 -8
-12 -24 -22 -35 -22 -11 0 -17 -4 -14 -10 5 -9 -15 -15 -37 -11 -5 0 -8 -3 -8
-8 0 -4 -11 -7 -25 -6 -14 2 -25 -1 -25 -5 0 -5 -16 -6 -35 -3 -21 3 -35 2
-35 -5 0 -15 -80 -8 -91 9 -7 12 -10 12 -18 0 -6 -9 -11 -10 -15 -2 -4 6 -18
11 -32 11 -28 0 -65 17 -76 34 -4 6 -8 -967 -8 -2162 l0 -2172 2801 0 c1838 0
2798 4 2794 10 -4 7 3 6 20 0 17 -7 8327 -10 24706 -10 l24679 0 0 15195 0
15195 -22501 0 c-12375 0 -22498 -4 -22495 -8 3 -5 -1 -9 -9 -9 -8 0 -12 4 -9
8 3 5 -20 8 -51 8 -34 -1 -55 -5 -55 -13 0 -8 -2 -8 -8 0 -8 12 -65 15 -83 4z
m3624 -1282 c37 -28 39 -118 2 -118 -8 0 -15 -4 -15 -10 0 -20 -52 -9 -77 16
-20 20 -24 31 -19 57 4 18 10 33 15 35 4 1 17 9 27 17 24 18 45 19 67 3z
m-793 -107 c81 -56 71 -174 -17 -216 -66 -31 -141 -3 -169 63 -48 116 83 224
186 153z m500 -214 c92 -23 156 -104 144 -184 -13 -89 -76 -184 -146 -219 -48
-25 -131 -33 -143 -14 -3 5 -11 7 -18 4 -16 -6 -73 49 -94 90 -25 48 -23 216
3 258 14 23 56 53 93 65 31 11 116 11 161 0z m-4493 -824 c28 -18 56 -88 48
-122 -24 -107 -173 -124 -220 -25 -51 109 70 213 172 147z m7204 -163 c24 -7
51 -15 59 -18 8 -3 18 -4 23 -4 4 1 7 -2 7 -8 0 -5 3 -10 8 -9 13 2 52 -13 52
-20 0 -4 6 -8 13 -8 34 0 109 -65 200 -173 6 -8 22 -43 33 -78 50 -149 -2
-364 -117 -483 -87 -89 -156 -127 -424 -228 -44 -16 -127 -48 -185 -70 -58
-21 -152 -56 -210 -76 -58 -21 -114 -41 -125 -46 -11 -5 -81 -29 -155 -55 -74
-25 -227 -77 -340 -115 -309 -106 -503 -169 -517 -169 -7 0 -13 -4 -13 -8 0
-4 -8 -8 -17 -9 -18 -2 -432 -137 -468 -153 -26 -12 -195 -68 -254 -85 -84
-24 -376 -127 -385 -136 -6 -5 -19 -9 -31 -9 -11 0 -29 -6 -40 -14 -11 -7 -27
-13 -35 -13 -8 -1 -44 -12 -80 -26 -36 -14 -67 -25 -70 -25 -3 0 -18 -5 -33
-11 -16 -6 -34 -11 -42 -11 -8 0 -16 -4 -19 -9 -3 -4 -20 -12 -38 -16 -18 -4
-35 -9 -38 -10 -26 -10 -41 -15 -82 -26 -27 -7 -48 -17 -48 -21 0 -4 -8 -8
-17 -8 -10 0 -31 -7 -47 -15 -15 -8 -39 -15 -52 -15 -13 0 -24 -5 -24 -11 0
-6 -9 -9 -20 -6 -12 3 -23 -1 -28 -10 -5 -8 -17 -16 -28 -18 -10 -2 -19 -4
-19 -5 0 -3 -39 -12 -57 -13 -10 -1 -18 -5 -18 -10 0 -5 -6 -7 -12 -4 -7 2
-26 -2 -41 -10 -15 -8 -32 -11 -36 -8 -13 7 -42 -5 -35 -16 3 -5 2 -9 -3 -10
-70 -5 -165 -31 -190 -52 -7 -5 -13 -7 -13 -3 0 3 -12 1 -27 -5 -16 -6 -46
-14 -68 -19 -22 -5 -80 -20 -130 -35 -49 -14 -97 -28 -105 -30 -14 -3 -123
-32 -145 -39 -5 -2 -17 -6 -25 -9 -8 -4 -46 -13 -85 -22 -38 -8 -94 -21 -124
-30 -161 -44 -342 -21 -485 63 -34 20 -63 36 -66 36 -2 1 -13 10 -25 22 -11
11 -27 25 -36 30 -18 11 -80 96 -103 141 -30 60 -47 146 -46 239 0 96 21 198
45 225 8 8 13 18 10 21 -3 3 6 16 20 29 13 13 25 30 25 37 0 6 5 12 10 12 6 0
10 7 10 16 0 8 5 12 10 9 6 -3 10 -1 10 4 0 10 35 51 44 51 2 0 36 18 75 40
55 31 200 88 266 105 6 1 17 5 25 8 8 3 76 24 150 47 74 23 144 46 155 50 11
4 47 16 80 25 95 27 302 94 395 127 211 75 339 118 371 123 19 3 53 13 77 21
23 7 51 14 61 14 10 0 21 3 25 7 3 4 13 8 21 9 8 1 59 16 113 33 54 17 107 33
117 35 11 3 61 18 110 34 50 17 122 40 160 51 219 66 351 111 420 141 23 10
97 32 165 50 69 17 157 42 195 54 39 13 117 38 175 56 58 18 137 43 175 56 39
12 147 46 240 74 94 29 208 65 255 80 47 16 202 65 345 110 368 116 491 155
565 183 84 32 370 88 432 86 26 -2 51 1 55 5 4 3 12 5 19 2 7 -3 32 -10 55
-16z m5166 -1675 c57 -23 140 -114 234 -255 42 -63 121 -180 176 -260 54 -80
173 -253 263 -385 90 -132 208 -305 262 -385 461 -677 564 -827 671 -982 178
-258 432 -624 481 -693 23 -33 78 -112 121 -175 43 -63 124 -178 180 -255 56
-77 122 -171 147 -210 25 -38 104 -151 176 -250 155 -212 171 -238 157 -263
-16 -25 -180 -104 -231 -110 -38 -4 -46 -1 -71 25 -15 16 -73 76 -128 134 -55
57 -132 140 -170 184 -39 44 -84 96 -102 115 -17 19 -40 44 -50 56 -88 102
-132 151 -155 175 -16 15 -28 32 -28 38 0 5 -10 18 -23 28 -12 10 -31 31 -41
48 -17 25 -60 80 -118 150 -45 54 -138 175 -138 181 0 3 -15 20 -32 38 -18 18
-42 46 -53 61 -11 16 -30 40 -42 54 -39 44 -43 50 -43 56 0 3 -10 17 -22 30
-36 38 -48 54 -48 62 0 5 -9 14 -20 21 -11 7 -20 17 -20 23 0 10 -10 24 -42
60 -10 10 -18 23 -18 28 0 10 -13 15 -67 26 -17 3 -43 18 -57 32 -21 21 -26
35 -26 76 0 39 -6 58 -27 86 -15 20 -28 38 -28 41 0 3 -13 19 -30 36 -33 35
-43 47 -95 114 -19 25 -37 47 -40 50 -3 3 -33 41 -67 85 -67 87 -112 141 -129
159 -6 7 -15 22 -19 35 -4 12 -10 20 -13 16 -3 -3 -11 3 -16 14 -12 21 -60 80
-118 146 -21 23 -38 46 -38 51 0 5 -18 29 -40 54 -22 24 -40 48 -40 52 0 4
-10 18 -22 30 -13 13 -50 59 -83 103 -33 44 -68 87 -77 96 -10 9 -18 19 -18
23 0 9 -49 76 -65 91 -6 6 -57 71 -113 145 -56 74 -125 164 -153 200 -27 36
-94 124 -148 195 -221 294 -224 299 -225 405 -1 80 11 122 53 180 78 108 155
142 301 136 49 -2 103 -11 127 -21z m13138 -55 c34 -21 65 -73 65 -108 0 -11
12 -30 28 -41 l27 -20 -28 -1 c-19 0 -37 -10 -54 -30 -29 -35 -72 -60 -104
-60 -12 0 -28 -8 -35 -17 -12 -16 -13 -16 -14 -2 0 9 -16 29 -36 44 -62 48
-81 123 -44 183 42 68 130 92 195 52z m-32631 -651 c26 -12 56 -63 56 -96 -1
-76 -86 -131 -161 -102 -41 16 -72 86 -56 129 3 8 8 23 11 33 12 37 101 58
150 36z m1136 -454 c26 -13 39 -35 46 -75 5 -25 -26 -77 -52 -89 -41 -18 -74
-13 -105 18 -80 81 9 199 111 146z m-600 -119 c36 -18 64 -38 63 -45 -2 -6 2
-11 8 -11 23 0 69 -80 69 -121 0 -13 4 -18 13 -13 8 5 8 2 -2 -9 -8 -10 -9
-17 -3 -17 14 0 7 -129 -8 -144 -5 -5 -10 -21 -10 -35 0 -21 -2 -23 -10 -11
-8 12 -10 9 -10 -12 0 -18 -5 -28 -15 -28 -8 0 -15 -9 -15 -21 0 -11 -4 -17
-10 -14 -5 3 -15 -3 -22 -15 -7 -11 -21 -20 -30 -20 -10 0 -18 -3 -18 -7 0 -5
-11 -13 -25 -19 -18 -9 -25 -9 -29 0 -2 6 -5 4 -5 -6 -1 -13 -9 -15 -41 -12
-27 2 -40 0 -40 -9 0 -9 -2 -9 -9 1 -6 10 -10 10 -21 -3 -8 -9 -17 -12 -24 -7
-6 5 -33 18 -61 28 -27 10 -58 25 -68 34 -10 8 -23 15 -30 15 -7 0 -12 5 -12
12 0 6 -12 25 -27 42 -15 16 -30 42 -34 56 -3 13 -9 23 -13 20 -4 -2 -8 1 -9
8 -15 127 -15 159 -1 168 6 4 12 18 12 33 0 14 2 26 6 26 4 0 7 9 8 21 2 28
105 125 142 135 9 2 32 8 51 13 67 17 159 4 230 -33z m51520 -1475 c0 -5 9
-13 20 -16 11 -4 18 -10 15 -15 -3 -4 2 -10 10 -14 8 -3 15 -15 15 -27 0 -15
4 -19 16 -15 8 3 12 2 9 -4 -3 -5 3 -28 14 -50 10 -22 15 -38 10 -34 -5 3 -9
-4 -9 -14 0 -12 9 -22 21 -25 17 -5 20 -11 15 -35 -5 -20 -2 -33 9 -42 8 -7
15 -23 15 -36 0 -13 4 -24 9 -24 5 0 13 -15 16 -32 4 -18 13 -36 19 -40 8 -5
8 -13 -1 -27 -11 -18 -10 -19 5 -14 14 5 14 3 -2 -9 -13 -10 -17 -21 -12 -33
9 -25 -10 -35 -47 -24 -29 8 -29 8 -11 -13 11 -12 13 -18 7 -14 -7 4 -13 3
-13 -2 0 -5 -10 -12 -21 -15 -16 -4 -20 -11 -16 -26 6 -23 -36 -57 -55 -45 -7
5 -9 0 -6 -14 4 -12 1 -25 -4 -29 -7 -3 -8 -1 -4 5 14 23 -11 12 -42 -19 -18
-17 -32 -26 -32 -20 0 7 -4 10 -10 6 -5 -3 -7 -12 -4 -20 4 -9 -4 -19 -20 -26
-14 -7 -26 -16 -26 -21 0 -5 -5 -6 -12 -2 -7 5 -9 2 -5 -8 6 -17 -37 -43 -54
-33 -5 4 -9 1 -9 -4 0 -6 -5 -11 -11 -11 -5 0 -7 4 -4 10 3 6 -1 7 -9 4 -9 -3
-15 -9 -14 -12 2 -21 -3 -32 -14 -26 -7 5 -9 2 -6 -8 4 -8 2 -21 -3 -29 -5 -8
-9 -9 -9 -3 0 7 -6 14 -14 17 -10 4 -13 -1 -11 -19 2 -18 -2 -24 -11 -20 -7 3
-18 -3 -23 -12 -6 -9 -11 -13 -11 -9 0 15 -40 -14 -40 -29 0 -8 -4 -12 -10 -9
-5 3 -10 1 -10 -4 0 -6 -10 -11 -22 -12 -22 0 -22 -1 -3 -9 16 -7 14 -9 -15
-9 -26 -1 -31 -4 -20 -11 17 -11 16 -11 -27 -14 -18 -1 -38 -7 -44 -13 -9 -9
-6 -11 12 -7 l24 6 -25 -20 c-13 -11 -28 -18 -32 -16 -4 3 -16 -4 -28 -16 -11
-11 -22 -21 -23 -22 -2 -2 -12 4 -23 12 -18 14 -18 14 -1 -6 15 -18 16 -22 3
-27 -8 -3 -17 -1 -20 6 -2 7 -5 4 -5 -5 -1 -10 -4 -17 -8 -15 -5 1 -19 -9 -32
-22 -15 -15 -26 -20 -29 -13 -2 8 -10 8 -27 0 -14 -6 -22 -15 -18 -20 3 -6 -7
-2 -23 8 -15 11 -25 14 -21 8 4 -7 0 -15 -9 -18 -23 -9 -34 -7 -34 5 0 5 6 7
13 3 6 -4 0 5 -14 19 -17 17 -33 25 -43 21 -9 -3 -16 -1 -16 5 0 6 -7 11 -15
11 -8 0 -15 6 -15 14 0 8 -5 18 -12 22 -7 5 -8 3 -3 -7 10 -16 -10 -2 -55 39
-14 12 -29 22 -33 22 -5 0 -6 7 -3 16 5 12 2 15 -10 10 -10 -4 -25 5 -42 24
-15 16 -32 30 -39 30 -17 0 -17 17 0 23 7 4 6 6 -4 6 -23 1 -43 27 -29 36 7 4
9 19 5 37 -5 23 -2 34 14 49 12 11 18 25 15 31 -4 6 -3 8 3 5 5 -4 19 3 31 13
12 11 27 20 34 20 9 0 9 3 -2 10 -10 6 -11 10 -3 10 20 0 118 87 118 104 0 6
8 10 18 8 9 -2 17 2 17 7 0 5 9 13 20 16 11 3 20 11 20 17 0 14 51 58 67 58 7
0 18 9 25 20 7 11 18 20 25 20 7 0 13 5 13 10 0 6 5 10 11 10 6 0 24 12 39 28
48 45 58 52 75 52 9 0 13 5 10 10 -3 6 0 10 7 10 7 1 24 14 38 30 13 17 28 30
32 30 14 0 93 62 91 71 -2 4 3 6 10 3 7 -2 24 7 37 21 13 14 28 25 32 25 15 0
38 27 30 35 -4 5 -1 5 6 1 15 -9 44 12 36 25 -3 5 -2 9 3 8 22 -4 33 3 33 19
0 14 2 15 10 2 8 -13 12 -12 25 8 9 12 22 22 30 22 7 0 23 11 36 25 13 13 30
25 37 25 6 0 12 4 12 8 0 5 17 13 38 19 50 14 62 15 62 4z m-13390 -80 c38
-28 51 -68 34 -116 -17 -52 -47 -75 -95 -75 -55 0 -101 42 -104 96 -7 102 82
153 165 95z m-29756 -762 c56 -44 20 -139 -53 -139 -32 0 -68 31 -77 64 -6 26
17 81 38 89 29 12 67 6 92 -14z m-3003 -252 c26 -4 148 -79 152 -94 1 -4 5 -7
10 -5 4 1 7 -5 7 -13 0 -8 4 -15 9 -15 21 0 93 -204 111 -315 16 -97 50 -401
65 -575 3 -30 8 -80 11 -110 4 -30 8 -68 9 -85 5 -67 16 -183 22 -225 3 -25 7
-76 8 -115 1 -38 5 -97 9 -130 4 -33 9 -91 12 -130 9 -145 13 -189 23 -253 10
-64 14 -100 25 -287 3 -44 8 -116 12 -160 9 -100 9 -122 -1 -325 -4 -91 -8
-268 -9 -395 -1 -228 -1 -230 -26 -265 -14 -19 -31 -39 -37 -43 -7 -4 -13 -16
-13 -26 0 -24 -54 -107 -79 -120 -11 -6 -39 -11 -62 -11 -34 0 -47 6 -73 33
-18 19 -38 53 -46 77 -8 24 -27 57 -42 74 -43 47 -88 152 -113 267 -13 59 -45
181 -70 270 -57 200 -93 396 -160 874 -8 55 -21 145 -30 200 -9 55 -20 132
-25 170 -6 39 -14 93 -20 120 -5 28 -14 84 -19 125 -6 41 -18 120 -26 175
-110 697 -148 1006 -125 1020 4 3 11 23 15 45 4 22 12 46 19 53 6 6 23 28 36
47 35 50 80 91 91 85 5 -4 9 -1 9 5 0 13 105 61 150 67 19 3 36 6 37 7 2 1 26
-1 55 -6 29 -5 65 -10 79 -11z m1753 -245 c121 -44 185 -105 314 -301 107
-164 196 -288 224 -312 10 -9 18 -21 18 -27 0 -6 9 -14 20 -17 11 -4 18 -10
15 -15 -3 -5 1 -12 8 -17 20 -12 48 -59 40 -67 -4 -4 3 -9 16 -13 13 -3 20
-11 17 -19 -3 -8 0 -13 7 -11 7 1 11 -4 9 -11 -1 -7 5 -15 13 -18 8 -4 15 -12
15 -20 0 -8 4 -13 9 -11 5 1 26 -23 46 -53 21 -30 43 -58 48 -61 5 -4 6 -12 2
-19 -5 -8 -4 -11 2 -7 5 3 20 -8 33 -25 18 -24 19 -30 7 -25 -28 11 -19 -6 19
-36 21 -17 33 -35 30 -43 -3 -8 -1 -14 4 -14 6 0 10 -7 10 -16 0 -9 5 -12 13
-8 6 4 9 4 5 -1 -4 -4 -2 -15 5 -23 10 -13 9 -14 -3 -7 -8 4 -5 -3 8 -17 12
-13 22 -30 22 -36 0 -7 7 -12 16 -12 8 0 12 -4 9 -10 -3 -5 -1 -10 4 -10 6 0
11 -7 11 -16 0 -8 4 -13 9 -9 5 3 13 0 17 -6 4 -8 3 -9 -4 -5 -18 11 -14 -2
13 -42 14 -20 25 -40 25 -44 0 -4 23 -41 50 -82 28 -41 50 -77 50 -81 0 -3 12
-23 28 -43 15 -20 20 -32 12 -28 -8 5 -5 -1 8 -13 12 -12 20 -26 17 -31 -3 -5
8 -23 25 -40 16 -17 30 -36 30 -42 0 -6 8 -17 18 -25 9 -8 11 -12 5 -8 -7 3
-13 3 -13 -2 1 -14 27 -43 38 -43 6 0 9 -7 6 -15 -4 -10 0 -15 11 -15 9 0 13
-4 10 -10 -3 -5 -1 -10 4 -10 6 0 11 -9 11 -20 0 -11 5 -20 11 -20 5 0 7 -4 4
-10 -3 -5 -1 -10 4 -10 6 0 10 -3 9 -7 -2 -12 25 -66 44 -87 10 -10 15 -23 12
-28 -3 -4 -1 -8 4 -8 5 0 18 -17 27 -37 10 -21 28 -52 41 -70 13 -17 24 -36
24 -42 0 -6 6 -11 13 -11 8 0 7 -4 -3 -10 -13 -9 -13 -10 0 -10 15 0 62 -68
75 -109 3 -11 11 -21 16 -21 5 0 9 -8 9 -17 0 -10 18 -44 40 -77 22 -32 40
-65 40 -73 0 -8 5 -11 10 -8 6 3 10 -1 10 -10 0 -9 4 -14 9 -11 4 3 7 -5 6
-19 -2 -18 1 -22 13 -18 10 4 13 2 8 -5 -4 -7 -2 -12 3 -12 6 0 11 -6 11 -14
0 -7 6 -19 13 -25 8 -6 19 -29 26 -51 7 -22 16 -38 21 -35 6 4 10 -5 10 -19 0
-14 5 -26 10 -26 6 0 10 -7 10 -16 0 -8 5 -12 10 -9 6 3 10 -3 10 -15 0 -11 7
-23 15 -26 8 -4 12 -10 9 -15 -3 -5 6 -20 20 -34 14 -14 20 -25 13 -25 -7 0
-2 -8 9 -18 12 -9 25 -27 28 -39 4 -11 13 -27 21 -33 8 -7 15 -21 15 -31 0
-10 6 -22 13 -26 7 -4 25 -31 40 -60 26 -51 98 -168 117 -190 5 -7 10 -17 10
-22 0 -6 8 -15 18 -20 9 -6 14 -11 10 -11 -8 0 30 -81 42 -90 17 -13 79 -138
72 -145 -4 -5 -1 -5 6 -1 7 4 12 1 12 -8 0 -9 5 -16 10 -16 6 0 10 -11 10 -25
0 -14 7 -28 15 -31 8 -3 20 -21 27 -40 6 -19 16 -34 22 -34 5 0 7 -3 3 -6 -3
-3 5 -25 18 -47 12 -23 28 -61 35 -84 7 -24 17 -43 22 -43 4 0 7 -3 6 -7 -1
-5 3 -17 9 -28 6 -11 12 -24 13 -30 5 -20 12 -41 32 -89 11 -27 21 -56 24 -65
2 -9 21 -66 43 -128 21 -62 36 -115 33 -117 -2 -3 2 -16 10 -28 8 -13 25 -54
37 -93 13 -38 27 -77 31 -85 4 -9 11 -31 15 -50 4 -19 16 -52 26 -72 11 -21
19 -53 19 -72 0 -44 -26 -66 -159 -131 l-103 -50 5 -70 c4 -74 59 -234 97
-287 19 -25 19 -28 2 -44 -16 -17 -17 -17 -21 2 -4 18 -4 18 -10 0 -5 -14 -19
-19 -55 -21 -28 -1 -52 -8 -57 -16 -6 -10 -9 -10 -9 -1 0 6 -9 12 -21 12 -13
0 -18 -4 -13 -12 4 -7 4 -10 0 -7 -4 4 -22 3 -41 -1 -20 -5 -33 -4 -29 1 3 5
1 9 -4 9 -15 0 -54 41 -117 120 -33 41 -63 77 -66 80 -8 7 -87 113 -135 180
-23 32 -57 78 -76 102 -19 24 -58 79 -88 123 -59 88 -89 129 -190 260 -132
170 -350 478 -369 520 -5 11 -18 30 -29 41 -11 12 -61 84 -110 160 -50 77 -94
144 -99 149 -15 18 -100 149 -113 175 -20 40 -115 162 -155 200 -20 19 -46 52
-57 72 -12 20 -25 35 -30 32 -5 -3 -8 -2 -7 3 4 21 -2 34 -13 27 -6 -4 -8 -3
-4 4 3 6 -7 25 -24 43 -16 19 -30 39 -30 46 0 7 -4 13 -10 13 -5 0 -10 6 -10
14 0 8 -16 37 -35 66 -19 29 -35 56 -35 61 0 5 -5 9 -11 9 -6 0 -9 7 -5 15 3
8 2 15 -3 15 -4 0 -20 24 -35 53 -35 68 -61 110 -116 188 -25 35 -47 69 -50
76 -3 6 -22 30 -43 52 -21 23 -35 41 -32 41 4 0 0 7 -7 15 -31 34 -38 45 -31
45 4 0 0 5 -10 11 -9 6 -15 14 -12 20 4 5 -1 9 -9 9 -9 0 -16 4 -16 10 0 5
-18 29 -40 51 -22 23 -40 45 -40 50 0 10 -22 39 -57 76 -12 13 -19 23 -15 23
4 0 -7 10 -25 21 -20 12 -30 26 -26 35 3 8 1 14 -5 14 -5 0 -13 12 -16 26 -4
14 -19 44 -34 67 -36 57 -57 94 -82 145 -12 23 -55 97 -96 164 -41 67 -74 128
-74 135 0 7 -4 13 -10 13 -5 0 -10 6 -10 13 0 7 -16 32 -36 55 -19 23 -32 42
-28 42 4 0 -5 11 -19 24 -14 13 -23 26 -20 29 3 4 -2 13 -11 22 -9 9 -16 22
-16 29 0 7 -8 24 -18 37 -11 13 -27 47 -37 74 -10 28 -27 61 -37 74 -10 13
-16 27 -13 31 3 4 -2 13 -11 20 -12 11 -12 15 -2 21 9 6 5 9 -12 10 -14 0 -19
3 -12 6 6 2 12 9 12 14 0 6 -4 7 -10 4 -5 -3 -10 0 -10 9 0 8 -6 27 -14 43
-27 52 -57 135 -52 140 3 3 -1 11 -9 19 -7 7 -16 36 -20 64 -4 27 -11 50 -16
50 -8 0 -34 77 -31 91 1 4 -3 20 -7 37 -15 52 -22 185 -12 242 5 30 11 64 13
75 2 11 5 22 8 25 3 3 15 25 28 50 20 40 55 81 117 137 20 18 62 40 79 41 5 0
12 5 16 11 7 12 123 49 180 58 19 3 37 7 38 8 13 12 175 -5 226 -23z m24934
-746 c33 -31 37 -39 37 -84 0 -57 -24 -98 -68 -120 -59 -29 -147 17 -168 87
-22 74 40 151 124 151 29 0 46 -8 75 -34z m-31784 -347 c57 -26 49 -120 -11
-146 -72 -30 -106 -16 -118 49 -7 32 32 86 68 97 18 5 33 10 34 10 1 1 13 -4
27 -10z m30809 -394 c70 -48 88 -125 48 -203 -23 -44 -47 -57 -111 -55 -116 2
-178 135 -104 223 21 24 85 57 119 59 6 1 27 -10 48 -24z m-19006 -115 c76
-34 106 -120 63 -180 -46 -64 -179 -93 -233 -50 -44 35 -53 132 -18 199 27 49
116 64 188 31z m9538 -272 c13 -2 19 2 17 10 -1 8 2 11 8 7 6 -3 8 -10 6 -14
-3 -4 8 -7 25 -6 32 2 133 -41 125 -54 -3 -4 10 -15 28 -23 22 -11 40 -31 54
-61 11 -24 27 -47 34 -50 8 -3 20 -23 28 -46 7 -23 16 -39 18 -36 7 7 30 -61
38 -112 3 -24 10 -43 14 -43 4 0 7 -12 6 -27 -1 -16 5 -34 12 -42 11 -12 11
-15 0 -22 -8 -6 -9 -12 -3 -16 12 -9 15 -54 3 -47 -4 3 -8 1 -8 -3 0 -5 -45
-31 -99 -58 -85 -41 -102 -54 -122 -89 -12 -23 -27 -44 -33 -48 -6 -4 -8 -8
-4 -8 8 0 -77 -90 -86 -90 -4 0 -23 -11 -44 -25 -75 -49 -178 -79 -289 -82
-68 -2 -103 1 -103 8 0 16 -73 3 -120 -21 -35 -18 -43 -19 -60 -7 -11 8 -18
16 -15 19 3 3 -1 11 -10 18 -8 7 -15 17 -15 22 0 5 -7 16 -15 24 -8 9 -15 26
-15 40 0 13 -4 24 -9 24 -20 0 4 184 41 305 24 80 182 295 216 295 10 0 32 45
32 64 0 7 12 26 26 41 18 20 24 34 19 52 -3 13 -10 21 -15 18 -15 -9 -12 3 7
24 9 11 20 18 25 15 4 -3 8 0 8 5 0 6 12 11 26 11 36 0 104 21 104 32 0 5 5 6
10 3 6 -3 10 0 10 7 0 10 3 9 11 -2 8 -11 12 -12 16 -2 2 6 9 12 14 12 6 0 7
-5 3 -12 -5 -7 -3 -8 6 -3 7 4 16 2 22 -6 6 -10 7 -6 2 11 -6 24 -6 24 12 8
11 -9 28 -18 39 -20z m28576 -664 c19 2 39 0 44 -3 6 -4 29 -13 53 -20 31 -9
42 -16 38 -27 -6 -15 37 -61 67 -70 9 -3 15 -10 12 -15 -4 -5 -1 -9 4 -9 6 0
11 8 12 18 1 11 3 9 8 -7 3 -13 15 -29 26 -35 31 -18 60 -46 46 -46 -9 0 -9
-3 1 -14 7 -8 15 -13 16 -11 6 5 42 -34 42 -46 0 -5 5 -7 10 -4 9 6 15 -16 11
-39 -1 -4 10 -5 25 -2 19 5 25 3 22 -6 -6 -18 20 -41 39 -34 13 5 14 4 3 -9
-10 -12 -10 -15 1 -15 11 0 11 -3 -1 -11 -12 -9 -11 -10 7 -6 16 4 24 -1 30
-17 4 -11 6 -24 5 -28 -1 -5 7 -8 18 -8 21 0 29 -20 8 -20 -8 -1 -6 -6 5 -14
9 -7 28 -22 42 -32 14 -10 25 -27 25 -36 0 -10 5 -18 10 -18 6 0 10 -8 10 -17
0 -15 -2 -16 -10 -3 -5 8 -10 10 -10 4 0 -6 7 -17 15 -24 10 -9 15 -9 15 -1 0
6 4 11 10 11 5 0 13 -18 16 -40 4 -24 12 -40 20 -40 8 0 14 -2 14 -4 0 -2 3
-12 7 -22 4 -12 3 -15 -5 -10 -8 5 -12 -1 -12 -18 0 -13 6 -27 13 -29 9 -4 9
-7 -1 -15 -7 -5 -10 -16 -6 -26 6 -15 3 -15 -22 -4 -16 7 -35 18 -42 25 -7 7
-17 13 -21 13 -4 0 -32 25 -63 55 -30 30 -58 55 -61 55 -4 0 -78 71 -166 159
-88 87 -163 156 -166 153 -3 -3 -5 0 -5 6 0 11 -8 21 -57 78 -10 11 -26 23
-35 27 -10 3 -18 12 -18 20 0 7 -10 22 -22 34 -37 32 -78 82 -78 94 0 5 -4 7
-10 4 -9 -6 -14 8 -11 28 0 4 -5 7 -12 7 -8 0 -14 11 -14 29 0 21 7 31 26 38
14 5 29 5 32 1 3 -5 21 -6 40 -4z m-25594 -1649 c516 -318 983 -605 1038 -640
403 -252 1282 -784 1645 -997 80 -46 249 -146 376 -220 127 -75 244 -143 260
-152 16 -9 43 -25 59 -36 17 -11 37 -23 45 -26 8 -4 29 -17 45 -29 17 -12 35
-24 40 -26 6 -2 65 -39 130 -82 66 -43 156 -102 200 -130 79 -51 80 -53 79
-92 0 -22 -6 -53 -11 -70 -30 -84 -73 -222 -73 -234 0 -7 -13 -41 -29 -75 -36
-74 -54 -118 -56 -131 -5 -33 -32 -78 -73 -121 -7 -8 -10 -19 -6 -25 4 -8 3
-9 -4 -5 -7 4 -19 -7 -29 -31 -10 -21 -21 -40 -24 -43 -3 -3 -5 -13 -3 -22 1
-10 -2 -18 -7 -18 -5 0 -9 -7 -9 -15 0 -8 -4 -15 -10 -15 -5 0 -9 -3 -8 -7 4
-15 -31 -69 -75 -119 -49 -55 -77 -103 -77 -133 0 -11 -23 -55 -51 -97 -29
-42 -147 -270 -264 -508 -384 -779 -707 -1439 -750 -1536 -23 -52 -93 -196
-155 -320 -61 -124 -138 -281 -169 -350 -32 -69 -104 -219 -159 -335 -55 -115
-129 -273 -165 -350 -36 -77 -95 -203 -132 -280 -37 -77 -103 -221 -147 -320
-72 -161 -255 -547 -278 -585 -5 -8 -23 -42 -39 -76 -25 -52 -28 -67 -21 -100
11 -50 -2 -109 -31 -140 -12 -13 -53 -45 -90 -70 -37 -25 -73 -52 -80 -60 -17
-21 -5 -52 47 -123 25 -35 100 -161 166 -280 67 -119 146 -261 178 -316 131
-229 260 -475 467 -888 181 -364 233 -480 233 -527 0 -36 -27 -65 -135 -144
-56 -41 -75 -50 -120 -54 -52 -4 -56 -3 -93 34 -22 22 -63 58 -91 82 -28 24
-116 131 -196 238 -80 107 -155 200 -165 207 -11 6 -20 20 -20 30 0 10 -4 15
-10 12 -5 -3 -10 -2 -10 4 0 5 -18 28 -41 50 -23 24 -37 46 -33 53 4 6 3 8 -3
5 -13 -8 -83 59 -83 79 0 22 -40 75 -50 69 -5 -3 -14 5 -21 17 -7 13 -18 27
-25 31 -8 4 -14 15 -14 22 0 8 -4 15 -9 15 -5 0 -12 12 -16 27 -5 21 -8 24
-16 12 -7 -11 -9 -11 -9 4 0 10 -10 22 -22 27 -13 5 -18 9 -13 10 6 0 3 5 -5
10 -10 6 -11 10 -2 10 6 0 12 5 12 10 0 6 -7 10 -15 10 -9 0 -15 10 -16 23 0
12 -3 16 -6 9 -3 -9 -13 3 -24 28 -10 23 -23 39 -29 35 -6 -3 -10 4 -10 17 0
13 -7 32 -15 42 -8 11 -15 30 -15 42 0 14 -8 25 -20 29 -13 4 -20 16 -21 33 0
15 -3 21 -6 15 -2 -7 -9 -13 -14 -13 -6 0 -9 6 -8 13 3 23 -1 34 -21 57 -14
16 -17 27 -10 34 14 14 12 26 -4 26 -28 0 -28 59 1 88 7 7 13 22 13 33 0 10 4
19 8 19 4 0 8 14 7 30 0 17 -4 30 -8 30 -5 0 -7 8 -6 17 2 10 -2 28 -9 41 -7
12 -10 22 -6 22 3 0 0 8 -7 17 -8 9 -9 14 -2 10 8 -5 7 4 -2 30 -8 21 -19 57
-25 80 -6 23 -17 49 -25 56 -8 8 -13 16 -12 18 1 2 -11 -12 -28 -31 -16 -19
-40 -45 -52 -59 -13 -13 -23 -27 -23 -30 0 -3 -25 -33 -56 -66 -64 -69 -647
-792 -653 -809 -2 -6 -13 -19 -25 -28 -11 -9 -21 -20 -21 -25 0 -4 -90 -121
-200 -259 -110 -138 -277 -349 -372 -470 -94 -120 -258 -329 -363 -464 -106
-135 -238 -306 -293 -380 -55 -74 -133 -179 -174 -233 -41 -55 -96 -141 -122
-193 -26 -52 -50 -92 -52 -89 -3 3 -12 -6 -19 -20 -7 -14 -18 -25 -23 -25 -5
0 -17 -8 -26 -18 -27 -30 -90 -64 -108 -58 -10 3 -29 7 -43 10 -79 13 -286 92
-321 122 -8 8 -19 14 -22 14 -13 0 -161 93 -222 139 -33 25 -85 70 -116 101
-80 78 -107 101 -169 141 -30 20 -102 68 -160 106 -58 39 -127 82 -155 96 -27
14 -68 39 -90 57 -42 34 -401 251 -523 316 -62 33 -74 37 -82 24 -6 -8 -8 -28
-5 -45 3 -16 8 -46 10 -67 2 -20 19 -62 37 -94 43 -77 83 -149 107 -199 11
-22 34 -65 52 -95 17 -30 58 -107 91 -170 33 -63 64 -119 68 -125 7 -10 128
-264 197 -415 49 -106 92 -197 201 -420 52 -107 106 -220 119 -250 14 -30 42
-93 63 -140 77 -168 150 -371 157 -430 10 -99 -39 -181 -126 -211 -29 -10 -37
-9 -60 8 -43 32 -118 131 -180 238 -57 97 -392 716 -521 960 -34 66 -103 197
-152 290 -50 94 -115 217 -145 275 -106 200 -146 275 -173 325 -51 91 -206
387 -315 599 -106 207 -107 210 -102 265 3 31 8 67 10 81 5 21 -3 32 -49 70
-30 25 -123 87 -207 138 -83 51 -199 124 -257 161 -58 37 -278 171 -490 296
-361 215 -910 544 -1825 1097 -214 129 -435 261 -490 293 -166 96 -551 284
-658 321 -55 19 -109 42 -120 52 -10 9 -21 15 -24 14 -4 -4 -45 23 -68 46 -8
6 -19 12 -25 12 -6 0 -13 7 -16 15 -4 8 -12 15 -19 15 -7 0 -20 11 -31 24 -10
14 -21 23 -26 20 -4 -3 -8 -1 -8 4 0 5 -33 33 -72 62 -40 29 -85 64 -100 78
l-27 25 -450 -227 c-247 -124 -451 -226 -454 -226 -12 0 15 97 31 108 9 8 105
58 214 112 108 55 256 131 330 170 130 70 300 176 306 192 2 4 8 8 13 8 6 0
20 11 33 25 13 14 26 25 30 25 4 0 30 26 59 57 29 31 65 68 81 82 17 14 42 39
58 54 15 15 28 26 28 23 0 -3 15 9 33 25 68 63 250 146 358 164 43 7 58 10
102 20 24 6 83 16 107 19 8 1 28 8 43 14 16 7 37 12 48 12 33 0 301 96 429
153 30 14 502 248 1049 521 547 273 996 494 998 492 3 -3 -2 -26 -11 -53 l-16
-48 -983 -494 c-540 -272 -991 -503 -1002 -515 -11 -12 -21 -32 -23 -46 -1
-14 -23 -60 -47 -104 -25 -43 -45 -82 -45 -86 0 -8 117 -94 290 -211 176 -120
508 -323 1205 -736 323 -191 461 -271 540 -311 124 -62 591 -344 835 -504 224
-147 772 -475 891 -534 51 -25 131 -71 178 -103 47 -32 165 -104 261 -161 96
-57 234 -138 305 -180 141 -84 349 -203 515 -295 58 -32 143 -82 190 -110 112
-69 368 -205 384 -205 7 0 83 141 168 313 534 1072 1359 2684 1470 2871 23 39
27 51 16 58 -36 23 -656 395 -1178 707 -454 271 -588 346 -600 339 -16 -10
-90 -111 -90 -122 0 -13 -124 -150 -194 -214 -20 -19 -36 -38 -36 -42 0 -5 -7
-7 -15 -4 -8 4 -15 1 -15 -6 0 -7 -12 -23 -26 -36 -14 -14 -26 -33 -27 -44 -1
-12 -7 -18 -14 -16 -16 7 -43 -3 -43 -15 0 -4 7 -6 15 -3 11 5 13 2 9 -10 -4
-11 -13 -15 -28 -11 -20 6 -20 5 -3 -9 18 -14 18 -15 -2 -26 -12 -6 -21 -7
-21 -3 -1 4 -8 -5 -16 -22 -8 -16 -12 -22 -9 -12 2 9 0 17 -5 17 -6 0 -10 -10
-10 -22 0 -19 -2 -20 -11 -8 -9 12 -10 11 -6 -7 3 -16 0 -23 -9 -23 -8 0 -14
-11 -15 -27 0 -16 -3 -23 -5 -16 -4 8 -11 7 -23 -5 -10 -9 -16 -20 -14 -24 2
-5 -1 -8 -7 -8 -8 0 -10 10 -6 28 6 26 6 26 -15 -6 -12 -18 -19 -36 -15 -39 3
-4 6 -1 6 5 0 6 7 9 15 6 13 -5 13 -8 -1 -21 -12 -12 -18 -13 -29 -3 -12 10
-15 9 -15 -9 0 -11 -6 -21 -12 -21 -9 0 -8 -4 2 -11 12 -8 10 -10 -11 -6 -21
3 -26 0 -25 -17 1 -12 -9 -25 -24 -33 -14 -7 -42 -29 -63 -50 -31 -31 -40 -35
-47 -23 -7 11 -10 12 -10 2 0 -7 -5 -10 -12 -6 -7 4 -8 3 -4 -5 5 -7 -3 -22
-18 -36 -14 -13 -28 -19 -32 -14 -3 6 -13 1 -23 -10 -10 -11 -21 -18 -25 -14
-3 3 -6 1 -6 -5 0 -7 -8 -12 -17 -12 -22 -1 -56 -25 -51 -37 2 -4 -7 -9 -19
-11 -13 -2 -23 -6 -23 -10 0 -11 -60 -35 -91 -36 -15 -1 -25 -3 -23 -5 9 -10
-83 -44 -113 -43 -18 1 -33 -3 -33 -9 0 -6 -7 -8 -16 -5 -12 4 -15 2 -10 -9 6
-18 2 -19 -24 -5 -16 9 -18 8 -13 -6 5 -14 3 -15 -15 -5 -18 10 -22 9 -22 -4
0 -13 -11 -17 -36 -14 -4 0 -10 -5 -14 -12 -5 -7 -17 -13 -28 -14 -11 -1 -27
-7 -36 -14 -9 -8 -27 -14 -41 -14 -15 0 -25 -5 -25 -14 0 -8 -4 -12 -9 -9 -5
3 -14 -1 -21 -9 -7 -8 -19 -15 -28 -15 -8 0 -73 -29 -143 -65 -145 -73 -183
-80 -256 -43 -49 25 -87 69 -108 127 -12 34 -11 42 4 67 28 44 127 132 304
268 89 69 225 177 302 241 258 215 436 353 745 577 389 282 485 354 487 368 3
16 -153 115 -716 452 -172 104 -368 224 -435 267 -66 43 -159 100 -206 127
-166 95 -1039 622 -1533 927 -96 59 -181 107 -189 107 -8 0 -36 -30 -61 -67
-26 -38 -82 -117 -126 -177 -43 -61 -112 -164 -153 -229 l-73 -120 -220 -107
c-122 -59 -275 -133 -340 -163 -66 -30 -338 -161 -604 -291 -266 -130 -485
-236 -488 -236 -2 0 -21 -11 -41 -25 -61 -42 -67 -32 -26 48 21 39 45 83 54
97 18 26 756 1422 828 1565 22 44 54 107 71 140 47 94 60 127 53 143 -4 11 -2
13 9 7 11 -7 11 -5 -1 11 -8 10 -19 22 -25 26 -5 4 -6 8 -2 8 5 0 5 5 1 11
-13 22 -4 167 16 249 5 19 11 51 14 71 3 20 8 43 12 52 4 11 1 17 -7 18 -8 0
-5 4 6 9 11 5 14 9 7 9 -8 1 -4 15 13 41 14 22 25 46 25 54 0 8 3 16 8 18 4 2
25 25 47 53 46 57 144 155 156 155 4 0 22 13 40 29 18 17 35 29 38 28 10 -2
72 33 140 79 35 24 71 44 80 44 14 0 14 2 1 10 -8 5 -10 10 -4 10 17 0 59 41
56 54 -2 6 0 8 3 4 11 -10 47 11 40 23 -4 5 0 12 9 15 8 3 19 19 25 35 5 16
15 29 21 29 6 0 8 5 5 10 -3 6 0 13 8 16 16 6 107 137 107 153 0 5 4 11 9 13
13 5 150 205 165 242 7 18 28 48 45 68 17 20 31 39 31 43 0 4 47 73 103 154
241 339 422 603 422 614 0 4 5 11 11 15 12 8 94 128 94 137 0 9 52 78 70 92 8
7 25 13 37 13 12 0 24 4 27 9 8 12 46 21 46 10 0 -5 -5 -9 -10 -9 -39 0 -129
-110 -318 -387 l-192 -281 78 -112 c220 -320 374 -530 387 -530 14 0 522 755
528 783 1 7 -4 11 -10 10 -7 -2 -12 1 -10 6 2 9 -271 414 -332 491 -44 55 -53
62 -63 47 -5 -8 -8 -7 -8 5 0 11 28 30 86 57 47 23 87 41 89 41 1 0 41 17 87
39 45 21 236 107 423 191 187 84 403 183 480 220 162 79 275 130 285 130 14 0
-7 -78 -34 -130 -15 -29 -70 -129 -123 -223 -52 -94 -113 -204 -135 -245 -22
-41 -60 -106 -84 -145 -24 -39 -44 -74 -44 -78 0 -4 -52 -99 -116 -211 -64
-112 -166 -291 -226 -398 -60 -107 -122 -208 -139 -223 -17 -16 -32 -36 -34
-45 -2 -9 -4 -19 -4 -21 -1 -4 -29 34 -128 176 l-50 73 -30 -48 c-17 -26 -167
-254 -335 -507 -168 -253 -317 -482 -333 -510 -15 -27 -33 -58 -40 -69 -12
-16 -4 -32 64 -138 43 -65 85 -128 94 -138 9 -11 29 -39 43 -62 15 -24 30 -45
34 -48 4 -3 30 -42 59 -87 l52 -82 380 -231 c208 -127 379 -234 379 -237 0 -2
-15 4 -32 15 -18 11 -49 29 -68 41 -19 11 -45 21 -57 21 -12 0 -25 5 -28 11
-4 6 -14 8 -22 5 -8 -3 -11 -1 -8 4 3 6 1 10 -4 10 -18 0 -12 -29 8 -40 13 -6
17 -17 14 -30 -3 -11 -8 -20 -12 -20 -3 0 -17 -18 -31 -39 -24 -40 -48 -58
-85 -63 -12 -2 -19 2 -17 10 1 8 -2 11 -8 7 -17 -11 -11 -28 18 -52 25 -21
-45 17 -235 127 -42 25 -80 46 -84 48 -4 2 -5 -20 -2 -47 4 -40 1 -52 -11 -57
-9 -3 -13 -11 -9 -18 4 -6 0 -6 -9 2 -13 10 -18 10 -24 1 -5 -8 -3 -9 6 -4 16
10 3 -36 -14 -47 -6 -4 -8 -8 -3 -8 4 0 -2 -9 -13 -20 -11 -11 -20 -26 -20
-33 0 -17 -34 -49 -43 -42 -4 3 -6 3 -5 1 5 -8 132 -101 213 -156 44 -30 81
-63 83 -72 2 -9 -6 -25 -17 -34 -11 -10 -18 -21 -15 -26 3 -4 0 -8 -5 -8 -6 0
-11 -8 -11 -17 0 -9 -9 -27 -21 -39 l-21 -22 44 -30 c94 -64 1082 -663 1223
-740 6 -3 4 2 -4 12 -17 20 -19 19 71 67 31 17 58 37 60 45 2 10 311 -170 558
-326 8 -5 38 -23 65 -40 28 -17 82 -51 120 -75 39 -24 88 -54 110 -66 62 -33
106 -69 99 -81 -4 -6 1 -8 15 -3 13 4 21 2 21 -5 0 -6 4 -9 9 -6 5 3 12 -1 15
-10 3 -8 10 -13 15 -10 5 4 18 -5 29 -18 15 -20 22 -22 32 -13 10 9 11 9 6 0
-3 -6 2 -14 13 -18 10 -3 27 -15 37 -27 19 -21 19 -21 -3 -9 -20 10 -22 9 -16
-6 6 -16 5 -16 -10 -5 -14 12 -19 11 -33 -3 -11 -10 -19 -13 -23 -6 -4 5 -27
13 -51 17 -35 6 -40 9 -25 15 15 6 16 8 4 8 -9 1 -22 7 -28 15 -13 15 -51 28
-51 17 0 -3 10 -11 22 -16 29 -13 33 -31 9 -38 -13 -3 -26 3 -36 17 -9 11 -14
16 -11 10 3 -6 -1 -11 -8 -11 -8 0 -12 6 -9 13 3 9 -2 11 -16 7 -26 -7 -27 5
-3 24 15 13 14 13 -7 2 -20 -9 -26 -9 -36 4 -7 11 -16 13 -26 6 -22 -14 -33
-11 -19 6 6 8 10 20 7 27 -3 8 -6 6 -6 -6 -1 -12 -6 -16 -17 -12 -9 3 -22 6
-30 6 -8 0 -13 5 -12 12 2 7 -3 13 -9 14 -7 1 -15 3 -18 4 -3 1 -8 3 -12 4 -5
1 -23 10 -42 20 -26 14 -31 20 -20 27 9 6 10 9 2 9 -6 0 -15 -4 -18 -10 -7
-12 113 -90 139 -90 11 0 16 -3 13 -7 -4 -3 28 -27 71 -53 117 -72 466 -283
475 -288 5 -2 4 5 -2 16 -10 18 -6 26 34 59 25 20 45 45 45 55 0 11 -20 33
-46 51 -79 55 -81 60 -9 21 95 -51 107 -58 119 -67 6 -5 130 -82 274 -172 282
-175 330 -208 339 -233 4 -10 -9 -28 -40 -55 -26 -21 -47 -48 -47 -58 0 -23
52 -58 190 -128 118 -61 140 -68 140 -46 0 8 -13 42 -30 75 -35 70 -37 80 -10
80 36 0 340 -164 588 -317 56 -34 104 -63 106 -63 2 0 48 -27 102 -60 54 -33
100 -57 103 -55 6 7 17 0 -209 139 -256 157 -244 148 -225 159 22 12 19 30
-15 97 -17 34 -24 57 -17 54 7 -2 24 0 38 5 16 7 18 10 7 10 -9 1 -19 5 -22
10 -9 14 4 41 20 41 13 0 18 17 15 46 -3 22 54 12 109 -19 30 -16 132 -75 225
-130 196 -115 193 -114 180 -99 -5 6 -116 75 -246 154 -130 79 -421 255 -645
391 -225 137 -524 317 -664 401 -140 84 -475 286 -745 450 -269 164 -575 350
-680 413 -104 64 -212 130 -240 148 -27 18 -243 149 -480 292 -513 310 -535
323 -535 329 0 2 24 -9 53 -26 89 -53 156 -84 163 -77 4 4 -3 66 -15 137 -13
72 -20 138 -15 148 4 9 7 20 6 24 -1 4 20 -6 46 -21 271 -163 680 -410 909
-549 249 -150 284 -169 292 -153 6 9 24 53 41 96 49 122 46 119 78 96 37 -26
343 -216 384 -238 18 -10 58 -35 88 -54 30 -20 96 -60 145 -89 50 -29 122 -74
162 -99 162 -103 191 -121 260 -154 81 -40 128 -70 256 -166 115 -86 116 -110
2 -204 l-54 -44 423 -256 c233 -142 428 -257 434 -257 6 0 12 -4 14 -9 3 -7
294 -186 811 -497 103 -62 187 -109 187 -104 0 6 8 10 19 10 37 0 47 27 27 78
-23 62 -57 112 -77 112 -21 0 -72 57 -99 111 -17 33 -20 50 -14 102 8 76 16
93 48 101 28 7 65 53 68 87 4 32 -85 92 -169 115 -54 14 -71 25 -118 75 -48
50 -55 63 -55 97 0 57 42 110 120 150 34 17 77 32 95 32 35 0 172 -45 256 -84
31 -15 63 -24 70 -21 8 3 24 21 36 39 12 19 51 69 86 113 35 43 101 128 147
188 46 61 148 190 226 287 257 318 353 456 354 507 0 22 -60 6 -240 -66 -160
-63 -369 -133 -400 -133 -120 0 -239 154 -190 245 6 12 29 32 51 46 l40 24 -6
65 c-9 96 -12 104 -47 120 -47 22 -73 78 -58 125 25 77 115 101 170 46 35 -34
46 -74 31 -107 -10 -23 -6 -28 70 -84 44 -33 86 -60 92 -60 7 0 95 34 197 76
102 42 246 100 320 131 74 30 183 74 241 98 59 25 121 47 139 50 70 12 79 20
249 225 92 111 423 551 534 708 67 96 88 134 96 175 11 59 11 137 -1 137 -4 0
-8 9 -8 20 0 11 -9 35 -20 55 -11 19 -16 35 -12 35 4 0 2 4 -4 8 -5 4 -21 25
-34 46 -17 28 -57 61 -139 114 -63 42 -134 90 -157 107 -23 17 -112 76 -198
131 -86 54 -198 125 -249 157 -190 121 -2035 1255 -2557 1572 -234 142 -431
263 -438 270 -11 10 -1 43 53 181 37 93 80 199 97 236 l30 67 42 -26 c139 -88
421 -278 551 -372 28 -20 57 -41 67 -46 47 -29 492 -329 578 -391 41 -29 79
-53 83 -54 4 0 18 -9 30 -21 l22 -21 -40 17 c-53 23 -95 28 -95 12 0 -9 -2 -9
-8 1 -7 10 -12 8 -24 -5 -34 -41 -30 -50 43 -100 39 -27 87 -60 106 -75 20
-15 50 -32 67 -37 18 -4 97 -54 177 -109 155 -108 600 -399 714 -467 39 -23
144 -88 234 -143 90 -56 165 -102 166 -102 2 0 50 -28 107 -62 202 -120 383
-217 436 -233 26 -8 27 3 7 60 -8 22 -15 41 -15 43 0 1 9 -2 19 -8 28 -14 28
-14 41 24 6 19 17 36 23 39 7 3 56 -9 109 -26 116 -36 126 -32 162 76 3 10 10
16 15 13 5 -4 6 4 3 18 -18 66 -406 313 -1927 1231 -1438 867 -1615 975 -1615
986 0 9 88 247 96 260 3 5 15 4 29 -1 13 -5 446 -268 962 -585z m-3997 166
c82 -57 118 -104 142 -187 36 -124 -18 -233 -180 -365 -7 -6 -23 -16 -35 -22
-42 -22 -177 -121 -177 -129 0 -4 -7 -8 -16 -8 -9 0 -25 -11 -36 -25 -11 -14
-24 -23 -29 -20 -5 4 -9 1 -9 -4 0 -6 -4 -10 -9 -9 -5 2 -18 -7 -29 -20 -11
-13 -22 -23 -24 -22 -10 4 -37 -14 -32 -21 3 -5 -4 -9 -16 -9 -12 0 -18 -4
-15 -10 3 -6 -1 -7 -9 -4 -10 4 -16 1 -16 -9 0 -8 -8 -14 -17 -13 -10 0 -17
-5 -16 -11 2 -7 -3 -13 -11 -13 -7 0 -19 -7 -26 -15 -7 -8 -16 -13 -20 -10 -4
3 -10 -2 -14 -10 -3 -8 -12 -12 -21 -9 -8 3 -15 1 -15 -5 0 -6 -7 -11 -16 -11
-9 0 -12 -5 -8 -11 4 -7 1 -10 -7 -7 -8 3 -30 -5 -49 -17 -19 -12 -45 -25 -57
-29 -13 -4 -23 -12 -23 -18 0 -6 -3 -9 -6 -6 -3 4 -21 -4 -40 -17 -20 -14 -42
-21 -51 -18 -11 4 -14 2 -9 -5 7 -12 -47 -45 -58 -35 -3 4 -6 1 -6 -6 0 -7 -4
-9 -10 -6 -5 3 -10 1 -10 -4 0 -6 -9 -11 -20 -11 -11 0 -20 -4 -20 -9 0 -5
-16 -12 -35 -15 -19 -4 -35 -11 -35 -16 0 -6 -9 -10 -21 -10 -11 0 -18 -4 -14
-9 3 -6 -4 -8 -15 -6 -11 2 -20 0 -20 -6 0 -5 -7 -9 -15 -9 -8 0 -31 -11 -51
-25 -20 -14 -39 -23 -41 -21 -3 2 -13 -3 -24 -12 -11 -9 -23 -17 -27 -17 -18
-2 -57 -19 -70 -31 -7 -8 -22 -14 -33 -14 -10 0 -19 -4 -19 -9 0 -4 -11 -6
-25 -3 -14 2 -25 0 -25 -5 0 -12 -45 -33 -71 -33 -11 0 -17 -4 -14 -10 3 -5
-1 -10 -9 -10 -8 0 -32 -11 -52 -25 -21 -14 -44 -23 -51 -21 -7 3 -15 1 -18
-4 -4 -6 -14 -10 -24 -10 -10 0 -26 -9 -36 -20 -10 -12 -25 -18 -32 -16 -7 3
-13 1 -13 -4 0 -6 -6 -10 -14 -10 -7 0 -19 -6 -26 -14 -6 -8 -24 -16 -38 -18
-15 -2 -26 -8 -25 -15 1 -6 -15 -14 -36 -18 -21 -3 -47 -14 -57 -23 -11 -9
-28 -19 -39 -20 -11 -2 -39 -15 -62 -28 -25 -13 -50 -21 -60 -17 -10 4 -14 2
-9 -5 6 -10 -24 -26 -49 -27 -11 0 -26 -12 -66 -47 -10 -10 -19 -14 -19 -9 0
5 -18 0 -40 -10 -23 -11 -46 -17 -52 -13 -6 4 -8 3 -5 -3 3 -5 -10 -15 -29
-22 -18 -7 -34 -16 -34 -21 0 -5 -7 -7 -15 -4 -8 3 -17 0 -20 -8 -4 -10 -15
-13 -31 -10 -13 2 -24 0 -24 -5 0 -6 -19 -19 -42 -29 -24 -10 -51 -27 -60 -36
-10 -10 -24 -18 -31 -18 -8 0 -28 -7 -46 -16 -17 -9 -38 -17 -45 -18 -7 -1
-25 -10 -39 -19 -15 -10 -27 -15 -27 -11 0 4 -7 1 -15 -6 -8 -7 -22 -10 -30
-6 -9 3 -14 2 -11 -3 7 -11 -40 -35 -53 -27 -6 4 -11 3 -11 -2 0 -5 -12 -17
-26 -27 -15 -9 -23 -12 -20 -6 4 6 2 11 -3 11 -6 0 -11 -4 -11 -8 0 -4 -20
-14 -44 -21 -25 -7 -47 -20 -50 -28 -4 -9 -13 -13 -22 -9 -9 4 -23 1 -32 -6
-8 -7 -18 -12 -21 -11 -11 5 -41 -8 -41 -17 0 -5 -10 -12 -22 -15 -43 -13
-118 -49 -118 -56 0 -5 -6 -6 -14 -3 -8 3 -17 1 -21 -5 -3 -6 -17 -11 -31 -11
-13 0 -24 -4 -24 -8 0 -9 -71 -47 -82 -44 -5 1 -8 -2 -8 -8 0 -5 -7 -7 -15 -4
-8 4 -15 1 -15 -5 0 -6 -6 -11 -13 -11 -7 0 -31 -9 -53 -19 -22 -11 -52 -23
-67 -26 -15 -4 -27 -11 -27 -17 0 -5 -4 -7 -9 -4 -10 7 -71 -13 -71 -23 0 -4
-8 -7 -17 -8 -10 -1 -25 -3 -33 -6 -8 -2 -27 -7 -42 -12 -16 -4 -28 -12 -28
-17 0 -6 -9 -8 -20 -5 -11 3 -20 1 -20 -4 0 -5 -9 -9 -20 -9 -11 0 -20 -5 -20
-11 0 -5 -4 -8 -9 -5 -5 3 -28 -1 -52 -10 -24 -9 -51 -17 -59 -19 -8 -2 -17
-4 -20 -5 -3 -1 -9 -3 -15 -4 -5 -1 -26 -7 -45 -14 -20 -7 -51 -13 -70 -15
-20 -2 -40 -6 -45 -9 -6 -4 -31 -9 -56 -12 -25 -3 -57 -10 -71 -15 -14 -5 -28
-7 -31 -4 -3 3 -23 -1 -44 -8 -21 -7 -42 -12 -47 -11 -5 2 -16 0 -25 -4 -9 -4
-27 -9 -41 -11 -14 -2 -63 -13 -110 -24 -103 -25 -160 -29 -212 -16 -30 7 -48
6 -78 -6 -45 -17 -51 -14 -43 24 4 19 -1 37 -17 59 -52 74 -95 180 -105 260
-3 24 -10 49 -15 54 -16 16 -12 34 9 41 11 3 23 16 27 27 10 33 111 128 190
180 39 25 77 52 85 60 8 7 24 20 36 28 11 8 51 36 88 63 36 26 68 47 72 47 3
0 22 14 43 30 21 17 43 30 49 30 6 0 11 3 11 8 0 9 70 57 84 57 6 1 10 7 8 15
-2 8 0 12 3 8 4 -4 17 -1 27 7 11 7 27 11 36 8 9 -4 13 -2 9 4 -3 5 14 20 38
32 25 12 47 26 50 31 3 5 12 7 20 3 8 -3 15 -1 15 4 0 5 36 27 79 48 44 22 78
42 75 47 -3 4 2 5 10 2 9 -3 16 -1 16 5 0 6 11 11 25 11 14 0 25 4 25 10 0 5
19 15 43 22 23 6 44 15 47 18 3 3 16 11 30 18 14 6 32 16 40 21 8 5 26 13 40
19 14 6 51 22 82 36 31 14 64 26 72 26 9 0 16 4 16 8 0 4 25 16 55 27 30 10
55 22 55 26 0 4 15 11 33 14 17 4 40 13 51 21 10 7 25 10 32 7 8 -3 14 -1 14
5 0 9 207 102 229 102 6 0 11 4 11 9 0 8 41 24 65 25 6 1 12 3 15 6 8 9 114
50 128 50 6 0 12 4 12 9 0 8 37 24 53 22 4 -1 7 4 7 11 0 6 3 9 6 6 6 -6 52
12 159 62 80 38 135 60 135 54 0 -2 17 5 37 16 21 11 44 20 51 20 7 0 20 7 29
15 8 8 19 13 24 9 6 -3 20 1 32 9 12 8 37 18 55 21 17 4 32 11 32 16 0 4 12
11 28 15 15 3 41 13 59 22 17 8 37 15 45 17 7 1 20 6 28 11 8 5 17 10 20 11 3
0 18 6 33 12 16 7 32 12 37 12 5 0 16 7 24 15 9 9 30 18 48 20 18 2 34 9 36
15 2 5 8 10 13 10 5 0 32 11 61 25 28 14 58 25 66 25 8 0 26 7 40 15 31 17
160 65 182 68 8 1 24 10 34 20 11 9 26 17 33 17 7 0 13 6 14 13 0 8 2 8 5 1 3
-8 25 -2 62 16 31 16 60 26 64 24 5 -3 8 0 8 5 0 6 4 11 9 11 5 0 22 5 38 12
15 6 32 10 37 9 4 -1 19 5 32 14 14 9 29 13 34 10 6 -3 10 -1 10 4 0 6 8 11
18 11 10 0 26 6 37 14 16 11 84 37 105 41 12 2 86 28 95 34 6 3 12 6 15 7 3 0
32 9 65 19 33 11 62 19 65 20 14 3 158 49 175 56 11 4 40 13 65 19 25 6 74 19
110 30 110 33 333 93 369 99 65 12 163 -2 201 -28z m9951 -590 c59 -60 22
-151 -63 -151 -54 0 -88 35 -88 90 0 85 90 121 151 61z m-7441 -275 c0 -3 -58
-157 -129 -343 -316 -831 -851 -2233 -871 -2283 l-21 -55 -99 -47 c-55 -25
-100 -44 -100 -40 0 3 22 74 49 156 28 83 73 225 102 316 29 91 63 192 77 225
13 33 26 71 28 84 3 13 9 32 14 41 5 9 19 45 31 81 11 35 53 152 92 259 38
107 87 242 107 300 21 58 47 128 58 155 26 68 138 362 172 455 28 74 98 251
161 405 17 44 49 107 70 140 36 58 42 62 141 107 103 46 118 52 118 44z
m10399 -190 c31 -17 51 -54 51 -97 0 -39 -48 -89 -85 -89 -101 0 -153 127 -72
179 38 24 68 26 106 7z m-26703 -1320 c16 5 16 4 4 -5 -9 -7 -11 -11 -3 -11 7
0 20 -16 29 -35 9 -19 22 -35 29 -35 7 0 16 -11 19 -24 3 -14 14 -27 24 -31
11 -3 24 -22 31 -45 6 -22 18 -40 25 -40 8 0 26 -21 41 -47 15 -25 51 -69 79
-97 28 -29 112 -145 186 -259 74 -114 173 -265 218 -335 89 -135 530 -864
1406 -2322 296 -492 551 -911 566 -931 16 -20 39 -58 52 -85 25 -51 286 -490
586 -989 97 -159 299 -495 450 -745 261 -434 297 -490 305 -479 2 2 14 328 26
724 12 396 24 745 26 775 2 30 7 150 11 267 l6 212 -27 48 c-15 26 -22 43 -15
37 6 -7 20 -10 30 -7 25 7 25 8 55 683 14 316 27 593 28 615 1 30 7 41 21 43
22 5 46 -15 31 -26 -11 -8 -13 -47 -2 -58 4 -4 7 1 7 12 0 10 5 26 11 34 8 12
9 11 5 -5 -5 -17 -1 -20 24 -20 17 0 31 6 31 13 4 33 6 37 19 33 27 -8 64 -3
68 8 2 6 9 8 15 4 7 -4 30 -8 51 -9 22 -1 34 1 27 5 -10 6 -9 10 3 14 8 3 18
2 21 -3 8 -14 26 -12 22 1 -4 21 21 21 42 0 12 -12 21 -16 21 -10 0 6 7 8 16
5 12 -5 15 -2 10 9 -4 10 -2 14 5 9 6 -4 16 0 21 7 7 10 8 8 3 -7 -4 -16 0
-23 13 -26 15 -4 18 -1 15 12 -3 10 1 17 11 17 8 0 13 -4 10 -9 -3 -4 0 -8 6
-8 6 0 9 -3 6 -8 -2 -4 6 -12 19 -18 19 -9 22 -9 18 2 -3 8 -9 14 -14 14 -5 0
-9 8 -8 18 0 10 3 12 6 5 2 -7 14 -13 26 -13 18 0 19 -2 7 -10 -13 -8 -13 -10
2 -10 9 0 19 8 21 18 4 13 5 11 6 -5 0 -13 -5 -23 -11 -24 -10 0 -10 -2 -1 -5
9 -4 11 -73 7 -285 -4 -226 -3 -279 8 -280 30 -1 105 -10 128 -16 38 -9 96 -6
118 6 30 16 32 14 32 -24 0 -20 12 -59 27 -88 25 -50 52 -148 58 -212 8 -87
18 -159 24 -183 5 -15 7 -35 5 -44 -1 -10 1 -18 4 -18 4 0 8 -12 9 -28 2 -15
7 -61 12 -102 4 -41 7 -83 5 -92 -1 -10 1 -18 7 -18 11 0 12 -21 11 -290 -1
-210 -5 -281 -18 -324 -4 -12 -8 -39 -9 -61 -3 -62 -17 -145 -24 -145 -4 0 -8
-15 -9 -32 -3 -49 -7 -68 -21 -118 -7 -25 -15 -56 -17 -70 -3 -14 -13 -52 -23
-85 -11 -33 -23 -76 -27 -95 -11 -48 -11 -49 -14 -55 -1 -3 -3 -9 -4 -14 0 -5
-4 -12 -8 -16 -4 -4 -4 -13 -2 -20 3 -7 1 -16 -5 -20 -6 -3 -11 -16 -11 -29 0
-12 -3 -26 -7 -30 -5 -4 -8 -11 -9 -14 0 -4 -4 -18 -7 -32 -4 -14 -9 -34 -11
-45 -4 -23 -9 -37 -44 -125 -46 -115 -167 -210 -268 -210 -13 0 -34 -5 -48
-11 -29 -14 -28 -6 -56 -392 -11 -148 -22 -273 -26 -278 -3 -5 -10 -7 -15 -4
-13 9 -11 -9 3 -23 9 -9 8 -12 -6 -12 -15 0 -16 -3 -6 -15 8 -9 9 -15 2 -15
-6 0 -14 5 -18 11 -4 8 -9 7 -15 -2 -7 -12 -9 -12 -9 0 0 10 -3 11 -13 2 -14
-11 -27 -5 -27 13 0 6 5 4 11 -4 9 -13 10 -13 6 0 -2 8 -12 15 -23 16 -49 3
-55 4 -48 16 4 7 3 8 -4 4 -8 -5 -12 1 -13 16 -2 22 -2 23 -6 1 -2 -12 -12
-24 -21 -26 -10 -3 -7 -5 9 -6 15 0 33 -9 40 -18 10 -11 10 -14 2 -9 -8 4 -13
2 -13 -4 0 -8 -11 -9 -32 -5 -18 3 -28 3 -22 -2 7 -5 4 -14 -8 -25 -17 -17
-18 -17 -28 2 -7 14 -7 20 0 20 5 0 10 -5 10 -11 0 -5 4 -8 10 -4 6 4 6 15 0
30 -5 14 -7 33 -4 42 5 15 4 16 -5 3 -9 -13 -11 -13 -11 0 0 13 -1 13 -11 0
-9 -12 -10 -11 -6 6 4 17 1 20 -14 17 -18 -5 -18 -7 5 -28 22 -20 23 -25 11
-41 -7 -11 -17 -16 -21 -11 -4 4 -2 7 4 7 7 0 12 5 12 11 0 5 -4 7 -10 4 -5
-3 -10 0 -11 7 0 10 -2 10 -6 1 -6 -16 -33 -17 -33 -2 0 5 6 7 13 3 8 -5 7 -2
-2 10 -8 9 -20 15 -28 12 -8 -4 -13 3 -14 17 0 21 -1 21 -8 2 -6 -14 -4 -23 8
-29 24 -14 24 -14 9 -30 -10 -9 -20 -11 -29 -5 -12 7 -12 9 1 9 8 1 4 6 -10
11 -14 6 -32 8 -41 6 -18 -5 -22 0 -72 83 -19 30 -64 105 -102 165 -37 61 -83
136 -102 168 -18 33 -41 71 -52 85 -31 45 -481 799 -488 819 -16 46 -425 705
-473 763 -39 48 -230 361 -230 378 0 6 -4 12 -8 14 -9 4 -602 986 -605 1002
-1 6 -5 13 -8 16 -9 7 -139 219 -139 226 0 3 -9 17 -20 31 -11 14 -17 29 -14
34 3 5 1 9 -4 9 -9 0 -111 163 -115 184 -1 6 -5 13 -8 16 -14 12 -82 126 -82
138 0 6 -4 12 -8 12 -4 0 -11 10 -15 23 -4 12 -9 24 -13 27 -3 3 -15 23 -26
44 -11 22 -27 46 -35 54 -8 8 -15 22 -16 30 -2 8 -7 18 -12 21 -5 3 -12 16
-16 29 -4 12 -11 22 -16 22 -4 0 -11 11 -14 25 -4 14 -11 25 -16 25 -6 0 -10
6 -10 13 0 8 -9 24 -20 37 -11 13 -20 29 -20 36 0 7 -6 17 -12 21 -22 14 -93
126 -385 608 -77 127 -164 268 -193 315 -29 47 -102 166 -162 265 -61 99 -121
196 -134 215 -13 19 -34 69 -48 110 -22 67 -140 292 -240 454 -20 33 -36 71
-37 85 -1 40 -5 54 -29 107 -13 27 -24 55 -26 61 -1 7 -9 20 -18 29 -9 8 -16
23 -16 32 0 9 -9 32 -20 50 -12 19 -20 41 -19 50 2 28 -1 38 -9 26 -5 -9 -11
-8 -21 3 -11 12 -11 14 1 11 14 -3 18 2 18 28 0 8 -4 12 -10 9 -5 -3 -10 1
-10 9 0 9 -6 16 -12 16 -10 0 -10 2 0 9 11 7 10 10 -3 15 -9 3 -20 4 -24 2 -4
-3 -8 5 -8 17 -2 14 1 17 6 9 4 -7 16 -10 27 -6z m-7856 -445 c80 -38 105
-192 41 -264 -22 -26 -80 -49 -116 -45 -72 6 -135 59 -160 132 -18 52 -18 56
-1 99 36 95 133 127 236 78z m39548 -516 c23 -67 18 -145 -15 -211 -27 -58
-30 -60 -128 -109 -55 -27 -113 -55 -130 -62 -16 -6 -129 -52 -250 -101 -529
-215 -1466 -586 -1549 -614 -113 -37 -198 -46 -246 -26 -79 33 -146 116 -156
192 l-6 44 78 58 c64 47 117 74 274 137 107 43 218 87 245 97 180 66 222 82
240 90 62 28 233 94 480 185 1028 376 985 362 1110 361 37 -1 41 -3 53 -41z
m2617 -405 c36 -14 110 -85 243 -235 63 -71 120 -134 126 -140 6 -5 20 -22 31
-36 11 -14 50 -59 86 -100 96 -107 371 -426 394 -458 10 -14 37 -47 60 -72 52
-59 89 -133 81 -163 -11 -43 -88 -44 -171 -4 -48 24 -508 486 -765 768 -190
209 -205 232 -205 333 0 63 2 71 28 93 31 26 52 29 92 14z m-709 -374 c89 -41
132 -121 159 -293 22 -144 80 -597 145 -1133 12 -91 35 -273 52 -405 17 -136
31 -292 32 -361 1 -116 0 -122 -27 -162 -63 -96 -171 -127 -269 -78 -64 31
-101 80 -122 161 -25 100 -142 873 -196 1300 -100 795 -101 821 -27 916 62 82
154 101 253 55z m-7182 -92 c59 -38 52 -140 -12 -177 -64 -37 -152 7 -152 77
0 52 16 84 52 106 36 23 72 21 112 -6z m-11344 -57 c38 -5 130 -58 385 -219
88 -55 219 -137 290 -181 239 -147 390 -240 417 -256 15 -9 98 -60 185 -115
86 -54 204 -125 262 -156 58 -32 126 -71 151 -87 114 -75 59 -146 -157 -204
-80 -21 -82 -22 -112 -3 -16 10 -69 43 -118 73 -48 29 -126 79 -173 111 -86
58 -267 167 -480 288 -63 36 -146 86 -185 112 -89 60 -521 330 -559 350 -61
32 -62 44 -10 184 32 86 50 123 58 117 6 -4 27 -11 46 -14z m7858 -1127 c37
-26 127 -139 206 -256 14 -21 40 -59 56 -83 16 -24 44 -78 61 -120 17 -42 66
-137 109 -211 42 -74 122 -218 177 -320 93 -172 317 -570 445 -790 486 -836
599 -1027 635 -1066 13 -14 33 -24 49 -24 14 0 94 35 177 78 275 141 334 149
357 48 22 -97 -31 -183 -165 -271 -111 -72 -985 -585 -1070 -627 -64 -33 -199
-87 -229 -92 -13 -2 -54 4 -92 14 -70 19 -114 53 -114 87 0 26 57 107 108 155
47 44 283 198 486 319 131 77 176 116 176 153 0 31 -98 223 -200 391 -64 106
-221 374 -433 740 -38 66 -77 134 -87 150 -10 17 -49 84 -88 150 -93 160 -364
626 -467 800 -213 362 -288 510 -301 591 -11 70 41 162 111 198 41 21 46 21
93 -14z m596 -111 c38 -30 37 -90 -3 -130 -54 -53 -151 -31 -151 35 0 94 87
148 154 95z m4460 -649 c38 -14 83 -67 101 -118 17 -51 28 -192 44 -582 6
-135 13 -299 16 -365 3 -66 10 -241 15 -390 12 -323 17 -381 38 -417 12 -20
45 -40 122 -74 58 -25 121 -52 140 -59 69 -25 303 -137 353 -169 29 -19 100
-52 158 -75 95 -37 159 -72 213 -115 18 -14 18 -16 -5 -63 -30 -62 -45 -79
-97 -110 -71 -42 -64 -44 -697 207 -126 50 -297 117 -380 149 -82 32 -232 93
-332 135 -155 66 -188 84 -221 120 -22 24 -43 57 -47 75 -8 38 10 97 39 130
19 21 27 23 81 18 33 -3 88 -15 123 -27 70 -23 99 -20 112 14 4 13 4 107 -1
212 -45 975 -52 1331 -28 1404 13 41 21 48 78 78 67 33 126 41 175 22z
m-34612 -487 c110 -65 59 -243 -69 -243 -47 0 -98 46 -120 109 -10 29 -9 40 9
78 11 24 32 50 47 58 36 20 97 18 133 -2z m52616 -43 c34 -21 82 -67 82 -79 0
-4 -6 -13 -12 -20 -11 -11 -10 -13 2 -7 8 4 6 0 -5 -9 -16 -13 -33 -15 -83
-11 -79 8 -107 19 -127 49 -45 70 61 127 143 77z m-24162 -344 c28 -28 34 -41
34 -77 -1 -48 -11 -66 -53 -93 -31 -21 -96 -23 -125 -5 -11 7 -30 29 -41 50
-50 89 -6 158 103 159 42 0 52 -4 82 -34z m14515 -266 c24 -13 51 -65 77 -150
29 -93 45 -126 101 -217 76 -123 94 -236 49 -316 -21 -37 -15 -197 15 -347 23
-120 33 -176 42 -245 1 -11 7 -45 13 -75 6 -30 14 -73 17 -95 3 -22 10 -60 15
-85 9 -41 24 -132 51 -305 5 -33 13 -80 17 -105 4 -25 7 -83 7 -128 0 -80 -1
-85 -29 -109 -60 -52 -158 -8 -206 92 -17 35 -39 121 -55 217 -22 129 -83 467
-115 638 -22 113 -56 293 -75 400 -20 107 -50 265 -66 350 -55 286 -49 405 22
465 33 27 85 33 120 15z m-42886 -1063 c21 -3 41 -10 43 -16 3 -8 9 -6 19 6 8
10 12 12 8 6 -3 -7 -1 -13 5 -13 6 0 9 -3 7 -8 -3 -4 9 -7 26 -7 21 0 31 -5
29 -13 -1 -7 3 -12 10 -10 24 4 118 -51 118 -70 0 -15 2 -15 10 -2 9 13 10 13
10 0 0 -9 9 -22 20 -30 11 -8 20 -22 20 -31 0 -10 3 -19 8 -21 9 -4 49 -87 57
-118 0 -3 8 -27 18 -55 9 -27 18 -61 21 -75 2 -14 9 -45 15 -70 5 -25 13 -67
17 -95 3 -27 8 -54 11 -59 3 -4 9 -38 14 -75 4 -36 13 -95 19 -131 6 -36 13
-81 16 -100 3 -19 10 -57 15 -85 5 -27 11 -63 13 -80 2 -16 6 -46 9 -65 37
-197 61 -390 48 -390 -4 0 -7 -19 -8 -42 -4 -99 -19 -178 -35 -178 -5 0 -6 -4
-3 -10 3 -5 1 -10 -5 -10 -6 0 -8 -5 -5 -11 9 -13 -24 -51 -38 -42 -6 3 -7 1
-3 -5 3 -6 -7 -19 -24 -28 -16 -10 -30 -25 -31 -34 0 -10 -2 -11 -6 -3 -5 14
-33 3 -66 -26 -11 -9 -31 -14 -48 -13 -16 2 -29 0 -29 -5 0 -21 -68 -36 -175
-37 -62 0 -111 -4 -108 -8 2 -5 -3 -8 -12 -8 -10 0 -13 5 -9 12 5 7 2 9 -9 5
-9 -3 -18 -1 -21 6 -3 9 -6 9 -13 0 -7 -9 -18 -9 -48 2 -22 8 -48 14 -57 15
-10 0 -33 9 -53 20 -19 11 -35 16 -35 11 0 -5 -28 10 -62 32 -43 28 -75 59
-99 96 -51 78 -101 180 -94 191 4 6 1 10 -4 10 -6 0 -11 16 -11 35 0 19 -4 43
-9 53 -9 16 -33 141 -37 192 -1 14 -10 65 -19 114 -9 50 -14 98 -12 108 3 10
2 20 -3 23 -4 3 -11 35 -15 72 -4 36 -9 78 -11 92 -2 14 -6 40 -9 56 -17 114
-25 437 -12 500 3 17 9 44 12 60 4 17 8 36 9 42 1 7 12 24 24 38 12 14 19 25
16 25 -3 0 7 11 22 25 15 14 23 25 18 25 -5 0 3 11 19 24 15 13 27 28 27 35 0
6 6 11 14 11 8 0 16 4 18 9 4 10 89 64 106 67 8 1 22 10 31 18 10 9 27 16 39
16 12 0 22 4 22 9 0 5 14 8 30 7 17 -1 30 1 30 5 0 14 92 17 195 6z m6232 -78
c113 -55 142 -214 56 -310 -91 -100 -253 -86 -324 28 -33 52 -35 183 -4 225
52 72 185 99 272 57z m32521 -45 c47 -19 88 -58 115 -109 38 -74 19 -194 -40
-247 -59 -54 -299 -138 -1572 -552 -279 -91 -759 -230 -853 -247 -124 -23
-221 19 -267 114 -27 56 -26 110 3 172 27 60 77 106 149 138 157 72 1110 381
1917 622 450 134 476 139 548 109z m-11504 -175 c36 -28 37 -95 2 -136 -58
-68 -172 -5 -150 83 8 33 60 74 93 74 16 0 40 -9 55 -21z m5831 -203 c44 -19
91 -84 104 -145 16 -76 97 -692 162 -1231 11 -91 31 -257 45 -370 14 -113 28
-272 31 -355 5 -145 4 -151 -19 -185 -32 -48 -80 -70 -151 -70 -69 0 -110 20
-131 65 -16 34 -45 204 -81 480 -14 105 -27 206 -30 225 -54 406 -148 1199
-160 1345 -8 94 4 150 42 196 48 56 119 73 188 45z m8539 -40 c47 -20 664
-639 1034 -1039 130 -141 169 -235 139 -338 -21 -70 -64 -114 -130 -134 -103
-31 -200 18 -356 182 -52 54 -142 148 -201 208 -182 190 -482 517 -648 707
-136 156 -154 203 -115 308 20 56 58 98 98 109 47 14 142 12 179 -3z m-15317
-838 c32 -30 32 -90 -2 -123 -33 -33 -70 -32 -106 4 -38 38 -41 101 -7 125 33
23 87 20 115 -6z m10727 -601 c18 -14 41 -43 51 -63 10 -21 34 -146 56 -288
72 -469 81 -521 99 -626 17 -95 52 -311 65 -400 2 -19 16 -107 29 -195 79
-515 80 -557 12 -603 -94 -64 -199 -27 -231 81 -22 72 -301 1807 -311 1937
-14 161 112 247 230 157z m-1352 -436 c53 -12 152 -82 323 -228 83 -71 184
-154 225 -185 63 -47 153 -135 215 -210 8 -9 24 -40 36 -68 36 -85 18 -175
-52 -254 l-30 -35 -39 28 c-22 16 -57 31 -79 35 -33 5 -65 29 -188 139 -81 72
-155 139 -163 147 -9 8 -59 53 -110 100 -254 228 -309 284 -346 349 -71 126
38 221 208 182z m-4755 -172 c62 -30 93 -75 100 -144 6 -56 6 -57 -38 -101
-24 -25 -125 -95 -224 -156 -99 -62 -241 -150 -315 -196 -74 -47 -187 -116
-250 -155 -63 -38 -126 -80 -140 -92 -35 -33 -211 -164 -269 -200 -9 -6 -45
-27 -81 -47 -97 -56 -163 -109 -182 -148 -15 -29 -18 -63 -18 -210 0 -96 5
-271 10 -388 13 -263 10 -275 -63 -320 -31 -19 -67 -32 -86 -32 -29 0 -34 5
-55 53 -26 58 -29 76 -61 392 -38 380 -39 385 -73 385 -9 0 -67 -25 -128 -57
-106 -53 -114 -56 -143 -43 -90 37 -139 186 -87 265 38 57 263 208 846 567
254 156 729 441 928 557 165 96 242 112 329 70z m-1644 -39 c14 -11 28 -20 31
-20 4 0 24 -12 46 -26 37 -25 40 -30 40 -74 0 -43 -4 -51 -40 -83 -79 -72
-191 -110 -252 -85 -22 9 -24 64 -4 128 18 57 56 163 63 173 9 16 90 7 116
-13z m12402 -510 c87 -42 102 -151 30 -223 -32 -32 -125 -83 -162 -90 -19 -4
-98 -27 -263 -77 -52 -16 -142 -43 -200 -60 -120 -35 -186 -55 -355 -107 -66
-20 -147 -44 -180 -53 -33 -9 -67 -20 -75 -23 -8 -3 -76 -22 -150 -41 -74 -19
-178 -47 -230 -61 -52 -15 -108 -30 -125 -35 -128 -35 -226 -63 -320 -90 -144
-42 -238 -49 -283 -21 -78 50 -69 167 20 234 46 35 99 54 458 163 173 53 389
118 480 146 182 55 404 121 580 173 63 18 171 50 240 70 409 122 460 131 535
95z m-39522 -1374 c-3 -6 0 -5 8 2 15 14 33 16 24 3 -3 -6 19 -9 52 -8 36 1
58 -3 60 -10 3 -7 10 -10 17 -7 7 3 19 -2 26 -10 7 -9 16 -13 21 -10 5 3 9 0
9 -7 0 -7 3 -10 6 -6 6 6 97 -53 125 -81 9 -10 29 -26 45 -37 33 -24 145 -115
159 -130 6 -6 36 -31 68 -54 31 -24 57 -47 57 -52 0 -4 8 -10 19 -14 10 -3 28
-13 39 -23 49 -42 240 -186 332 -250 65 -45 247 -228 599 -602 34 -36 86 -90
115 -120 92 -95 176 -194 176 -207 0 -7 5 -13 10 -13 6 0 10 -6 10 -14 0 -8 6
-21 13 -28 6 -7 13 -20 14 -28 1 -8 6 -41 11 -72 5 -32 6 -55 2 -53 -4 3 -10
-4 -13 -15 -3 -11 -2 -20 3 -20 4 0 0 -24 -9 -54 -9 -31 -20 -52 -26 -48 -5 3
-4 -2 4 -12 12 -15 12 -17 0 -14 -8 2 -14 -4 -14 -12 0 -8 -2 -17 -5 -20 -11
-10 -37 -55 -38 -64 0 -5 -6 -12 -14 -17 -7 -5 -13 -13 -13 -19 0 -5 -3 -9 -6
-7 -11 4 -49 -35 -49 -50 0 -7 -3 -12 -7 -11 -5 2 -34 -17 -67 -42 -89 -68
-139 -95 -179 -99 -5 -1 -5 -5 -2 -11 3 -6 -1 -7 -9 -4 -9 3 -16 1 -16 -5 0
-8 -5 -9 -19 -2 -15 8 -20 7 -25 -5 -5 -13 -9 -14 -20 -5 -8 7 -17 8 -20 3
-12 -19 -166 -2 -166 19 0 3 -13 12 -30 19 -16 7 -30 15 -30 19 0 4 -12 14
-27 23 -16 9 -37 25 -48 35 -11 10 -33 29 -50 42 -16 12 -59 48 -94 79 -35 32
-74 63 -85 71 -12 8 -28 22 -36 31 -8 8 -35 31 -60 50 -24 19 -52 42 -61 50
-9 8 -44 40 -79 70 -34 30 -74 66 -89 80 -15 14 -51 45 -80 70 -29 25 -67 58
-84 75 -18 16 -59 54 -92 83 -187 169 -268 246 -452 429 -112 111 -203 207
-203 212 0 6 -6 11 -13 11 -21 0 -123 143 -133 188 -4 15 -9 32 -13 37 -11 20
-15 106 -6 129 5 12 5 17 -1 13 -5 -3 -10 3 -10 14 0 10 4 19 9 19 5 0 5 6 -1
13 -8 10 -6 21 8 45 18 29 18 32 2 42 -14 10 -14 11 -1 7 12 -4 19 5 28 34 7
22 19 43 27 46 7 3 12 9 9 13 -7 11 20 61 28 53 4 -3 7 3 7 15 0 12 4 22 8 22
5 0 17 15 27 34 14 25 23 32 39 29 16 -4 18 -2 7 5 -18 13 -5 33 16 25 11 -4
14 -3 9 5 -5 8 0 12 13 12 12 0 21 6 21 13 0 7 20 21 45 32 25 11 45 22 45 25
0 3 15 7 32 8 18 2 37 8 43 14 7 8 6 9 -4 3 -9 -5 -12 -4 -8 2 9 14 68 13 60
-1z m32682 -125 c247 -60 1458 -458 1542 -506 115 -68 131 -215 31 -287 -47
-33 -150 -37 -249 -9 -256 72 -1318 435 -1441 493 -75 35 -90 46 -109 82 -17
34 -21 51 -15 87 9 62 45 121 86 141 44 22 57 22 155 -1z m-2603 -177 c63 -30
115 -135 102 -202 -8 -39 -32 -65 -103 -110 -104 -66 -1335 -663 -1468 -712
-47 -17 -77 -21 -123 -18 -164 12 -214 183 -87 295 68 60 1150 579 1507 724
106 43 125 46 172 23z m-6452 -745 c50 -28 100 -111 100 -166 0 -64 -31 -86
-395 -280 -71 -39 -272 -146 -445 -240 -357 -193 -551 -297 -660 -356 -41 -22
-147 -79 -235 -127 -224 -122 -351 -185 -418 -206 -53 -16 -59 -17 -91 -1 -19
8 -47 33 -63 53 -25 34 -28 45 -28 114 0 106 23 139 158 227 122 79 362 222
396 234 13 5 35 18 50 28 55 38 563 298 796 408 61 28 157 74 215 101 224 106
288 135 380 173 52 22 104 44 115 49 35 15 86 11 125 -11z m10426 -638 c85
-39 108 -109 52 -157 -53 -44 -385 -195 -670 -304 -114 -44 -225 -90 -353
-146 -16 -7 -111 -47 -210 -89 -99 -43 -193 -83 -210 -90 -48 -22 -114 -37
-134 -30 -18 5 -41 44 -41 69 0 6 12 35 26 64 25 51 28 53 157 116 73 35 155
74 182 86 28 12 88 40 134 62 103 49 143 67 461 211 556 251 530 243 606 208z
m-5255 -346 c110 -28 902 -270 1134 -345 185 -60 230 -82 262 -129 28 -42 29
-76 2 -120 l-20 -34 -67 6 c-37 3 -128 24 -202 46 -74 21 -216 62 -315 91 -99
28 -224 65 -277 81 -105 33 -267 69 -310 69 -67 0 -283 84 -382 149 -64 42
-72 123 -18 173 48 45 67 47 193 13z"/>
<path d="M29604 13764 c6 -16 -4 -25 -18 -16 -14 9 -76 10 -70 1 2 -4 -3 -9
-11 -13 -10 -3 -15 1 -16 12 0 12 -3 11 -10 -6 -5 -13 -13 -20 -19 -17 -5 3
-10 2 -10 -4 0 -6 -7 -8 -16 -4 -10 4 -23 -2 -33 -14 -9 -12 -30 -38 -48 -59
-36 -43 -169 -213 -253 -324 -30 -40 -75 -98 -100 -129 -25 -31 -51 -64 -59
-74 -13 -16 -9 -16 40 3 188 75 375 141 393 138 17 -2 21 -10 20 -35 -1 -18 0
-33 1 -33 13 0 247 530 241 546 -3 8 -2 12 4 9 6 -3 10 4 9 17 0 13 -3 17 -6
11 -2 -7 -9 -13 -14 -13 -6 0 -8 4 -5 8 3 5 -2 9 -10 9 -8 0 -13 -6 -10 -13z"/>
<path d="M27115 13421 l-30 -16 5 -77 c3 -42 7 -79 10 -81 8 -8 209 76 204 85
-8 12 -146 108 -153 107 -3 -1 -19 -9 -36 -18z"/>
<path d="M28755 12611 c-350 -232 -429 -289 -473 -339 -74 -86 -90 -76 -52 29
16 43 27 79 24 79 -2 0 -103 -199 -223 -442 -120 -244 -253 -513 -295 -598
-42 -85 -68 -144 -57 -130 l20 25 -6 -25 c-3 -14 -11 -31 -17 -39 -9 -12 -8
-13 2 -7 11 7 12 4 5 -10 -17 -35 -2 -244 18 -244 5 0 9 -9 9 -20 0 -24 69
-102 83 -93 6 3 7 1 3 -5 -3 -6 8 -21 26 -34 18 -12 45 -36 60 -52 14 -15 31
-25 37 -22 7 5 9 1 5 -8 -4 -10 -1 -16 9 -16 9 0 23 -10 31 -22 9 -12 16 -17
16 -10 0 6 11 11 24 10 14 -1 22 -6 20 -10 -3 -4 2 -8 10 -8 9 0 16 -4 16 -9
0 -5 24 -8 53 -7 l52 1 82 165 c253 508 738 1523 877 1835 108 241 120 285 79
285 -10 0 -207 -125 -438 -279z"/>
<path d="M26540 10773 c0 -14 88 -174 104 -191 4 -3 21 9 83 64 l35 30 -39 26
c-48 32 -159 88 -173 88 -5 0 -10 -8 -10 -17z"/>
<path d="M26284 9988 c-4 -13 -24 -52 -45 -87 -22 -34 -39 -65 -39 -67 0 -2
-26 -48 -58 -101 -31 -54 -68 -120 -82 -148 -14 -27 -28 -52 -31 -55 -6 -5
-77 -127 -101 -175 -73 -142 -161 -295 -210 -367 -10 -15 -18 -30 -18 -33 0
-2 -20 -37 -45 -77 -25 -40 -45 -78 -45 -85 0 -7 -4 -13 -9 -13 -5 0 -12 -9
-16 -19 -3 -11 -30 -60 -60 -110 -30 -50 -55 -95 -55 -100 0 -4 -7 -14 -15
-21 -9 -7 -13 -15 -11 -18 3 -2 -7 -23 -23 -46 -15 -22 -43 -70 -62 -106 -18
-36 -39 -71 -46 -78 -6 -6 -15 -22 -19 -34 -3 -12 -24 -50 -45 -84 -21 -34
-48 -84 -60 -111 -12 -26 -29 -59 -39 -73 -21 -31 -31 -70 -18 -70 5 0 6 -5 3
-11 -4 -6 -10 -8 -13 -5 -8 9 -34 -33 -27 -44 3 -6 22 11 42 38 20 26 42 51
50 55 7 4 13 14 13 22 0 8 6 18 13 22 15 10 83 94 120 149 15 22 35 49 45 60
10 10 21 27 25 37 3 9 11 17 17 17 5 0 10 6 10 13 0 6 15 29 33 50 19 20 60
74 92 120 32 45 82 114 110 152 29 39 61 84 71 100 10 17 21 32 24 35 10 10
59 77 125 175 38 55 84 118 102 141 18 23 33 44 33 48 0 4 6 13 13 20 6 7 21
25 32 40 11 16 25 33 30 40 6 6 31 40 55 76 25 36 47 67 50 70 3 3 23 32 44
65 39 60 185 265 196 275 3 3 13 16 21 30 9 14 37 50 62 79 26 30 44 58 41 62
-5 9 -260 169 -268 169 -3 0 -8 -10 -12 -22z"/>
<path d="M18886 9795 c-9 -13 -16 -30 -16 -37 0 -8 -16 -38 -35 -68 -19 -30
-38 -62 -41 -72 -3 -10 -10 -18 -15 -18 -20 0 -8 -41 22 -75 57 -64 343 -262
534 -369 17 -9 59 -35 95 -57 36 -21 157 -92 270 -156 113 -64 288 -163 390
-221 102 -58 398 -233 658 -389 260 -156 500 -297 532 -313 33 -17 137 -76
232 -131 95 -56 202 -117 238 -136 148 -79 278 -164 300 -195 12 -19 40 -46
62 -62 50 -36 42 -45 -18 -17 -51 24 -51 24 -56 -2 -2 -14 38 -43 182 -131
264 -160 472 -279 487 -279 7 0 13 -5 13 -11 0 -6 5 -3 11 7 5 9 20 17 32 17
17 0 19 -2 7 -10 -8 -5 -11 -12 -7 -16 3 -4 14 -1 23 7 13 11 18 11 21 2 3 -7
11 -13 19 -13 9 0 180 -81 380 -181 201 -99 368 -178 371 -175 16 16 133 233
133 247 0 10 -43 44 -107 87 -367 237 -1078 669 -1247 757 -109 57 -655 383
-746 445 -30 21 -275 170 -545 331 -269 161 -638 385 -820 499 -298 187 -783
479 -1005 605 -112 64 -301 155 -321 155 -9 0 -24 -11 -33 -25z"/>
</g>
</svg>
